<svg xmlns="http://www.w3.org/2000/svg" xmlns:xlink="http://www.w3.org/1999/xlink" width="224" height="130" fill="none" xmlns:v="https://vecta.io/nano"><style><![CDATA[.B{fill:#00bafc}.C{fill:#3f3d56}.D{fill:#2f2e41}.E{fill:#ffb9b9}]]></style><g clip-path="url(#A)"><path d="M13.455 121.797a1.26 1.26 0 0 0-.741.26c-.631-1.668-1.609-2.741-2.707-2.741s-2.075 1.073-2.707 2.741a1.26 1.26 0 0 0-.741-.26c-1.248 0-2.259 2.11-2.259 4.712h11.413c0-2.602-1.011-4.712-2.259-4.712z" class="B"/><path d="M58.803 126.246H.937v.526h57.866v-.526z" class="C"/><path d="M219.142 110.743a1.26 1.26 0 0 0-.741.26c-.631-1.668-1.609-2.74-2.707-2.74s-2.075 1.072-2.707 2.74c-.212-.163-.472-.255-.74-.26-1.248 0-2.259 2.11-2.259 4.712h11.413c0-2.602-1.012-4.712-2.259-4.712z" class="B"/><path d="M194.585 24.16h-55.102v-1.136h-24.985v1.136H59.17c-.489 0-.974.096-1.426.284s-.863.462-1.209.808-.621.757-.808 1.209-.284.937-.284 1.426v75.451c0 .988.393 1.936 1.092 2.635s1.647 1.092 2.636 1.092h135.415c.988 0 1.936-.393 2.635-1.092s1.092-1.647 1.092-2.635V27.887c0-.489-.096-.974-.284-1.426a3.71 3.71 0 0 0-.808-1.209c-.346-.346-.757-.621-1.209-.808s-.937-.284-1.426-.284z" class="C"/><path opacity=".2" d="M193.314 30.746H60.441v74.957h132.873V30.746z" fill="#000"/><path d="M126.764 28.703c.752 0 1.363-.61 1.363-1.363s-.611-1.363-1.363-1.363-1.363.61-1.363 1.363.61 1.363 1.363 1.363z" class="B"/><path d="M223.063 114.929H30.265v.526h192.799v-.526z" class="C"/><path d="M145.032 58.751v-5.546c0-.894-.176-1.778-.518-2.604s-.843-1.576-1.475-2.208-1.382-1.133-2.208-1.475a6.8 6.8 0 0 0-2.604-.518h-5.545c0-.749-2.406-1.362-5.463-1.42v-6.688c.959-.121 1.836-.603 2.453-1.347s.925-1.696.865-2.661-.487-1.87-1.191-2.532a3.8 3.8 0 0 0-5.203 0c-.705.662-1.131 1.567-1.191 2.532a3.8 3.8 0 0 0 3.317 4.008v6.688c-3.056.058-5.462.671-5.462 1.42h-6.496a6.81 6.81 0 0 0-4.811 1.993c-.632.632-1.133 1.382-1.475 2.208s-.518 1.71-.518 2.604v5.546c-.787 0-1.425 2.658-1.425 5.937s.638 5.937 1.425 5.937v6.496c0 .894.176 1.778.518 2.604a6.8 6.8 0 0 0 1.475 2.207 6.81 6.81 0 0 0 4.811 1.993h23.916a6.8 6.8 0 0 0 4.812-1.993 6.8 6.8 0 0 0 1.475-2.207c.342-.825.518-1.71.518-2.604v-6.496c.787 0 1.425-2.658 1.425-5.937s-.638-5.937-1.425-5.937z" class="B"/><path d="M115.674 48.539h21.191c1.599 0 3.133.635 4.263 1.766s1.766 2.664 1.766 4.263v21.191a6.03 6.03 0 0 1-1.766 4.263c-1.13 1.131-2.664 1.766-4.263 1.766h-21.191a6.03 6.03 0 0 1-6.029-6.029V54.568a6.03 6.03 0 0 1 6.029-6.029z" class="C"/><g class="B"><path d="M118.669 64.332a4.28 4.28 0 0 1-3.021-1.254c-.801-.801-1.252-1.888-1.254-3.021a.24.24 0 0 1 .07-.168c.045-.045.105-.07.168-.07s.123.025.168.07a.24.24 0 0 1 .069.168c0 1.008.401 1.974 1.113 2.687a3.8 3.8 0 0 0 6.487-2.687c0-.063.025-.123.07-.168s.105-.07.168-.07.123.025.168.07a.24.24 0 0 1 .069.168 4.28 4.28 0 0 1-4.275 4.275zm7.6 8.075a3.33 3.33 0 0 1-3.325-3.325c0-.063.025-.123.07-.168s.105-.07.168-.07.123.025.168.07a.24.24 0 0 1 .069.168 2.85 2.85 0 0 0 5.7 0c0-.063.025-.123.07-.168s.105-.07.168-.07.123.025.168.07a.24.24 0 0 1 .069.168c-.001.882-.351 1.727-.975 2.35a3.33 3.33 0 0 1-2.35.975zm7.6-8.075a4.28 4.28 0 0 1-4.275-4.275c0-.063.025-.123.07-.168s.105-.07.168-.07.123.025.168.07a.24.24 0 0 1 .069.168c0 1.008.401 1.974 1.113 2.687a3.8 3.8 0 0 0 6.487-2.687c0-.063.025-.123.07-.168s.105-.07.168-.07.123.025.168.07a.24.24 0 0 1 .069.168 4.28 4.28 0 0 1-4.275 4.275z"/><use xlink:href="#B"/><path d="M133.869 62.432a2.14 2.14 0 0 0 2.138-2.138 2.14 2.14 0 0 0-2.138-2.137 2.14 2.14 0 0 0-2.137 2.137 2.14 2.14 0 0 0 2.137 2.138zm-7.6 8.788c1.05 0 1.9-.425 1.9-.95s-.85-.95-1.9-.95-1.9.425-1.9.95.851.95 1.9.95z"/></g><path d="M202.043 104.339h-12.968v-.934c0-.024-.005-.048-.014-.071s-.023-.043-.04-.06-.038-.031-.06-.04-.047-.014-.071-.014h-4.446c-.025 0-.049.005-.071.014s-.043.023-.06.04-.031.038-.04.06-.014.047-.014.071v.934h-2.779v-.934c0-.024-.005-.048-.014-.071s-.023-.043-.041-.06-.037-.031-.06-.04-.046-.014-.071-.014h-4.446c-.024 0-.048.005-.07.014a.19.19 0 0 0-.061.04c-.017.017-.03.038-.04.06s-.014.047-.014.071v.934h-2.779v-.934c0-.024-.004-.048-.014-.071s-.023-.043-.04-.06-.038-.031-.06-.04-.047-.014-.071-.014h-4.446c-.024 0-.048.005-.071.014s-.043.023-.06.04-.031.038-.04.06-.014.047-.014.071v.934h-2.779v-.934c0-.024-.005-.048-.014-.071s-.023-.043-.04-.06-.038-.031-.06-.04-.047-.014-.071-.014h-4.446c-.025 0-.049.005-.071.014s-.043.023-.06.04-.031.038-.041.06-.014.047-.014.071v.934h-2.779v-.934c0-.024-.004-.048-.014-.071s-.023-.043-.04-.06-.037-.031-.06-.04-.046-.014-.071-.014h-4.446c-.024 0-.048.005-.071.014s-.043.023-.06.04-.031.038-.04.06-.014.047-.014.071v.934h-2.779v-.934c0-.024-.005-.048-.014-.071s-.023-.043-.04-.06-.038-.031-.06-.04-.047-.014-.071-.014h-4.446c-.025 0-.049.005-.071.014s-.043.023-.06.04-.031.038-.04.06-.015.047-.015.071v.934h-2.778v-.934c0-.024-.005-.048-.014-.071s-.023-.043-.041-.06-.037-.031-.06-.04-.046-.014-.071-.014H108.49c-.025 0-.049.005-.071.014s-.043.023-.06.04-.031.038-.041.06-.014.047-.014.071v.934h-2.778v-.934c0-.024-.005-.048-.014-.071s-.023-.043-.041-.06-.037-.031-.06-.04-.046-.014-.071-.014h-4.446c-.024 0-.048.005-.071.014s-.043.023-.06.04-.031.038-.04.06-.014.047-.014.071v.934H97.93v-.934a.19.19 0 0 0-.014-.071c-.009-.022-.023-.043-.04-.06s-.038-.031-.06-.04-.047-.014-.071-.014h-4.446c-.024 0-.048.005-.071.014s-.043.023-.06.04-.031.038-.04.06a.19.19 0 0 0-.014.071v.934h-2.779v-.934c0-.024-.005-.048-.014-.071a.19.19 0 0 0-.04-.06c-.017-.017-.038-.031-.06-.04s-.047-.014-.071-.014h-4.446c-.024 0-.048.005-.071.014s-.043.023-.06.04-.031.038-.04.06-.014.047-.014.071v.934h-2.779v-.934a.19.19 0 0 0-.014-.071c-.009-.022-.023-.043-.04-.06s-.038-.031-.06-.04-.047-.014-.071-.014h-4.446c-.024 0-.048.005-.071.014s-.043.023-.06.04-.031.038-.04.06a.19.19 0 0 0-.014.071v.934h-2.779v-.934a.19.19 0 0 0-.014-.071c-.009-.022-.023-.043-.04-.06s-.038-.031-.06-.04-.047-.014-.071-.014h-4.446c-.024 0-.048.005-.071.014s-.043.023-.06.04-.031.038-.04.06a.19.19 0 0 0-.014.071v.934h-2.779v-.934a.19.19 0 0 0-.014-.071c-.009-.022-.023-.043-.04-.06s-.038-.031-.06-.04a.19.19 0 0 0-.071-.014h-4.446a.19.19 0 0 0-.071.014c-.023.009-.043.023-.06.04s-.031.038-.04.06a.19.19 0 0 0-.014.071v.934H54.21c-.584 0-1.162.115-1.701.339s-1.03.551-1.443.964a4.45 4.45 0 0 0-1.302 3.144v2.01c0 1.179.468 2.31 1.302 3.144s1.965 1.302 3.144 1.302h147.833c1.179 0 2.31-.468 3.144-1.302s1.302-1.965 1.302-3.144v-2.01a4.46 4.46 0 0 0-1.302-3.144c-.413-.413-.903-.741-1.443-.964a4.43 4.43 0 0 0-1.701-.339z" class="C"/><path d="M169.406 83.629h-88.64v.526h88.64v-.526z" class="B"/><path d="M87.078 83.366H65.247c.699-8.227.699-16.498 0-24.725h21.831c-1.202 8.468-1.272 16.723 0 24.725z" fill="#d0cde1"/><g class="C"><use xlink:href="#C"/><path d="M84.185 67.058H68.403v1.052h15.782v-1.052zm0 3.42H68.403v1.052h15.782v-1.052zm0 3.419H68.403v1.052h15.782v-1.052zm0 3.419H68.403v1.052h15.782v-1.052z"/></g><path d="M29.066.844s-3.43-1.225-5.635 3.675-5.635 10.29-5.635 10.29l1.96.49s.49-3.43 1.715-3.92l-.49 4.41s14.701 5.145 21.316-.49l-.245-1.715s.98.245.98 1.715l.735-.735s-.735-1.47-2.94-3.43C39.379 9.848 38.882 7.4 38.711 5.87a6.37 6.37 0 0 0-1.467-3.469C35.779.702 33.109-1.103 29.066.844z" class="D"/><path d="M19.174 108.929l1.052 6.05 4.209-.79.789-5.26h-6.05z" class="E"/><path d="M25.224 112.348l-5.787.526.263 4.735-.263 6.049s-3.419 6.839 1.578 6.313 4.471-3.156 4.471-3.156l1.315-1.578-.789-3.946-.789-8.943z" class="D"/><path d="M42.846 108.929l-1.052 6.05-4.208-.79-.789-5.26h6.05z" class="E"/><path d="M36.797 112.348l5.787.526-.263 4.735.263 6.049s3.419 6.839-1.578 6.313-4.471-3.156-4.471-3.156l-1.315-1.578.789-3.946.789-8.943z" class="D"/><g class="E"><path d="M30.747 17.133a6.05 6.05 0 0 0 6.05-6.05 6.05 6.05 0 0 0-6.05-6.05 6.05 6.05 0 0 0-6.05 6.05 6.05 6.05 0 0 0 6.05 6.05z"/><path d="M26.802 14.239l.789 9.469 7.365-.263s-2.104-6.05-.789-8.417l-7.365-.789z"/></g><path d="M31.01 21.867l3.029-1.89 3.283 1.626 5.261 2.367-1.841 22.357s4.208 13.94 3.419 20.779 8.68 41.032 1.052 42.61-13.151 3.156-13.414.526-.789-42.873-.789-42.873-.789 42.61-3.945 43.136-16.834 2.63-15.782-.526 8.154-58.392 11.573-61.548l.526-2.63-4.471-21.305 8.397-4.185 3.702 1.555z" class="D"/><g class="E"><path d="M15.228 54.482l-.263 10.784s-2.532 10.647 1.759 10.584 1.134-10.584 1.134-10.584L19.7 54.745l-4.471-.263zm39.774-11.318l7.392 7.857s8.99 6.24 5.752 9.057-7.907-7.126-7.907-7.126l-8.392-6.608 3.155-3.18z"/></g><path d="M22.988 47.775l18.015-.552L40.768 46v-.005l-17.412-.316-.368 2.096z" fill="#d0cde1"/><g class="D"><path d="M26.67 48.301a1.58 1.58 0 0 0 1.578-1.578 1.58 1.58 0 0 0-1.578-1.578 1.58 1.58 0 0 0-1.578 1.578 1.58 1.58 0 0 0 1.578 1.578zM21.015 24.76l-1.71-.395s-2.236.921-2.762 3.814-7.365 25.514-3.945 26.829 8.417 1.841 8.417 1.315 2.104-20.253 2.104-20.253l-2.104-11.31zm16.088 1.003l5.48-1.792s2.63 0 2.63 2.893c0 1.194 5.041 10.998 5.041 10.998s12.112 8.634 10.258 8.943c-3.156.526-4.998 6.05-4.998 6.05L43.679 42.334l-6.576-16.571zM23.369 11.534s1.96-2.695 3.675-3.185 1.96-2.94 1.96-2.94 4.41 4.9 7.105 5.145.245-5.88.245-5.88l-4.9-1.225-4.655.49-3.675 2.45.245 5.145z"/></g><path d="M24.829 11.346c.436 0 .789-.53.789-1.184s-.353-1.184-.789-1.184-.789.53-.789 1.184.353 1.184.789 1.184z" class="E"/></g><defs><clipPath id="A"><path fill="#fff" transform="translate(.937)" d="M0 0h222.126v130H0z"/></clipPath><path id="B" d="M118.669 62.432a2.14 2.14 0 0 0 2.138-2.138 2.14 2.14 0 0 0-2.138-2.137 2.14 2.14 0 0 0-2.137 2.137 2.14 2.14 0 0 0 2.137 2.138z"/><path id="C" d="M84.185 63.639H68.403v1.052h15.782v-1.052z"/></defs></svg>