<svg xmlns="http://www.w3.org/2000/svg" xmlns:xlink="http://www.w3.org/1999/xlink" width="170" height="130" fill="none" xmlns:v="https://vecta.io/nano"><style><![CDATA[.B{opacity:.1}.C{fill:#000}.D{opacity:.5}.E{fill:#00bafc}.F{fill:#c8cad7}.G{fill:#fbbebe}.H{fill:#ff748e}]]></style><g clip-path="url(#B)"><g class="E"><path d="M166.336 29.6a34.62 34.62 0 0 0-6.713-9.042l-93.125-.776 76.673-9.103a50.52 50.52 0 0 0-15.556-2.609C120.234 3.031 110.747.008 100.399.008c-9.285 0-17.87 2.439-24.869 6.579-5.948-2.591-12.729-4.06-19.934-4.06-20.691 0-37.932 12.115-41.8 28.182l152.54-1.108zm3.274 13.475a29.5 29.5 0 0 0-2.902-12.717L5.311 44.68a31.38 31.38 0 0 0-3.781 8.073l49.98 6.299L.39 63.643c1.538 18.189 19.981 32.55 42.512 32.55 11.341 0 21.645-3.639 29.281-9.574 7.66 6.047 18.063 9.765 29.526 9.765 17.008 0 31.688-8.187 38.524-20.023 13.714-3.681 24.368-12.921 28.014-24.48l-63.206-8.287h64.569v-.52zm-94.347 86.924c23.983 0 43.425-.868 43.425-1.938s-19.442-1.938-43.425-1.938-43.425.868-43.425 1.938 19.442 1.938 43.425 1.938z" class="B"/></g><path d="M101.037 124.652v1.171h-34.63v-.951c2.112-.782 3.944-2.173 5.265-3.998a11.38 11.38 0 0 0 .471-12.643c-1.181-1.918-2.905-3.442-4.953-4.379h33.612c-2.002.916-3.695 2.394-4.874 4.254a11.38 11.38 0 0 0-1.768 6.222c.025 2.202.688 4.349 1.909 6.182a11.38 11.38 0 0 0 4.969 4.142z" class="F"/><path d="M100.802 103.852a11.4 11.4 0 0 0-4 3.06c-1.088 1.306-1.871 2.839-2.29 4.486H73.481c-.42-1.647-1.202-3.18-2.29-4.485a11.39 11.39 0 0 0-3.999-3.061h33.611z" class="B C"/><path d="M26.746 97.886v6.574c0 3.63 2.657 6.572 5.935 6.572h101.895c3.278 0 5.934-2.942 5.934-6.572v-6.574H26.746z" class="F"/><path d="M101.037 124.652v1.171h-34.63v-.951a11.37 11.37 0 0 0 2.67-1.422h29.837c.663.475 1.374.878 2.124 1.202z" class="B C"/><path d="M111.058 123.815H56.385c-.786 0-1.423.637-1.423 1.423v.624c0 .786.637 1.423 1.423 1.423h54.673c.786 0 1.423-.637 1.423-1.423v-.624c0-.786-.637-1.423-1.423-1.423z" class="F"/><path d="M140.51 25.85a5.93 5.93 0 0 0-1.741-4.191c-1.113-1.111-2.621-1.735-4.193-1.735H32.685c-1.573-.002-3.083.622-4.197 1.733s-1.741 2.619-1.743 4.193v73.314H140.51V25.85z" fill="#474157"/><path d="M137.413 28.498v62.996a2.9 2.9 0 0 1-.222 1.118 2.91 2.91 0 0 1-.633.948c-.271.271-.593.487-.948.633a2.92 2.92 0 0 1-1.118.222H32.777a2.92 2.92 0 0 1-2.066-.855 2.92 2.92 0 0 1-.855-2.066V28.498a2.92 2.92 0 0 1 2.922-2.922h101.707a2.93 2.93 0 0 1 1.121.22c.355.146.678.361.95.633s.488.594.635.949.223.736.223 1.12z" fill="#4c4c78"/><g fill="#fff"><path d="M83.63 24.116a1.37 1.37 0 1 0 0-2.74 1.37 1.37 0 1 0 0 2.74zm0 83.996a3.38 3.38 0 0 0 3.378-3.378 3.38 3.38 0 0 0-3.378-3.379 3.38 3.38 0 0 0-3.378 3.379 3.38 3.38 0 0 0 3.378 3.378zM52.583 27.038v67.378H32.777a2.92 2.92 0 0 1-2.921-2.921V28.498l.106-.397.284-1.063h22.337z"/></g><path d="M55.124 28.101v6.065H29.855v-5.668l.106-.397h25.163z" fill="#4c4c78"/><path d="M137.413 28.498H29.855a2.92 2.92 0 0 1 .856-2.065 2.92 2.92 0 0 1 2.066-.855h101.707a2.92 2.92 0 0 1 1.12.22c.356.146.679.361.951.632s.488.594.635.948.223.735.223 1.12z" class="F"/><g fill="#ededf4"><path d="M32.777 27.769a.731.731 0 1 0 0-1.462.731.731 0 0 0 0 1.462zm2.191 0a.731.731 0 1 0 0-1.462.731.731 0 1 0 0 1.462zm2.191 0a.731.731 0 1 0 0-1.462.731.731 0 1 0 0 1.462z"/></g><g class="E"><use xlink:href="#C"/><path d="M48.806 37.585H33.632v1.397h15.174v-1.397zm0 4.817H33.632V43.8h15.174v-1.397zm0 4.818H33.632v1.397h15.174V47.22zm0 4.816H33.632v1.397h15.174v-1.397zm0 4.818H33.632v1.397h15.174v-1.397zm0 4.817H33.632v1.397h15.174v-1.397zm0 4.816H33.632v1.397h15.174v-1.397z" class="D"/></g><g fill="#dce0ed"><use xlink:href="#D" class="D"/><path d="M132.247 41.125h-67.24v.225h67.24v-.225zm0 5.217h-67.24v.225h67.24v-.225zm0 5.216h-67.24v.225h67.24v-.225zm0 5.216h-67.24v.225h67.24v-.225z" class="D"/></g><g class="E"><path d="M132.248 56.997H64.924V46.739l6.174 3.043 6.39.866 5.607-1.691 6.764-5.246 3.402-1.965 2.487-.479 2.38.127 3.914 1.933 5.32 3.389 4.175.538 3.311-1.141 7.016-5.748 3.582-1.277 3.748.58 3.053 1.762v15.567z" class="D"/><path d="M76.659 50.651c-6.062 0-11.666-3.708-11.735-3.756l.166-.249c.087.058 8.71 5.764 16.037 2.905 2.675-1.041 4.573-2.663 6.418-4.229 1.921-1.637 3.736-3.184 6.209-3.855 2.845-.768 5.938-.072 8.293 1.863 2.013 1.655 6.023 4.313 10.259 3.518 2.16-.404 3.981-1.983 5.908-3.652 3.69-3.205 7.518-6.513 14.12-1.763l-.175.243c-6.417-4.611-10.147-1.379-13.753 1.746-1.959 1.698-3.81 3.295-6.049 3.721-4.357.816-8.452-1.893-10.505-3.581-2.28-1.875-5.28-2.546-8.023-1.805-2.409.653-4.193 2.177-6.093 3.792-1.858 1.583-3.781 3.221-6.499 4.281-1.462.556-3.014.833-4.578.819z"/><path d="M97.362 42.904c.921 0 1.667-.746 1.667-1.667s-.746-1.667-1.667-1.667-1.667.746-1.667 1.667.746 1.667 1.667 1.667z"/></g><path d="M55.592 77.458l-3.145-1.638-.046-.033c-.249-.191-.446-.44-.575-.726v-.15.015c.038-.695.53-1.325.999-1.876l1.198-1.409c.138-.142.243-.313.309-.5.024-.098.035-.199.033-.299v-.123l-.029-1.048c-.012-.307-.09-.692-.397-.749-.159-.033-.368.024-.449-.112-.029-.056-.037-.12-.021-.181.059-.239.097-.48.114-.723a1.03 1.03 0 0 0-.049-.364c-.178-.508-.788-.716-1.327-.812s-1.144-.178-1.483-.599a4.92 4.92 0 0 0-.3-.406 1.18 1.18 0 0 0-.553-.273c-.669-.166-1.374-.104-2.004.175-.261.117-.523.272-.809.256s-.551-.225-.845-.274c-.473-.081-.927.268-1.161.68a1.65 1.65 0 0 0-.214.801v.046c-.006.302.105.595.309.818.204.213.508.358.599.636.034.114.027.237.057.35 0 .015.009.029.014.043l-.017.019a3.56 3.56 0 0 0-.749 2.189c.005.77.254 1.518.711 2.137s1.1 1.077 1.834 1.307v.108a1.55 1.55 0 0 1-.494 1.206l-3.232 1.297s-1.947-.231-2.648 2.613a4.81 4.81 0 0 0-.12 1.442c.025.43-.035 1.185-.533 2.161-.798 1.563-.617 5.15 1.015 5.505 1.541.335 2.144.196 2.207.18v.063c-.025.674-.27 6.478-1.158 7.188-.247.193-.201.325 0 .413v.105c-.027.425-.165 2.041-.759 2.962-.683 1.061-.605 7.201-.605 7.201l-.47 3.623s.289 2.237 0 2.628c-.259.349-.599 8.627-.677 10.421h-.03a.88.88 0 0 0-.402.126.87.87 0 0 0-.296.3c-.386.62-1.719 1.762-1.719 1.762-.289.412-1.361.806-1.927.992a1.17 1.17 0 0 0-.219.094c-.212.115-.382.294-.487.512a.55.55 0 0 0-.051.427c.15.355 3.155.599 3.916.248.599-.278 2.971-.647 3.956-.79a.81.81 0 0 0 .704-.704c.009-.062.006-.125-.009-.185s-.043-.117-.081-.167c-.189-.234-.286-.872-.329-1.288.08-.033.155-.077.222-.132-.081-1.29.104-2.584.544-3.8.725-1.917.944-5.469.762-7.779 0 0 2.212-9.519 3.953-10.407.027.033.872 1.117.979 4.474.108 3.41 1.34 5.647 1.34 5.647s-.544 5.79 0 7.957l-.714 3.413c-.03-.025-.058-.051-.085-.078l.051.247-.015.072.03.007c.081.427.201 1.171.15 1.609-.029.25-.097.59-.15.925-.075.526-.096 1.036.181 1.147.449.183 3.119.433 3.573-.15a.84.84 0 0 0 .132-.877c-.033-.081-.077-.156-.132-.223 0 0-.708-1.158-.508-1.974.018-.08.02-.162.006-.242s-.046-.157-.091-.225a24.11 24.11 0 0 1 .621-3.832c.449-1.709 1.411-5.456.707-7.921a4.27 4.27 0 0 0-.09-.284c-.407-1.346-.543-2.758-.4-4.156a8.45 8.45 0 0 1 0-3.623c.431-1.987.735-3.934.735-3.934s.24-2.628.03-4.239l-.014-.103.114-.026s-.616-2.734-.834-4.475l-.192-1.487c.201-.035.398-.085.592-.15 1.959-.675 2.574-6.785 2.574-6.785v-1.938s.653-2.961-1.632-4.28zm-14.59 47.172l-.096-.051.096.051z" fill="url(#A)"/><path d="M54.41 112.711c.849 2.443-.15 6.407-.599 8.177a24.81 24.81 0 0 0-.599 3.893c-1.033.175-2.091.15-3.115-.072l.749-3.645c-.53-2.159 0-7.929 0-7.929s-1.198-2.231-1.309-5.629c-.105-3.344-.928-4.425-.955-4.46-1.712.89-3.865 10.373-3.865 10.373.177 2.301-.036 5.841-.749 7.753a9.59 9.59 0 0 0-.532 3.787c-.247.209-.592.244-.963.185-1.011-.164-2.222-1.035-2.222-1.035s.389-10.333.672-10.725 0-2.62 0-2.62l.46-3.61s-.07-6.124.599-7.188c.581-.918.714-2.529.741-2.952v-.105l1.024-1.226s9.912-.749 10.655 0c.183.183.299.599.362 1.12.204 1.605-.03 4.224-.03 4.224s-.3 1.947-.722 3.928a8.6 8.6 0 0 0 0 3.611 10.78 10.78 0 0 0 .397 4.145z" fill="#65617d"/><path d="M53.79 128.233c-.442.584-3.043.337-3.486.15-.271-.113-.25-.62-.177-1.144l.141-.921c.072-.638-.211-1.931-.211-1.931s.584.62.725 0a.68.68 0 0 1 .186-.31c.089-.084.199-.143.319-.169.303-.092.63-.071.919.057.46.199 1.227.624 1.089 1.198-.195.813.496 1.966.496 1.966a.9.9 0 0 1 .129.223.85.85 0 0 1 .06.459c-.023.155-.088.301-.189.422z" fill="#a27772"/><g class="C"><path d="M53.79 128.233c-.442.584-3.043.337-3.486.15-.271-.113-.25-.62-.177-1.144.279.13.749.239 1.545.166.185-.018.371-.024.557-.018a12.87 12.87 0 0 0 1.689-.033.85.85 0 0 1 .06.458c-.023.155-.088.301-.189.421zm-9.073-14.814c.177 2.301-.036 5.841-.749 7.753a9.59 9.59 0 0 0-.532 3.787c-.247.208-.591.244-.963.184l1.707-13.007c.663-5.788 3.769-9.77 3.769-9.77l.62.682c-1.7.888-3.853 10.371-3.853 10.371z" class="B"/></g><path d="M52.728 76.217l-.433 2.123-2.116 3.558-2.61-1.116s-3.549-3.717-1.319-4.247c.267-.057.52-.169.741-.329.437-.331.575-.81.578-1.28a3.94 3.94 0 0 0-.362-1.523l4.566-1.433c-.189.6-.299 1.221-.328 1.849-.035 1.243.427 1.857.806 2.149a1.36 1.36 0 0 0 .478.249z" class="G"/><path d="M51.773 71.97c-.189.6-.299 1.221-.328 1.849a3.61 3.61 0 0 1-3.876 1.107c-.018-.527-.141-1.045-.362-1.523l4.566-1.433z" class="B C"/><path d="M52.296 71.385a3.61 3.61 0 0 1-2.229 3.336 3.61 3.61 0 0 1-3.935-.783 3.61 3.61 0 0 1-.783-3.935 3.61 3.61 0 0 1 3.336-2.229 3.6 3.6 0 0 1 1.383.272c.439.181.837.447 1.173.782a3.6 3.6 0 0 1 1.055 2.556z" class="G"/><g class="C"><path d="M52.728 76.216l-.433 2.124-2.116 3.558-2.61-1.116s-3.549-3.717-1.319-4.247c.267-.057.52-.169.741-.329-.403 1.107 1.259 3.408 1.259 3.408.193.284.638.106.638.106 1.069-.162 3.041-3.241 3.362-3.753a1.35 1.35 0 0 0 .478.249zm2.045 20.59c-.629.15-4.106.912-5.424.72-1.451-.213-4.274-.353-4.274-.353s-1.797.096-2.348-.15v-.105l1.024-1.226s9.912-.749 10.655 0c.195.177.3.591.367 1.114z" class="B"/></g><path d="M48.251 79.721s-1.867-2.586-1.164-3.594l-3.155 1.294s-1.899-.231-2.583 2.603a4.94 4.94 0 0 0-.118 1.439c.025.427-.033 1.178-.52 2.152-.779 1.557-.599 5.133.991 5.487s2.16.177 2.16.177-.213 6.478-1.132 7.221 2.347.566 2.347.566l4.272.355c1.451.205 5.521-.749 5.521-.749l-.815-4.46-.707-5.427 3.611-4.891s.636-2.956-1.593-4.265l-3.07-1.632s-2.246 3.649-3.408 3.826c0 .003-.443.183-.637-.102z" class="H"/><path d="M44.109 80.748s-.035 1.168.178 1.628.99 3.009.99 3.009h-1.768s.955-1.026.885-1.522-.285-3.115-.285-3.115z" class="B C"/><use xlink:href="#E" class="G"/><use xlink:href="#E" opacity=".05" class="C"/><path d="M52.728 84.96v2.12h-.341a9.92 9.92 0 0 0-4.813 1.246l-.638.353-.172.096-1.098-2.471 1.027-.921h.052c.252.024 1.337.114 1.797-.04s.981-.62 2.267-.291c.635.162 1.175.873 1.797.651l.121-.744z" class="G"/><path d="M56.144 81.101l.708.797v1.929s-.599 6.089-2.513 6.761-5.324-.389-5.324-.389-.882-2.336-.47-2.478 3.645-.994 3.645-.994-.046-3.572.662-4.633c0 0-.46-3.328 1.132-3.398s2.159 2.407 2.159 2.407z" class="B C"/><path d="M56.248 81.101l.708.797v1.929s-.599 6.089-2.514 6.761-5.322-.389-5.322-.389-.882-2.336-.47-2.478 3.644-.994 3.644-.994-.045-3.572.663-4.633c0 0-.461-3.328 1.132-3.398s2.16 2.407 2.16 2.407z" class="H"/><path d="M51.306 72.919c.032-.233.004-.47-.081-.689a.53.53 0 0 0-.56-.324c-.3.07-.434.464-.731.559-.25.079-.524-.097-.644-.331-.1-.244-.142-.507-.123-.77v-.888c0-.322-.01-.669-.21-.922-.247-.314-.827-.449-1.213-.439a1.03 1.03 0 0 0-.693.279.9.9 0 0 1-.729.261.63.63 0 0 1-.508-.44 3.5 3.5 0 0 1 1.116-.985 3.61 3.61 0 0 1 2.884-.282 3.61 3.61 0 0 1 2.162 1.93 3.61 3.61 0 0 1 .047 2.898 3.61 3.61 0 0 1-.84 1.219c.06-.356.1-.715.121-1.075z" class="B C"/><path d="M46.321 69.548c-.118-.018-.228-.069-.318-.147s-.156-.179-.191-.293c-.028-.114-.021-.237-.055-.349-.082-.279-.379-.424-.578-.635-.398-.422-.373-1.119-.091-1.628.229-.41.671-.756 1.134-.677.286.051.533.255.824.273s.535-.138.789-.255a2.97 2.97 0 0 1 1.956-.174 1.13 1.13 0 0 1 .539.271c.103.129.199.264.288.404.329.421.921.503 1.447.599s1.122.299 1.294.81c.115.335 0 .699-.061 1.048a.3.3 0 0 0 .013.217c.082.136.288.079.449.111.3.063.374.449.385.749l.028 1.048a1.35 1.35 0 0 1-.03.388 1.37 1.37 0 0 1-.3.487l-1.169 1.405c-.518.623-1.068 1.348-.964 2.152-.246.109-.536-.102-.617-.359s-.017-.533.039-.797a9.79 9.79 0 0 0 .184-1.382c.032-.233.004-.471-.081-.69a.53.53 0 0 0-.562-.324c-.3.07-.433.464-.729.559-.25.081-.524-.097-.644-.331-.099-.244-.142-.507-.123-.77v-.888c0-.322-.01-.669-.21-.922-.246-.314-.827-.449-1.213-.439a1.03 1.03 0 0 0-.693.279.9.9 0 0 1-.738.261z" fill="#7c5c5c"/><g class="C"><path d="M47.135 80.66l1.11 4.553s.873-.005-1.11-4.553zm3.789-.763s-1.453 2.378-.885 4.835l.27.02s-.482-1.138.615-4.855zm.919 13.453s1.782-.59 1.912.779c0 0-.337-.939-1.912-.779zm-5.15-7.859s-.353 2.478.283 3.47a7.78 7.78 0 0 1-3.115.424l-.213-3.894h3.044z" class="B"/><path d="M46.936 88.68l-.172.096-1.098-2.471 1.027-.921h.052c-.017.12-.303 2.248.19 3.296z" class="B"/></g><path d="M46.693 85.384s-.353 2.478.283 3.47a7.78 7.78 0 0 1-3.115.424l-1.238-3.894h4.07z" class="H"/><path d="M43.631 126.726a.8.8 0 0 1-.687.701l-3.861.788c-.749.355-3.681.106-3.823-.247-.02-.071-.026-.145-.017-.219a.56.56 0 0 1 .068-.208c.069-.141.165-.266.283-.369s.256-.181.405-.23c.554-.186 1.599-.577 1.881-.987 0 0 1.303-1.141 1.674-1.756.07-.122.169-.224.287-.298a.85.85 0 0 1 .394-.126c.31-.015.654.142.797.82 0 0 1.698.969 2.158.12 0 0 .07 1.305.352 1.662.037.05.064.106.08.166s.019.122.01.183z" fill="#a27772"/><path d="M43.631 126.726a.8.8 0 0 1-.687.701l-3.861.788c-.749.355-3.681.106-3.823-.247-.02-.071-.026-.145-.017-.219a.56.56 0 0 1 .068-.208c.101-.215.267-.393.475-.509.479.317 1.543.629 3.882.263 2.231-.348 3.335-.69 3.874-.922.038.05.065.107.081.168s.019.123.009.185z" class="B C"/><g class="B C"><path d="M53.29 68.844c.07-.28.107-.55.109-.821a5.07 5.07 0 0 1-.109.644c-.013.058-.013.118 0 .177zm-2.065 3.313c.056.128.085.265.087.404a1.22 1.22 0 0 0-.087-.563.53.53 0 0 0-.562-.325c-.3.07-.433.466-.729.56-.25.079-.524-.099-.644-.332-.101-.243-.143-.507-.123-.77v-.886c0-.322-.01-.669-.21-.922-.247-.316-.827-.449-1.215-.44-.258.003-.505.103-.692.28a.9.9 0 0 1-.729.259.63.63 0 0 1-.509-.44c-.03-.114-.021-.235-.055-.349-.082-.279-.379-.422-.578-.634a1.16 1.16 0 0 1-.299-.749 1.21 1.21 0 0 0 .299.907c.199.211.496.356.578.635.034.112.025.235.055.349s.101.216.191.293a.64.64 0 0 0 .318.147.9.9 0 0 0 .729-.261 1.04 1.04 0 0 1 .69-.277c.388-.012.967.126 1.215.44.199.253.208.599.21.922v.887a1.68 1.68 0 0 0 .123.771c.12.234.394.41.644.331.3-.094.427-.488.729-.56.116-.016.234.008.336.066s.181.148.227.256zm2.91-.975c-.065.182-.167.348-.3.488l-1.17 1.403c-.491.591-1.012 1.276-.975 2.031.036-.692.518-1.321.975-1.87l1.17-1.405a1.39 1.39 0 0 0 .3-.487 1.35 1.35 0 0 0 .03-.389c-.001.077-.011.154-.03.229zm-3.052 3.685a.83.83 0 0 1-.036-.19c-.01.118.002.236.036.349.079.258.371.469.617.359 0-.052-.011-.105-.012-.15-.243.097-.532-.117-.605-.368z" class="B"/></g><g class="C"><path d="M39.326 124.515s.37.65 1.712.076l-1.712-.076zm11.328.155s1.158 1.362 2.615.45l-2.615-.45zm3.367-16.101s-.818.511-.845.803.422-.213.422-.213l.422-.59zm.322 3.914a1.7 1.7 0 0 1-1.006.393c-.611.027-.56.823-.16.584s1.167-.977 1.167-.977zm.155.511s-.392 1.926-.711 1.554l.711-1.554z" class="B"/></g><g fill="#dce0ed" class="D"><path d="M80.832 68.684h-9.884v2.097h9.884v-2.097zm22.695 0h-9.883v2.097h9.883v-2.097zm22.695 0h-9.883v2.097h9.883v-2.097z" class="D"/></g><g class="E"><path d="M143.063 120.676c2.228 0 4.033-.305 4.033-.681s-1.805-.681-4.033-.681-4.032.305-4.032.681 1.805.681 4.032.681zM17.644 129.28c2.227 0 4.033-.305 4.033-.682s-1.806-.681-4.033-.681-4.033.305-4.033.681 1.806.682 4.033.682z" class="B"/><path d="M134.237 128.315c3.326 0 6.022-.456 6.022-1.018s-2.696-1.018-6.022-1.018-6.021.456-6.021 1.018 2.695 1.018 6.021 1.018z"/><path d="M136.726 125.633c.275-.224.475-.526.574-.867.074-.344-.072-.756-.4-.882-.369-.141-.763.114-1.062.373s-.64.551-1.03.497a1.57 1.57 0 0 0 .435-.671 1.58 1.58 0 0 0 .05-.798c-.017-.11-.064-.214-.135-.299-.205-.219-.575-.126-.821.046-.778.548-.995 1.605-1 2.558-.078-.343-.012-.701-.013-1.049s-.099-.748-.396-.933a1.2 1.2 0 0 0-.599-.14c-.35-.014-.741.021-.979.277-.3.319-.22.852.037 1.198s.653.569 1.014.811a2.28 2.28 0 0 1 .725.691c.021.04.039.081.052.124h2.196a6.17 6.17 0 0 0 1.352-.936zM17.829 118.49s.824 1.077-.379 2.696-2.194 2.995-1.797 4.008c0 0 1.815-3.017 3.294-3.059s.506-1.83-1.119-3.645z"/></g><path d="M17.829 118.49c.072.104.129.218.169.338 1.441 1.693 2.207 3.273.822 3.312-1.289.037-2.836 2.343-3.208 2.926.012.045.027.089.043.133 0 0 1.815-3.018 3.294-3.059s.503-1.835-1.122-3.65z" class="B C"/><g fill="#ffd037"><path d="M19.358 119.862c0 .379-.042.686-.094.686s-.094-.3-.094-.686.052-.201.105-.201.084-.178.084.201z"/><path d="M19.883 120.314c-.332.181-.623.291-.647.244s.223-.231.556-.412.202-.049.226 0 .198-.013-.135.168z"/></g><path d="M13.484 118.49s-.824 1.077.379 2.696 2.194 2.995 1.797 4.008c0 0-1.813-3.017-3.294-3.059s-.506-1.83 1.119-3.645z" class="E"/><path d="M13.484 118.49c-.072.104-.129.218-.169.338-1.441 1.693-2.207 3.273-.822 3.312 1.289.037 2.836 2.343 3.208 2.926-.012.045-.027.09-.045.133 0 0-1.813-3.018-3.294-3.059s-.502-1.835 1.123-3.65z" class="B C"/><g fill="#ffd037"><path d="M11.954 119.862c0 .379.043.686.096.686s.094-.3.094-.686-.052-.201-.105-.201-.085-.178-.085.201z"/><path d="M11.43 120.314c.332.181.621.291.647.244s-.223-.231-.556-.412-.202-.049-.228 0-.196-.013.136.168z"/></g><path d="M12.22 125.058s2.3-.072 2.995-.564 3.539-1.085 3.711-.292 3.456 3.937.86 3.958-6.034-.405-6.725-.826-.84-2.276-.84-2.276z" fill="#a8a8a8"/><path opacity=".2" d="M19.826 127.884c-2.597.021-6.035-.404-6.727-.825-.526-.322-.737-1.474-.806-2.004h-.078s.15 1.854.839 2.276 4.129.846 6.725.825c.749 0 1.008-.272.994-.667-.105.242-.391.39-.948.395z" class="C"/><g class="E"><path d="M70.249 83.325c0-3.061 2.49-5.412 5.553-5.412h.043V76.52h-.043c-3.831 0-6.945 2.976-6.945 6.805 0 .991.212 1.97.623 2.871a6.93 6.93 0 0 0 1.757 2.355l.987-.987a5.54 5.54 0 0 1-1.456-1.901c-.341-.732-.518-1.53-.518-2.338z"/><path d="M75.985 76.522v1.393a5.55 5.55 0 0 1 5.169 7.478c-.31.836-.816 1.586-1.477 2.185a5.55 5.55 0 0 1-7.315.127l-.99.987a6.94 6.94 0 0 0 6.255 1.508 6.95 6.95 0 0 0 2.929-1.547c.837-.744 1.482-1.681 1.879-2.728s.534-2.176.4-3.288a6.95 6.95 0 0 0-1.169-3.1 6.94 6.94 0 0 0-2.472-2.205 6.95 6.95 0 0 0-3.212-.809h.003zm45.525 1.321c3.061 0 5.412 2.49 5.412 5.553v.043h1.392v-.043c0-3.829-2.975-6.945-6.804-6.945a6.94 6.94 0 0 0-2.872.622 6.93 6.93 0 0 0-2.355 1.757l.987.987a5.54 5.54 0 0 1 1.901-1.456c.733-.341 1.531-.518 2.339-.518z" class="D"/><path d="M128.313 83.578h-1.393a5.55 5.55 0 0 1-.643 2.558 5.56 5.56 0 0 1-1.751 1.972c-.734.507-1.579.83-2.464.941s-1.783.008-2.62-.302a5.56 5.56 0 0 1-2.185-1.477c-.599-.66-1.03-1.456-1.257-2.318s-.242-1.767-.045-2.637a5.54 5.54 0 0 1 1.176-2.36l-.983-.987a6.95 6.95 0 0 0-1.522 2.942c-.263 1.089-.258 2.226.014 3.313a6.95 6.95 0 0 0 1.547 2.929c.745.837 1.681 1.482 2.729 1.879a6.94 6.94 0 0 0 3.288.4c1.112-.134 2.176-.535 3.1-1.169a6.95 6.95 0 0 0 2.205-2.472c.525-.99.802-2.092.808-3.212h-.004z"/><path d="M101.323 76.929l-.277 1.387c2.038.822 3.341 2.82 3.341 5.148 0 1.001-.27 1.983-.782 2.843a5.55 5.55 0 0 1-2.127 2.041c-.88.476-1.873.706-2.873.664a5.55 5.55 0 0 1-4.758-3.111 5.55 5.55 0 0 1 .473-5.665 5.55 5.55 0 0 1 2.29-1.857l-.617-1.25c-1.138.512-2.117 1.322-2.834 2.344s-1.145 2.218-1.239 3.463a6.94 6.94 0 0 0 .703 3.61c.555 1.118 1.4 2.066 2.448 2.744s2.259 1.061 3.507 1.108a6.94 6.94 0 0 0 6.231-3.388c.638-1.073.975-2.297.976-3.546 0-3.005-1.779-5.569-4.463-6.535z" class="D"/><path d="M99.015 77.832a4.85 4.85 0 0 1 1.934.401l.277-1.385a6.13 6.13 0 0 0-2.211-.409c-.981 0-1.951.209-2.845.612l.623 1.247c.7-.309 1.457-.468 2.222-.467z"/></g></g><defs><linearGradient id="A" x1="46.139" y1="128.598" x2="46.139" y2="65.355" gradientUnits="userSpaceOnUse"><stop stop-color="gray" stop-opacity=".25"/><stop offset=".54" stop-color="gray" stop-opacity=".12"/><stop offset="1" stop-color="gray" stop-opacity=".1"/></linearGradient><clipPath id="B"><path fill="#fff" transform="translate(.39)" d="M0 0h169.22v130H0z"/></clipPath><path id="C" d="M48.806 30.771H33.632v1.397h15.174v-1.397z"/><path id="D" d="M132.247 35.909h-67.24v.225h67.24v-.225z"/><path id="E" d="M49.349 89.559s-3.909-.955-4.273-1.769-1.369-2.637-1.369-2.637l.412-.556 1.902 1.498s2.266 1.797 3.328 1.983 0 1.481 0 1.481z"/></defs></svg>