<svg xmlns="http://www.w3.org/2000/svg" xmlns:xlink="http://www.w3.org/1999/xlink" width="180" height="130" fill="none" xmlns:v="https://vecta.io/nano"><style><![CDATA[.B{opacity:.1}.C{fill:#000}.D{opacity:.8}.E{fill:#00bafc}.F{fill:#ff6484}.G{fill:#575988}.H{fill:#ffaab0}.I{fill:#ffd037}.J{fill:#f1faff}.K{fill:#ffc5cb}.L{fill:#d4dfec}]]></style><g clip-path="url(#C)"><g class="E"><path d="M57.665 4.904C62.496.605 70.077-.276 76.976.066c21.674 1.076 41.237 11.54 58.159 23.376 6.127 4.284 12.159 8.902 16.135 14.802 8.101 12.01 5.694 28.651-5.562 38.544-3.83 3.368-8.473 5.952-13.24 8.235-8.475 4.069-17.619 7.334-27.237 8.267-6.859.661-13.803.124-20.622-.8-19.051-2.587-37.752-8.301-53.426-18.068-6.875-4.289-13.356-9.617-16.189-16.555s-1.02-15.725 6-19.83c2.903-1.698 6.375-2.465 9.773-3.184 5.003-1.06 10.085-2.105 14.601-4.259 4.662-2.225 10.183-6.531 9.259-11.456-.989-5.294-1.784-9.937 3.039-14.235zm83.487 113.311c9.995 0 18.097-.52 18.097-1.161s-8.102-1.16-18.097-1.16-18.098.519-18.098 1.16 8.103 1.161 18.098 1.161zm-47.039-7.767c9.995 0 18.097-.52 18.097-1.161s-8.102-1.161-18.097-1.161-18.097.52-18.097 1.161 8.103 1.161 18.097 1.161zm-66.441 18.411c9.995 0 18.097-.519 18.097-1.16s-8.102-1.161-18.097-1.161-18.097.52-18.097 1.161 8.102 1.16 18.097 1.16zM62.061 130c4.113 0 7.447-.214 7.447-.478s-3.334-.478-7.447-.478-7.447.214-7.447.478 3.334.478 7.447.478zm111.589-12.408c3.205 0 5.803-.167 5.803-.372s-2.598-.372-5.803-.372-5.804.166-5.804.372 2.599.372 5.804.372zm-53.263-7.809c2.718 0 4.921-.141 4.921-.316s-2.203-.316-4.921-.316-4.92.142-4.92.316 2.203.316 4.92.316z" class="B"/><path d="M174.485 108.292s.777 1.017-.358 2.551-2.073 2.829-1.694 3.784c0 0 1.714-2.848 3.108-2.888s.48-1.733-1.056-3.447z"/></g><path d="M174.485 108.292c.069.098.125.205.165.319 1.361 1.599 2.085 3.09.777 3.128-1.219.035-2.68 2.214-3.031 2.764l.042.124s1.714-2.848 3.108-2.888.474-1.733-1.061-3.447z" class="B C"/><g class="I"><path d="M175.931 109.586c0 .359-.039.648-.089.648s-.089-.289-.089-.648.049-.188.099-.188.079-.169.079.188z"/><path d="M176.427 110.015c-.314.165-.587.274-.611.231s.211-.218.525-.39.19-.047.214 0 .186-.013-.128.159z"/></g><path d="M170.383 108.292s-.777 1.017.358 2.551 2.072 2.829 1.693 3.784c0 0-1.712-2.848-3.108-2.888s-.478-1.733 1.057-3.447z" class="E"/><path d="M170.383 108.292a1.24 1.24 0 0 0-.166.319c-1.36 1.599-2.086 3.09-.778 3.128 1.218.035 2.681 2.214 3.03 2.764a1.06 1.06 0 0 1-.041.124s-1.713-2.848-3.108-2.888-.472-1.733 1.063-3.447z" class="B C"/><g class="I"><path d="M168.938 109.586c0 .359.039.648.089.648s.091-.289.091-.648-.051-.188-.101-.188-.079-.169-.079.188z"/><path d="M168.442 110.015c.314.165.588.274.611.231s-.211-.218-.525-.39-.191-.047-.214 0-.187-.013.128.159z"/></g><path d="M169.194 114.495s2.172-.066 2.827-.532 3.341-1.024 3.505-.276 3.264 3.718.812 3.738-5.699-.382-6.354-.779-.79-2.151-.79-2.151z" fill="#a8a8a8"/><path opacity=".2" d="M176.373 117.165c-2.452.02-5.699-.382-6.352-.78-.496-.303-.697-1.391-.763-1.893h-.072s.137 1.752.79 2.149 3.9.799 6.354.779c.707 0 .952-.257.939-.63-.1.23-.369.37-.896.375z" class="C"/><path d="M121.26 101.834s.662.868-.307 2.181-1.772 2.42-1.448 3.238c0 0 1.464-2.437 2.658-2.48s.407-1.474-.903-2.939z" class="E"/><path d="M121.26 101.834a1.07 1.07 0 0 1 .136.273c1.157 1.367 1.784 2.645.661 2.675-1.041.029-2.293 1.894-2.592 2.366.01.036.022.071.036.105 0 0 1.465-2.437 2.659-2.48s.41-1.474-.9-2.939z" class="B C"/><g class="I"><path d="M122.495 102.942c0 .305-.034.553-.076.553s-.077-.248-.077-.553.043-.166.086-.166.067-.14.067.166z"/><path d="M122.92 103.307c-.269.145-.496.235-.524.197s.182-.185.45-.331.165-.04.184 0 .158-.013-.11.134z"/></g><path d="M117.749 101.834s-.662.868.306 2.181 1.774 2.42 1.45 3.238c0 0-1.467-2.437-2.661-2.48s-.408-1.474.905-2.939z" class="E"/><path d="M117.749 101.834a1.08 1.08 0 0 0-.138.273c-1.157 1.367-1.783 2.645-.661 2.675 1.043.029 2.293 1.894 2.593 2.366l-.035.105s-1.467-2.437-2.66-2.48-.412-1.474.901-2.939z" class="B C"/><g class="I"><path d="M116.512 102.942c0 .305.035.553.078.553s.076-.248.076-.553-.043-.166-.086-.166-.068-.14-.068.166z"/><path d="M116.089 103.307c.268.145.496.235.522.197s-.18-.185-.45-.331-.165-.04-.183 0-.159-.013.111.134z"/></g><path d="M116.724 107.141s1.858-.058 2.419-.456 2.86-.877 2.999-.237 2.792 3.183.694 3.199-4.876-.33-5.434-.661-.678-1.845-.678-1.845z" fill="#a8a8a8"/><path opacity=".2" d="M122.874 109.424c-2.1.018-4.877-.33-5.436-.661-.425-.26-.595-1.19-.651-1.62h-.063s.117 1.498.678 1.838 3.336.685 5.434.662c.605 0 .815-.22.804-.539-.078.205-.316.317-.766.32z" class="C"/><g class="D"><path d="M24.979 102.799c2.445.001 4.835.727 6.867 2.086s3.616 3.29 4.551 5.549 1.179 4.745.702 7.143-1.655 4.6-3.384 6.329a12.36 12.36 0 0 1-6.33 3.383c-2.398.477-4.884.232-7.142-.703s-4.19-2.52-5.549-4.552-2.084-4.423-2.085-6.868a12.36 12.36 0 0 1 .939-4.734 12.35 12.35 0 0 1 2.681-4.013c1.149-1.149 2.513-2.06 4.014-2.681s3.11-.94 4.734-.939z" fill="#e74d89" class="D"/><path d="M24.979 128.406c-2.619-.003-5.178-.782-7.354-2.239s-3.871-3.526-4.872-5.946-1.261-5.083-.748-7.651 1.774-4.927 3.627-6.778a13.24 13.24 0 0 1 14.431-2.867c2.419 1.002 4.487 2.699 5.943 4.876s2.233 4.737 2.233 7.355c-.003 3.515-1.401 6.885-3.888 9.37a13.26 13.26 0 0 1-9.372 3.88zm11.178-11.436a16.69 16.69 0 0 0-7.055-.496 48.3 48.3 0 0 1 2.204 8.068 11.24 11.24 0 0 0 3.215-3.28 11.25 11.25 0 0 0 1.636-4.292zm-6.754 8.617c-.532-2.928-1.34-5.799-2.414-8.576-.023.011-.047.018-.073.02-6.392 2.227-8.682 6.652-8.888 7.065 1.984 1.546 4.429 2.385 6.944 2.382a11.03 11.03 0 0 0 4.424-.891h.007zm-12.835-2.848c.258-.435 3.366-5.572 9.209-7.469.144-.051.299-.092.445-.133-.279-.644-.59-1.285-.923-1.917-5.654 1.688-11.145 1.616-11.643 1.606 0 .114-.01.228-.01.34a11.31 11.31 0 0 0 2.921 7.573zm-2.673-9.882c3.533-.016 7.05-.479 10.467-1.378-1.281-2.252-2.682-4.434-4.196-6.537-1.585.746-2.976 1.849-4.064 3.222a11.35 11.35 0 0 0-2.207 4.693zm8.432-8.68a59.51 59.51 0 0 1 4.228 6.613c4.029-1.511 5.727-3.791 5.936-4.08-2.07-1.839-4.743-2.853-7.511-2.849a11.73 11.73 0 0 0-2.652.322v-.006zm11.416 3.842c-.238.322-2.135 2.756-6.319 4.464l.756 1.637.25.58c3.77-.478 7.509.289 7.883.362a11.28 11.28 0 0 0-2.569-7.045v.002z" fill="#b2215a" class="D"/></g><path d="M55.64 77.426C55.34 77.05 55 74.47 55 74.47l-1.323-6.577-.684-3.789s-.165-4.786-3.161-7.161l-.233-.184v-.127a4.34 4.34 0 0 0-.299-1.347c-.072-.139-.109-.294-.107-.451a.46.46 0 0 1 .059-.175 1.47 1.47 0 0 1 .539-.453c.544-.331 1.007-.851 1.133-1.468-.001-.014-.001-.028 0-.041 0-.026 0-.055.012-.083s0-.03 0-.046a.77.77 0 0 0 0-.086v-.036-.102c-.001-.007-.001-.014 0-.022 0-.038-.008-.078-.015-.116v-.008a1.34 1.34 0 0 0-.25-.618c-.134-.181-.312-.326-.517-.42.075-.018.144-.053.203-.102s.105-.111.136-.181c.02-.041.036-.083.048-.127s.018-.083.021-.126v-.129-.035a.73.73 0 0 0-.023-.108c.001-.009.001-.019 0-.028l-.01-.023c-.111-.317-.374-.562-.6-.817-1.306-1.463-1.559-3.522-1.915-5.429-.197-1.058-.569-2.263-1.594-2.665-.29-.092-.584-.167-.883-.225-.909-.241-1.653-.876-2.543-1.187a3.84 3.84 0 0 0-1.87-.157c-.478.079-.878.314-1.339.425-.992.243-2.196-.028-2.976.774-.547.557-.59 1.407-.86 2.133-.509 1.347-1.832 2.328-2.174 3.728-.22.903.008 1.819.248 2.726.181.61.302 1.235.364 1.868.009.16.009.32 0 .48-.035.466-.141.924-.312 1.359-1.118.413-2.273.901-2.359 1.176-.165.541-2.864 2.082-2.864 2.082s-1.025.875-1.025 1.207-.341 1.374-.556 1.374-.64 4.204-.64 4.204v4.371s-1.579 5.162-1.943 9.741c0 0-.638 2.925.403 4.603a2.35 2.35 0 0 0 .514.6l.532 1.39c.187-.313.425-.592.704-.827l.093.603.165.952c-.331.518-1.129 1.6-2.088 2.006-.886.374.268 1.362 1.065 1.939-.212 1.053-.517 2.346-.765 2.515-.428.291-1.794 3.955-1.794 3.955s-2.69 6.283 1.175 6.994 5.836-.958 5.836-.958h.926s1.126-.635 1.157-1.947c.63-.519 1.597-1.342 1.794-1.675s-.346-1.414-.689-2.004l.091-.165s3.675-4.704 4.145-4.204.769 1.29.556 1.79l.202 2.882v4.496s-.527 2.04 0 2.248 0 .992 0 .992l.233 1.207a11.17 11.17 0 0 1 0 1.125l-.177 4.497-.342 6.659s-.384.543-.084.916.165 1.25.084 1.416-.127 1.54-.127 1.54-1.24 1.29-.256 1.624l.038.012c-.407.377-.412 1.225-.38 1.488s-.261 1.322-.481 1.922a1.49 1.49 0 0 1-.202.429c-.151.105 0 1.271 0 1.271s4.805.395 5.211 0c.165-.154.124-.527.008-.959-.185-.626-.431-1.232-.734-1.81-.279-.519-.149-1.186-.149-1.186v-.496l.532.081s.599-.496.342-.957.469-3.037.469-3.037l.812-3.206c0-.291 1.068-4.079 1.068-4.079s1.581-6.702.812-9.867c0 0 .683-.79.597-.992s-.284-1.083.008-1.456 1.531-5.038 1.873-5.828l.928-2.358 3.728-.724-.527-2.604.185-.904.066-.312a2.93 2.93 0 0 1 .405.496l.341-1.665.102-.165c.398-.623 1.85-2.864 2.546-3.543.812-.805.301-4.386 0-4.76z" fill="url(#A)"/><path d="M45.275 49.572h-4.712v5.291h4.712v-5.291z" fill="#925978"/><path d="M45.275 49.572h-4.712v5.291h4.712v-5.291z" class="B C"/><path d="M33.659 95.163s1.199 1.901.909 2.397-2.27 2.108-2.27 2.108l-.585-3.968 1.946-.537z" class="F"/><path d="M29.939 101.28l.875-.124h.896s1.19-.685 1.123-2.108v-2.811l-2.893 5.043z" class="G"/><path d="M29.939 101.28l.875-.124h.896s1.19-.685 1.123-2.108v-2.811l-2.893 5.043z" class="B C"/><path d="M31.709 81.895l-4.96 5.456s-.579 3.596-.992 3.885-1.726 3.927-1.726 3.927-2.601 6.241 1.138 6.944 5.641-.951 5.641-.951l3.174-5.745s3.556-4.671 4.011-4.175.744 1.281.537 1.777l.194 2.852v4.464s-.509 2.026 0 2.232 0 .992 0 .992l.227 1.199c.035.289 0 1.116 0 1.116l-.165 4.464-.331 6.613s-.372.538-.083.91.165 1.24.083 1.405-.124 1.529-.124 1.529-1.199 1.282-.248 1.612 3.72.744 3.72.744.579-.496.331-.95.455-3.018.455-3.018l.785-3.182c0-.29 1.033-4.051 1.033-4.051s1.529-6.655.785-9.796c0 0 .661-.785.579-.992s-.276-1.075 0-1.447 1.488-5.001 1.819-5.787l1.736-4.588v-7.027l-17.618-.413z" class="G"/><path d="M46.517 56.971l-2.854 5.392-.752 1.419-.114.217-7.357.289-.508-1.185c-.514-1.248-1.291-3.269-1.683-4.973a10.22 10.22 0 0 1-.215-1.238c-.109-1.032.056-1.767.718-1.83a1.3 1.3 0 0 1 .496.051 3.76 3.76 0 0 0 1.419.137c1.746-.212 2.257-2.055 2.343-3.788l.013-.365-.025-1.073c-.033-.566-.098-1.131-.195-1.69.437-.214.895-.383 1.366-.504 1.395-.357 3.361-.347 3.388 2.53a9.22 9.22 0 0 0 .188 1.898c.074.356.194.701.355 1.027.485.931 1.157 1.032 1.473 1.02.058 0 .116-.006.174-.018l1.771 2.687z" class="K"/><g class="C"><path d="M39.172 60.092a2.77 2.77 0 0 1 .154.911 4.13 4.13 0 0 1-.023.98 1.39 1.39 0 0 1-.46.848m2.411-10.156c2.443 0 4.423-1.98 4.423-4.423s-1.98-4.423-4.423-4.423-4.423 1.98-4.423 4.423 1.98 4.423 4.423 4.423z" class="B"/></g><path d="M45.675 48.087a4.42 4.42 0 0 1-2.806 4.117 4.42 4.42 0 0 1-4.857-1.11 1.51 1.51 0 0 1-.109-.124 4.42 4.42 0 0 1-.931-3.988 4.42 4.42 0 0 1 2.743-3.042 4.42 4.42 0 0 1 2.095-.241c.708.09 1.383.35 1.968.757a4.42 4.42 0 0 1 1.896 3.631h.002z" class="K"/><use xlink:href="#D" class="B C"/><path d="M34.155 58.789s1.571 4.092 4.877 3.431c0 0 3.338.261 5.249-2.191s2.025 14.053 2.025 14.053l-.744 10.953s-5.329 3.183-7.643 2.769-3.431-1.653-3.431-1.653-2.439-2.273-3.1-2.563.289-14.384.289-14.384l.785-5.291 1.691-5.125z" fill="#e8f4ff"/><g class="C"><path d="M33.989 81.895s3.555 3.968 3.348 4.381-3.431-3.183-3.348-4.381zm-.611-9.867s1.136 1.587 1.847 1.422l-1.847-1.422z" class="B"/><path d="M35.833 55.111s0 .048-.012.137l-.372 4.398-.355 3.455c-.205 1.764-.423 3.176-.608 3.376-.537.579-.331 6.035-.331 6.035v6.903s-.453 2.191-.827 2.687-1.286 2.356-2.017 2.604a2.56 2.56 0 0 0-.683.544c-.661.661-1.597 1.764-2.315 2.634l-1.03 1.286s-2.893-1.819-1.653-2.356c.928-.402 1.695-1.476 2.02-1.984.111-.165.165-.283.165-.283a7.67 7.67 0 0 1 .263-1.137c.105-.351.259-.685.458-.992a1.13 1.13 0 0 1 .684-.517c1.075-.207 1.612-10.416 1.612-10.416l-3.307-7.215-.331-.721s.413-4.175.62-4.175.537-1.033.537-1.364.992-1.199.992-1.199 2.622-1.534 2.788-2.072c.088-.283 1.29-.794 2.409-1.214 1.005-.377 1.943-.681 1.943-.681.547.833-.651 2.267-.651 2.267z" class="B"/></g><path d="M35.667 55.111s0 .048-.011.137l-.372 4.398-.355 3.455c-.205 1.764-.423 3.176-.608 3.376-.537.579-.331 6.035-.331 6.035v6.903s-.453 2.191-.827 2.687-1.286 2.356-2.017 2.604a2.56 2.56 0 0 0-.683.544c-.661.661-1.597 1.764-2.315 2.634l-1.03 1.286s-2.893-1.819-1.653-2.356c.927-.402 1.695-1.476 2.02-1.984.111-.165.165-.283.165-.283a7.66 7.66 0 0 1 .263-1.137c.105-.351.259-.685.458-.992a1.13 1.13 0 0 1 .684-.517c1.075-.207 1.612-10.416 1.612-10.416l-3.307-7.215-.331-.721s.413-4.175.62-4.175.537-1.033.537-1.364.992-1.199.992-1.199 2.622-1.534 2.788-2.072c.088-.283 1.29-.794 2.409-1.214 1.005-.377 1.943-.681 1.943-.681.547.833-.652 2.267-.652 2.267z" class="F"/><path d="M52.108 64.607l-3.569 4.185s3.1 16.079 2.728 16.823c-.028.062-.047.128-.055.195a4.94 4.94 0 0 0 .021 1.157l.184 1.303a50.96 50.96 0 0 0 .511 2.586s-4.175.992-5.456.868-.537-2.191-.331-3.141-1.405-2.282-1.405-2.282l-2.273-9.333s-.165-2.067-.661-3.059-.041-2.067-.207-3.472c-.117-1.002.603-4.583 1.147-6.665.207-.792.389-1.366.496-1.499.005-.007.01-.014.017-.02.331-.289 0-1.984 0-1.984s.785-4.464.703-4.836c-.046-.212.213-.731.446-1.139l.339-.556s1.599 1.014 4.34 3.229l.248.202c2.893 2.356 3.059 7.109 3.059 7.109l-.281.329z" class="B C"/><path d="M52.273 64.607l-3.57 4.185s3.1 16.079 2.728 16.823c-.028.062-.047.128-.055.195a4.94 4.94 0 0 0 .022 1.157l.183 1.303a50.96 50.96 0 0 0 .511 2.586s-4.175.992-5.456.868-.537-2.191-.331-3.141-1.405-2.282-1.405-2.282l-2.273-9.333s-.165-2.067-.661-3.059-.041-2.067-.207-3.472c-.117-1.002.603-4.583 1.147-6.665.207-.792.389-1.366.496-1.499.005-.007.01-.014.017-.02.331-.289 0-1.984 0-1.984s.785-4.464.703-4.836c-.046-.212.213-.731.446-1.139l.339-.556s1.599 1.014 4.34 3.229l.248.202c2.893 2.356 3.059 7.109 3.059 7.109l-.281.329z" class="F"/><path d="M44.736 66.849c-.041.331.992 17.897 2.067 18.931l-2.067-18.931z" class="B C"/><g class="K"><path d="M30.8 91.277c-1.157.727-2.04-1.187-2.645-3.394-.283-1.037-.496-2.138-.661-3.06l-.155-.946-.165-1.22 1.217-.245 1.346-.269.165 1.519.078.689.496.898c.799 1.6 2.154 4.889.326 6.028zm21.252-5.323l-.289 1.427-.18.898-.01.045s-3.613 4.897-4.77 2.872c-.885-1.547 1.273-4.085 2.338-5.195l.556-.55 1.681.36.675.144z"/></g><path d="M42.132 127.485c-.393.392-5.043 0-5.043 0s-.145-1.157 0-1.261c.088-.131.154-.275.195-.427.213-.603.496-1.653.466-1.908-.041-.35-.02-1.756.929-1.653 0 0 1.24-2.521 2.606.579v.744c-.068.398-.018.807.144 1.177.294.575.532 1.176.711 1.797.112.428.146.797-.008.952z" class="F"/><path d="M42.132 127.485c-.393.392-5.043 0-5.043 0s-.145-1.157 0-1.261c.088-.131.154-.275.195-.427.615-.263 1.452-.517 2.037-.296l2.811 1.032c.121.428.154.797 0 .952z" fill="#e8f4ff"/><g class="C"><path d="M37.999 51.46c.117.473.279.951.286 1.434.01.661-.276 1.299-.58 1.895-.347.681-.739 1.412-.623 2.167a6.39 6.39 0 0 0 .246.843 3.7 3.7 0 0 1-.235 2.665c-.271.547-.827 1.076-1.42.899-.045-.584-.117-1.22-.393-1.718a1.64 1.64 0 0 0-.441-.519c-.43-.331-1.023-.4-1.414-.774-.07-.067-.132-.143-.183-.225-.19-.321-.271-.694-.232-1.065 0-.056.012-.113.022-.165a4.47 4.47 0 0 1 .4-1.157l.317-.661c.249-.494.458-1.007.625-1.534l1.943-.681c.551.827-.648 2.267-.648 2.267s0 .048-.012.137c1.746-.231 2.263-2.075 2.343-3.808zm2.476-6.22c-.483.154-.944.461-1.157.924-.228.513-.111 1.104-.165 1.663-.012.123-.036.244-.069.362-.205.686-.848 1.171-1.101 1.832l-.05.152a1.94 1.94 0 0 0-.035.797 4.42 4.42 0 0 1 4.07-7.24 4.42 4.42 0 0 1 1.535 8.163l.536-1.681c.357-1.337.418-2.883-.423-3.983-.365-.459-.859-.798-1.419-.974a2.95 2.95 0 0 0-1.721-.015zm8.637 13.387c-.145.527-.516 1.106-1.061 1.081-.26-.012-.496-.165-.756-.19-.369-.033-.718.205-.939.496-.201.312-.376.641-.523.982-.407.79-1.204 1.501-2.083 1.377l-.091-.017a1.34 1.34 0 0 1-.263-.081c-.789-.331-1.215-1.346-1.187-2.243.033-1.024.461-1.992.602-3.008.131-.936.012-1.89.112-2.829.034-.31.09-.617.165-.919.484.931 1.157 1.032 1.473 1.02l.339-.556s1.599 1.014 4.34 3.229c.062.555.019 1.117-.129 1.657z" class="B"/></g><path d="M42.879 40.327c.858.309 1.581.939 2.46 1.179a7.45 7.45 0 0 1 .855.222c.992.398 1.352 1.595 1.543 2.645.342 1.895.589 3.938 1.852 5.392.225.258.486.506.59.827s-.036.764-.372.835c.575.243.858.954.737 1.567s-.569 1.119-1.096 1.457c-.246.165-.544.331-.577.622a.97.97 0 0 0 .104.45 4.44 4.44 0 0 1 .14 2.768c-.145.526-.516 1.106-1.061 1.081-.26-.012-.496-.165-.754-.19-.37-.033-.718.205-.941.496-.201.312-.376.641-.522.982-.405.79-1.202 1.501-2.083 1.377-1.014-.144-1.572-1.323-1.541-2.341s.463-1.992.603-3.007c.129-.936.01-1.89.113-2.829.149-1.376.762-2.654 1.119-3.989s.417-2.883-.425-3.983c-.365-.46-.859-.8-1.419-.977s-1.16-.182-1.723-.015c-.484.154-.944.461-1.157.924-.278.625-.041 1.369-.236 2.025-.22.737-.947 1.243-1.157 1.984-.245.891.331 1.797.347 2.72.01.661-.276 1.299-.579 1.895-.349.681-.741 1.412-.623 2.167.062.286.144.568.245.843a3.71 3.71 0 0 1-.228 2.682c-.271.547-.837 1.076-1.42.899-.065-.818-.18-1.741-.835-2.237-.431-.331-1.025-.4-1.415-.775-.16-.172-.281-.376-.353-.6a1.6 1.6 0 0 1-.065-.693c.062-.465.205-.916.422-1.333.474-1.025 1.051-2.047 1.118-3.174.099-1.701-.992-3.378-.595-5.038.331-1.389 1.614-2.363 2.1-3.705.26-.721.301-1.566.827-2.12.761-.795 1.923-.526 2.885-.765.446-.112.827-.344 1.296-.422a3.58 3.58 0 0 1 1.824.155z" fill="#925978"/><path d="M31.141 75.609v5.373l-.013.683c-.056 1.488-.283 3.037-.283 3.037-.265-.389-.583-.74-.946-1.04-.792-.623-1.466-.544-1.974-.26a2.48 2.48 0 0 0-.589.475l-.165-1.22 1.217-.245a1.13 1.13 0 0 1 .684-.517c1.075-.207 1.612-10.416 1.612-10.416l-3.307-7.215v-.352l1.118-1.777c1.86-1.612 2.315.703 2.315.703l.331 6.448v6.324z" class="B C"/><path d="M30.81 75.24v5.373l-.013.683c-.056 1.488-.283 3.037-.283 3.037-2.315-3.265-3.948-.232-3.948-.232l-.516-1.38c-.198-.169-.365-.37-.496-.595-1.007-1.666-.39-4.571-.39-4.571.352-4.547 1.88-9.672 1.88-9.672v-4.34l1.121-1.777c1.86-1.612 2.645.703 2.645.703v6.448 6.324z" class="F"/><path d="M30.8 81.131c-.056 1.488-.283 3.037-.283 3.037-2.315-3.265-3.948-.231-3.948-.231l-.516-1.381a2.33 2.33 0 0 1-.496-.595c1.078-.594 3.454-1.688 5.243-.83z" class="B C"/><use xlink:href="#E" class="F"/><use xlink:href="#E" fill="#fff" class="B"/><g class="C"><path d="M27.669 70.115s.744 4.092 1.488 5.291-1.488-5.291-1.488-5.291zm-1.905 6.944s.455 2.48 1.405 2.769-1.405-2.769-1.405-2.769zm25.613 8.751l.675.144-.289 1.427a3.28 3.28 0 0 0-.364-.405A3.55 3.55 0 0 0 49.14 86a4.33 4.33 0 0 0-1.098.07 9.37 9.37 0 0 0 .311-1.718 1.11 1.11 0 0 0-.104-.638c-.331-.455-.496-4.671-.496-4.671l.455-2.563c.165-.413-.744-2.526-.703-3.165l.537-6.425c0-.289 1.075-5.952 3.307-3.803l.868 1.199.056.321-3.57 4.185s3.1 16.079 2.728 16.823a.67.67 0 0 0-.055.195z" class="B"/></g><path d="M55.114 82.225c-.675.675-2.078 2.9-2.463 3.518l-.099.165-.331 1.653s-1.157-1.984-3.844-1.488c.157-.562.261-1.137.311-1.718a1.11 1.11 0 0 0-.104-.638c-.331-.455-.496-4.671-.496-4.671l.455-2.563c.165-.413-.744-2.526-.703-3.164l.537-6.425c0-.289 1.075-5.952 3.307-3.803l.868 1.199.661 3.761 1.281 6.531s.331 2.563.62 2.935.782 3.922 0 4.707z" class="F"/><path d="M52.647 85.578l-.099.165-.331 1.653s-1.157-1.984-3.844-1.488c.157-.562.261-1.137.311-1.718.921.058 2.776.317 3.963 1.387z" class="B C"/><use xlink:href="#F" class="F"/><use xlink:href="#F" fill="#fff" class="B"/><g class="C"><path d="M49.944 74.124s2.811-.035 3.224 1.428-3.224-1.428-3.224-1.428zm-.537 4.133s4.753-.207 4.547 1.86-4.547-1.86-4.547-1.86zm.289 3.183s.372-.083.62.785-.62-.785-.62-.785zm-9.627 20.212s1.133-.331 1.653 0-1.653 0-1.653 0zm.203 1.199s2.687.041 2.935.33-2.935-.33-2.935-.33z" class="B"/><g class="B"><path d="M34.55 51.725c.079-1.352-.587-2.687-.67-4.011-.086 1.336.592 2.682.661 4.044a.25.25 0 0 0 .008-.033zm3.156 2.235c-.344.671-.727 1.389-.628 2.135.071-.567.362-1.116.628-1.637.303-.595.589-1.227.58-1.895 0-.073-.005-.145-.015-.218-.058.565-.306 1.104-.565 1.615zm12.097-3.024a1.09 1.09 0 0 1 .331.218c.083-.174.098-.371.043-.556 0 0 0-.015-.008-.023a.51.51 0 0 1-.365.36zm-12.71 8.7c-.271.547-.837 1.076-1.42.899-.065-.818-.18-1.741-.835-2.237-.431-.331-1.025-.4-1.414-.774-.233-.237-.377-.546-.41-.876 0 .026-.008.053-.01.079a1.59 1.59 0 0 0 .065.694 1.6 1.6 0 0 0 .355.599c.389.375.982.45 1.414.775.661.496.77 1.419.835 2.237.584.177 1.149-.352 1.42-.899.283-.581.409-1.225.365-1.87a3.67 3.67 0 0 1-.365 1.372zm13.448-7.133c-.121.612-.569 1.119-1.095 1.456-.248.165-.546.331-.579.622a.72.72 0 0 0 .056.331 1.45 1.45 0 0 1 .523-.45c.526-.331.974-.845 1.095-1.456.032-.178.032-.36 0-.537.001.012.001.023 0 .035zm-1.429 5.296c-.145.526-.514 1.106-1.061 1.081-.26-.012-.496-.165-.754-.19-.37-.033-.718.205-.941.496-.201.312-.375.641-.521.982-.407.79-1.204 1.501-2.083 1.377s-1.443-1.071-1.529-1.999c0 .051-.012.102-.012.155-.033 1.023.526 2.197 1.541 2.341.88.124 1.677-.587 2.083-1.377a6.49 6.49 0 0 1 .521-.982c.223-.296.57-.534.941-.496.258.025.496.179.754.19.547.025.916-.555 1.061-1.081a4.36 4.36 0 0 0 .147-1.432 4.37 4.37 0 0 1-.147.934zM43.62 45.898a3.47 3.47 0 0 1 .661 1.984c.043-.899-.126-1.786-.661-2.49-.365-.46-.859-.8-1.419-.977a2.94 2.94 0 0 0-1.723-.015c-.484.154-.944.461-1.157.924-.279.625-.043 1.371-.238 2.025-.22.737-.947 1.243-1.157 1.984-.061.237-.076.484-.043.727a1.66 1.66 0 0 1 .043-.23c.203-.741.931-1.247 1.157-1.984.195-.661-.041-1.4.238-2.025.207-.463.661-.771 1.157-.924.564-.166 1.164-.159 1.724.019a2.95 2.95 0 0 1 1.418.981z" class="B"/></g></g><g class="D"><path d="M94.432 109.289c7.323 0 13.26-5.937 13.26-13.26s-5.937-13.26-13.26-13.26-13.26 5.937-13.26 13.26 5.937 13.26 13.26 13.26z" fill="#1769ff" class="D"/><path d="M90.538 90.019a7.5 7.5 0 0 1 1.566.152 3.36 3.36 0 0 1 1.212.496c.337.232.607.548.782.918.2.444.295.928.279 1.415.019.535-.126 1.063-.413 1.514a3 3 0 0 1-1.22.992c.666.165 1.252.562 1.653 1.119.322.521.508 1.115.542 1.726s-.086 1.222-.348 1.776c-.226.432-.552.804-.951 1.084a4.22 4.22 0 0 1-1.364.624 6.27 6.27 0 0 1-1.572.201h-5.82V90.019h5.654zm-.331 4.864c.411.018.817-.098 1.157-.331.304-.221.456-.585.455-1.094a1.4 1.4 0 0 0-.152-.689c-.095-.174-.234-.319-.403-.422a1.72 1.72 0 0 0-.58-.21c-.225-.039-.454-.058-.683-.058h-2.48v2.811l2.687-.007zm.152 5.099c.249.001.497-.024.741-.076a1.8 1.8 0 0 0 .622-.251 1.27 1.27 0 0 0 .43-.48c.117-.241.173-.507.165-.775 0-.615-.174-1.056-.522-1.323-.404-.281-.889-.421-1.381-.397h-2.877v3.307l2.822-.005zm7.919-.253c.359.348.875.523 1.548.523.444.011.881-.118 1.249-.367.295-.175.521-.445.64-.766h2.103c-.337 1.044-.853 1.79-1.549 2.239-.76.468-1.64.703-2.533.676-.632.008-1.26-.104-1.85-.331-.529-.204-1.006-.523-1.397-.934a4.2 4.2 0 0 1-.885-1.447c-.212-.594-.318-1.221-.311-1.852a5.07 5.07 0 0 1 .319-1.819c.199-.541.508-1.035.906-1.451s.878-.747 1.409-.971c.573-.242 1.189-.362 1.81-.354a4.14 4.14 0 0 1 1.936.43c.535.275.999.671 1.354 1.157.36.496.62 1.058.766 1.653.157.632.213 1.286.165 1.936h-6.283c.033.77.23 1.333.589 1.678l.013-.002zm2.702-4.577c-.287-.314-.722-.471-1.305-.471-.328-.011-.654.055-.951.194a1.78 1.78 0 0 0-.605.479 1.76 1.76 0 0 0-.321.605c-.056.186-.093.378-.109.572h3.882c-.11-.605-.309-1.065-.598-1.379h.007zm-3.707-4.527h4.856v1.347h-4.856v-1.347z" fill="#fff" class="D"/><path d="M154.352 103.795v.375a13.26 13.26 0 0 1-3.456 8.557c-2.139 2.347-5.049 3.848-8.202 4.232a13.49 13.49 0 0 1-1.595.094 13.26 13.26 0 0 1-12.251-8.186 13.26 13.26 0 0 1-.754-7.661c.512-2.573 1.775-4.935 3.629-6.79s4.218-3.117 6.79-3.629a13.26 13.26 0 0 1 13.612 5.64 13.27 13.27 0 0 1 2.234 7.368h-.007z" fill="#b3bbc6" class="D"/><path d="M154.345 104.17c-.09 3.174-1.316 6.211-3.456 8.557a13.26 13.26 0 0 1-8.201 4.231l-10.826-8.053 1.352-8.763 5.354.331 3.045 2.553 2.166-3.53 3.637 3.022 1.956 1.401v-4.42l4.93 4.563c.012.037.03.072.043.108z" fill="#666c76" class="D"/><path d="M140.143 104.12c0-2.81-1.728-4.715-5.018-4.715h-3.249v9.46h3.317c3.194 0 4.95-1.934 4.95-4.745zm-2.359.015c0 2.029-1.042 2.907-2.713 2.907h-.852v-5.813h.852c1.603 0 2.713.917 2.713 2.906zm11.696 4.73v-9.46h-2.181v5.291l-3.482-5.291h-2.277v9.459h2.181v-5.661l3.728 5.661h2.031v.001z" fill="#fff" class="D"/></g><path d="M144.382 89.688c-.165-.331-1.708-2.543-1.708-2.543l-.046-.198-.506-2.257-.035-.165c.331-.084.569-.189.644-.319.363-.636-.308-1.41-.308-1.41l-.14-3.346-.364-8.101-.868-3.346c-.113-.635-1.148-1.964-1.148-1.964s.224-.661-.056-1.134-.896-2.683-.896-2.683l-.531-6.117-.253-6.018a3.77 3.77 0 0 1 .756.071c.036.03.016-.045-.036-.179.012.002.025.007.036.013.086.069-.144-.448-.392-.976l-.03-.061c.119-.431.612-2.179.954-2.811.255-.466-.234-3.685-.608-5.884l-.078-.453 1.303-2.265 2.49-7.218c.727-2.186 0-7.853 0-7.853s0-.278-.04-.711c-.114-1.171-.55-3.46-2.227-4.35-2.295-1.217-3.022-2.71-3.022-2.71s-2.864-2.606-3.226-1.731l-.025-.05c-.213-.437-.371-.9-.467-1.377l-.027-.147c.366-.289.684-.634.943-1.022 0 .073-.012.146-.017.218v.137.063a.69.69 0 0 0 0 .091v.055c.106.01.212-.012.306-.063s.168-.131.215-.226c.089-.191.149-.394.177-.604a3.7 3.7 0 0 1 .524-1.25c.245-.375.572-.752.615-1.18a.99.99 0 0 0 0-.188c-.022-.218-.124-.422-.156-.638-.013-.11-.013-.221 0-.331 0-.064.015-.129.025-.192l.038-.258.03-.217V5.78c.023-.191.023-.383 0-.574a1.11 1.11 0 0 0-.163-.496c-.093-.15-.221-.276-.373-.367-.165-.084-.355-.111-.52-.195-.437-.223-.576-.759-.827-1.172a2.07 2.07 0 0 0-.705-.668c-.284-.164-.604-.257-.932-.273-.661-.026-1.309.263-1.959.165-.415-.066-.797-.291-1.217-.321-.613-.043-1.166.331-1.663.689-.352.253-.728.539-.843.956-.093.341 0 .732-.192 1.03-.124.193-.349.304-.488.496-.115.153-.173.34-.165.531v.053.089c.011.127.034.256.056.382.001.013.001.026 0 .04.05.349-.063.594-.189.934a1.46 1.46 0 0 0-.089.448v.023.033c-.002.032-.002.064 0 .096a.57.57 0 0 0 .149.317.5.5 0 0 1 .165-.165v.15.01c.001.583.118 1.16.345 1.696a4.36 4.36 0 0 0 .978 1.428c0 .048-.013.097-.02.145l-.279 1.564-.04.165h-.827s.141-.608-1.231.139-3.052 1.106-3.307 1.243-3.358 2.546-3.358 2.546-2.688 1.547-2.604 4.203l-.307 2.976-.224 5.558s-.42 4.73 0 5.393 1.148 4.591 1.007 5.089c-.101.36.913 2.893 1.617 4.37a6 6 0 0 0-.524.635l-.281 1.218s0 .011.013.018c-.62.628-1.608 1.662-1.608 1.89 0 .331.196.62-.111.6s-.318.341-.299.56-.374-.109-.346.304-2.855 6.914-2.855 6.914-1.315 3.181-1.819 3.707-1.204 2.849-1.147 3.705.084 1.108-.141 1.108-.671.774-.671.774l-2.211 6.804s-.645 2.101-.84 2.075-.634 3.611-.634 3.611-.475 1.078-.559 1.078c-.017 0 .061.078.205.2l-.096.081a7.07 7.07 0 0 1-.653.496c-.009 0-1.278-.881-2.15-.798s-2.658.302-3.556-.331c-.496-.354-1.543-.661-2.384-.675-.671-.01-1.215.165-1.253.675-.084 1.133 3.05 3.264 3.05 3.264s3.307.939 3.947 1.819 3.283 2.212 3.283 2.212.795-.35 1.095-.703c.035-.034.064-.074.082-.12a.35.35 0 0 0 .027-.143c-.056-.415 1.091-1.984 1.091-1.984l.165-.779.285-1.266.039-.165c.132.007.263-.014.386-.059 1.119-.441 1.231-1.653 1.231-1.653l1.675-3.503.951-2.379c.223-.36 1.959-3.981 1.959-3.981s.308-1.549.589-2.019.307-1.488.307-1.488.587-1.549 1.204-2.158c.444-.477.829-1.007 1.147-1.576 0 0 2.546-4.011 4.282-5.144l4.423-5.532c.251-.443 1.035-1.604 1.984-.554s1.958 2.407 1.958 2.407l1.709 4.646 1.903 5.952s.895 1.437.84 1.741 1.455 3.016 1.455 3.016.587.992.476 1.488.42.992.42.992l.165 2.019s.617 1.984.448 2.297.589 2.212.589 2.212 0 1.686.279 2.24.62 2.764.592 2.93 0 1.688 0 1.688l.509-.01.014.165.139 1.665.013.154a.66.66 0 0 0-.256.486l.122 2.811.041.744a.55.55 0 0 0 .058.214c.034.067.08.126.138.174a.55.55 0 0 0 .416.123c.796-.1 1.603-.07 2.389.089.871.2 1.768.266 2.659.195l.071-1.182c.008-.357-.005-.686-.07-.813z" fill="url(#B)"/><g class="H"><path d="M142.241 87.223h-3.774l-.037-.445-.137-1.66-.102-1.257h3.306l.202.914.498 2.249.044.198zm-34.693-6.669c-.071.069-.189.488-.308.992l-.436 2.039-.139.033-2.943.711s-1.543-3.527-.827-3.609a1.81 1.81 0 0 0 .699-.311 6.87 6.87 0 0 0 .677-.512l.691-.638s2.779 1.103 2.586 1.296z"/></g><g class="C"><path d="M107.548 80.554c-.071.069-.189.488-.308.992-1.017-.06-2.554-1.266-2.976-1.653l.691-.638s2.786 1.106 2.593 1.299zm34.149 4.221c-.906.245-2.567.319-3.406.342l-.102-1.257h3.307l.201.914z" class="B"/></g><path d="M117.716 46.11s-2.067 2.038-2.067 2.369.193.617-.109.598-.313.339-.294.559-.367-.111-.341.303-2.811 6.889-2.811 6.889-1.294 3.169-1.79 3.692-1.186 2.839-1.129 3.694.082 1.101-.139 1.101-.662.772-.662.772l-2.175 6.779s-.635 2.095-.827 2.067-.661 3.609-.661 3.609-.47 1.075-.553 1.075 2.398 2.149 3.5 1.71 1.212-1.653 1.212-1.653l1.654-3.472.937-2.371c.22-.359 1.93-3.968 1.93-3.968s.302-1.543.578-2.01.303-1.488.303-1.488.578-1.544 1.185-2.149c.438-.477.817-1.004 1.129-1.571 0 0 2.509-3.996 4.216-5.125l4.354-5.512c.248-.441 1.02-1.597 1.957-.551s1.928 2.397 1.928 2.397l1.681 4.629 1.874 5.924s.883 1.433.826 1.736 1.434 3.004 1.434 3.004.578.992.468 1.488.413.992.413.992l.165 2.012s.607 1.984.442 2.287.578 2.204.578 2.204 0 1.681.277 2.232.605 2.756.578 2.922 0 1.681 0 1.681 4.158-.028 4.517-.661-.302-1.405-.302-1.405l-.139-3.335-.357-8.073-.855-3.335c-.111-.633-1.129-1.956-1.129-1.956s.219-.661-.057-1.131-.881-2.672-.881-2.672l-.524-6.091-.269-6.64-20.065-3.555z" fill="#dce6f2"/><path d="M138.548 50.38c-.166-.139-6.944-.193-7.027-.193s-2.645-1.02-2.645-1.02-5.704-.936-6.586-.522-3.61-.772-3.61-.772v-.524s-1.46-.496-1.46-.605.276-1.214.276-1.214l.165-.058.632-.217 19.372 3.113.496 1.04c.24.514.471 1.042.387.972z" class="B C"/><path d="M138.548 50.215c-.166-.139-6.944-.194-7.027-.194s-2.645-1.02-2.645-1.02-5.704-.936-6.586-.522-3.61-.772-3.61-.772v-.524s-1.46-.496-1.46-.605.276-1.214.276-1.214l.165-.058.632-.217 19.372 3.113.496 1.04c.24.514.471 1.042.387.972z" class="J"/><path d="M106.961 82.64l-.166.779-.139.198-2.934.711s-1.543-3.526-.827-3.609a1.81 1.81 0 0 0 .699-.311c-.15 1.104.706 2.267.706 2.267 1.209.909 2.661-.035 2.661-.035z" class="B C"/><path d="M106.961 82.807l-.166.779s-1.129 1.571-1.074 1.984c.001.049-.008.098-.026.143s-.046.086-.082.12c-.294.351-1.078.699-1.078.699s-2.589-1.323-3.224-2.204-3.885-1.819-3.885-1.819-3.085-2.123-3.002-3.252c.036-.496.572-.681 1.233-.671.827.01 1.857.319 2.348.671.883.633 2.645.413 3.5.331s2.111.797 2.111.797c-.286 1.157.671 2.455.671 2.455 1.222.911 2.674-.033 2.674-.033z" class="G"/><path d="M105.621 85.831c-.294.35-1.077.699-1.077.699s-2.59-1.323-3.224-2.204-3.886-1.819-3.886-1.819-3.085-2.123-3.002-3.252c.036-.496.572-.681 1.233-.671.496.827 1.229 1.976 1.769 2.297l2.619 1.516 2.948 1.929c.159.16 1.754 1.215 2.62 1.505z" class="J"/><path d="M142.245 87.222h-3.78l-.036-.445c.476-.448 1.496-.661 1.496-.661.708-.217 2.012.713 2.27.904l.05.202z" class="B C"/><path d="M143.992 90.565l-.071 1.177c-.877.071-1.76.006-2.617-.193-.774-.16-1.568-.19-2.351-.089a.54.54 0 0 1-.219-.019c-.071-.021-.137-.057-.193-.105a.54.54 0 0 1-.136-.173c-.033-.066-.052-.139-.056-.213l-.039-.741-.121-2.794c0-.77 1.736-1.129 1.736-1.129.787-.241 2.315.937 2.315.937l1.681 2.535c.064.127.078.455.071.807z" class="G"/><path d="M143.992 90.565l-.071 1.177c-.877.071-1.76.005-2.617-.194-.774-.159-1.568-.19-2.351-.089a.54.54 0 0 1-.219-.019c-.071-.021-.137-.057-.193-.105s-.103-.107-.136-.173-.052-.139-.056-.213l-.039-.741c.634-.096 1.57-.188 2.222-.038.757.175 2.496.322 3.46.394z" class="J"/><g class="C"><path d="M106.349 74.01s-.579.992 0 1.447 0-1.447 0-1.447zm31.083 3.844c.165.331.605.827.529 1.405s-.529-1.405-.529-1.405z" class="B"/></g><path d="M136.922 17.396l-5.141-.604-.108-.015c-3.039-.405-6.157-.929-5.553-1.311.269-.165.496-.585.682-1.114a9.75 9.75 0 0 0 .293-1.033l.038-.165.276-1.557.199-1.804s6.476-2.454 5.677.605a3.34 3.34 0 0 0-.023 1.498 5.73 5.73 0 0 0 .461 1.372c1.032 2.202 3.199 4.128 3.199 4.128z" class="H"/><path d="M133.285 10.396a3.34 3.34 0 0 0-.023 1.498 4.38 4.38 0 0 1-2.984.973c-1.08-.055-2.102-.509-2.869-1.272l.199-1.804s6.476-2.454 5.677.605z" class="B C"/><path d="M134.882 8.326a4.38 4.38 0 0 1-1.279 3.1c-.407.407-.89.731-1.421.951a4.38 4.38 0 0 1-1.676.335c-.575.001-1.145-.112-1.677-.332a4.39 4.39 0 0 1-1.423-.948 4.38 4.38 0 0 1-1.286-3.097v-.01a4.38 4.38 0 0 1 4.381-4.381 4.38 4.38 0 0 1 4.381 4.381z" class="H"/><path d="M131.838 16.613c-.012.062-.031.122-.057.18l-.108-.015c-3.039-.405-6.157-.929-5.553-1.311.269-.165.496-.585.682-1.114.117-.339.214-.684.293-1.033l.038-.165h.127c.01.069.331 2.187 3.173 2.55l.096.011c1.109.124 1.392.488 1.309.898z" class="B C"/><path d="M131.673 16.778c-.139.686-1.309 1.5-1.309 1.5l-3.252-.607-2.039-1.873c0-.054 1.212-2.48 1.212-2.48h.81c.01.069.331 2.187 3.173 2.55l.096.011c1.109.126 1.392.489 1.309.899z" class="J"/><g class="C"><path d="M136.922 17.396l-5.249-.618c-.139.686-1.309 1.5-1.309 1.5l-3.252-.607-2.039-1.873c0-.054 1.212-2.48 1.212-2.48h.041c.107.367.267.715.476 1.035.511.78 1.488 1.635 3.307 1.528l.152-.012c2.73-.226 3.343-2.116 3.456-2.602 1.038 2.204 3.205 4.13 3.205 4.13zm1.239 31.847l-.055.2c-.661-.496-5.482-.827-5.482-.827l-2.48-.342c-.88-.141-1.73-.306-2.042-.456a2.08 2.08 0 0 0-.223-.084c-1.098-.344-4.464-.742-4.464-.742s-1.654.744-2.535.413-3.389-1.875-3.389-1.875.054-.083.165-.223l.632-.217 19.372 3.113.501 1.04z" class="B"/></g><path d="M138.472 40.53c.368 2.192.849 5.398.6 5.863-.387.716-.966 2.893-.966 2.893-.661-.496-5.482-.827-5.482-.827l-2.48-.342c-.88-.14-1.73-.306-2.042-.456a2.06 2.06 0 0 0-.223-.084c-1.098-.344-4.464-.742-4.464-.742s-1.654.744-2.535.413-3.389-1.875-3.389-1.875a8.11 8.11 0 0 1 1.24-1.349c.853-.772 2.424-7.413 2.384-7.496s-.428-2.204-.318-3.444-.33-7.303-.33-7.303-4.433-1.716-4.51-4.361 2.562-4.188 2.562-4.188l3.307-2.536c.248-.139 1.901-.496 3.252-1.24s1.212-.137 1.212-.137.552 2.921 3.831 2.728 3.637-2.728 3.637-2.728c.352-.881 3.176 1.736 3.176 1.736s.716 1.488 2.976 2.7c1.653.886 2.08 3.168 2.192 4.333l.04.709-6.641 4.768 2.61 10.884.361 2.081z" class="G"/><use xlink:href="#G" class="H"/><g class="C"><use xlink:href="#G" class="B"/><path d="M118.846 18.83s1.718 1.157 1.755 2.976l-1.755-2.976zm2.7.881c0 .111-.496 7.771.386 10.388s-.386-10.388-.386-10.388zm13.336-11.385a4.35 4.35 0 0 1-.709 2.391v-.165c-.028-.46-.271-.875-.508-1.271a2.52 2.52 0 0 0-.661-.817 1.26 1.26 0 0 1-.223-.165c-.152-.165-.136-.428-.165-.661-.045-.305-.183-.588-.396-.811a1.47 1.47 0 0 0-.793-.429.5.5 0 0 0-.371.053c-.112.079-.165.227-.259.317-.149.134-.377.117-.574.079-.433-.086-.884-.243-1.304-.104-.721.24-.992 1.237-1.731 1.422a4.24 4.24 0 0 1-.662.046c-.142.009-.28.052-.403.124v-.01a4.38 4.38 0 1 1 8.763 0l-.004.002z" class="B"/></g><path d="M126.163 5.418c.137-.184.357-.294.481-.488.188-.296.096-.686.188-1.025.113-.415.483-.699.827-.952.496-.357 1.033-.729 1.637-.688.413.03.788.255 1.198.321.64.104 1.282-.184 1.93-.165.324.016.639.11.919.273s.517.392.691.666c.256.41.392.944.827 1.157.165.084.35.111.512.195a1.11 1.11 0 0 1 .368.367 1.1 1.1 0 0 1 .16.494c.023.349-.002.7-.073 1.043a1.88 1.88 0 0 0-.023.524c.03.217.132.418.154.637.049.496-.331.931-.607 1.356-.245.381-.419.804-.514 1.247a2.01 2.01 0 0 1-.176.602c-.046.095-.119.173-.211.224a.52.52 0 0 1-.301.065c-.032-.299.043-.602.023-.903-.028-.46-.271-.875-.508-1.27a2.51 2.51 0 0 0-.661-.818 1.17 1.17 0 0 1-.221-.165c-.154-.165-.138-.427-.166-.661-.044-.305-.183-.588-.396-.81s-.49-.372-.793-.429c-.125-.032-.258-.013-.37.051-.112.079-.165.226-.259.317-.149.134-.377.119-.574.079-.433-.084-.885-.243-1.305-.104-.721.24-.992 1.237-1.731 1.422-.219.034-.44.049-.661.046-.112 0-.221.027-.32.079s-.185.126-.249.217c-.221-.231-.177-.608-.068-.909.128-.352.243-.602.181-.972s-.146-.708.091-1.023z" fill="#794f6a"/><g class="C"><path d="M110.069 65.537s-1.571.827-.744.992.744-.992.744-.992zm25.875 1.984s.868-1.157 1.818-.455-1.818.455-1.818.455zm2.017.744s1.083-.372 1.744 0h-1.744zm-21.403-18.766s2.315 2.232 3.059 2.315-3.059-2.315-3.059-2.315zm.331-29.346l-.602 1.266-.304 2.976-.22 5.539s-.413 4.712 0 5.373 1.129 4.575.992 5.071 1.819 5.125 2.178 5.402 1.625.331 2.341.192l1.309 1.245 3.707-3.421-2.288-1.736s.524-.883-.936-1.847c0 0-.661-1.103-.69-1.681a12.28 12.28 0 0 0-.606-3.472c-.523-1.543-.827-10.112-.827-10.112s-1.243-6.256-4.054-4.795z" class="B"/></g><path d="M116.558 20.153l-.601 1.266-.305 2.976-.22 5.539s-.413 4.712 0 5.373 1.13 4.575.992 5.071 1.819 5.125 2.178 5.402 1.625.331 2.341.192l1.309 1.245 3.707-3.421-2.288-1.736s.524-.883-.936-1.847c0 0-.661-1.103-.689-1.681-.035-1.18-.239-2.35-.607-3.472-.522-1.543-.827-10.112-.827-10.112s-1.243-6.256-4.054-4.795z" class="G"/><path d="M122.319 40.874c-.166.083-3.501 3.169-2.261 3.252s2.261-3.252 2.261-3.252z" class="B C"/><path d="M126.561 44.594s-4.767.496-4.519 2.425 3.638 3.788 4.712 3.203l1.984-1.144-2.177-4.484z" class="H"/><g class="C"><path d="M141.11 21.475l.69 1.323s.716 5.648 0 7.825l-2.452 7.192-2.149 3.831c-.055.165-4.025 5.896-4.741 6.2s-2.066.144-2.149-.19-1.901 1.422-1.901 1.422-3.505-4.236-2.948-4.677 2.245-.551 2.245-.551.124.413.261-.441.772-1.295 1.24-1.24.276-.44.359-.964 1.377-1.46 1.377-1.46.635-1.02.635-1.627 1.323-1.129 1.432-1.129.083-.248.083-1.129.661-2.454.661-2.454l.408-4.96.718-5.043s1.961-6.144 6.231-1.928z" class="B"/><path d="M138.111 38.448l.366 2.073-.614 1.123c-.054.165-4.022 5.897-4.738 6.2s-2.067.144-2.15-.188c-.036-.149-.415.114-.826.453l-1.077.967-1.188-1.508c-.959-1.263-2.095-2.902-1.761-3.168.557-.441 2.247-.551 2.247-.551s.124.413.261-.441.772-1.295 1.24-1.24.276-.441.359-.964 1.377-1.462 1.377-1.462.633-1.018.633-1.625 1.323-1.129 1.434-1.129.082-.248.082-1.131.662-2.452.662-2.452l.408-4.96.716-5.043s1.957-6.145 6.228-1.929l.319.613.04.709-6.642 4.768 2.624 10.884z" class="B"/></g><path d="M141.441 21.475l.689 1.323s.716 5.648 0 7.825l-2.451 7.192-2.15 3.831c-.054.165-4.024 5.896-4.74 6.2s-2.067.144-2.149-.19-1.902 1.422-1.902 1.422-3.505-4.236-2.947-4.677 2.245-.551 2.245-.551.124.413.261-.441.772-1.295 1.24-1.24.276-.44.359-.964 1.377-1.46 1.377-1.46.635-1.02.635-1.627 1.323-1.129 1.432-1.129.082-.248.082-1.129.662-2.454.662-2.454l.408-4.96.718-5.043s1.96-6.144 6.231-1.928z" class="G"/><g class="C"><path d="M129.152 43.618s.165.372.909.508-.909-.508-.909-.508zm8.9-22.116c-.027.083-2.48 2.855-1.984 3.578s1.984-3.578 1.984-3.578zm-2.783 12.73s1.405 1.379 1.129 2.04-1.129-2.04-1.129-2.04zm.22-2.617c.083.137 3.115.496 3.28 1.653s-3.28-1.653-3.28-1.653z" class="B"/><g class="B"><path d="M135.797 6.832c0-.063.014-.127.024-.192a4.33 4.33 0 0 0 .08-.957c-.014.21-.05.42-.08.627a1.83 1.83 0 0 0-.024.522zm-9.724-.324a1.14 1.14 0 0 0 0-.369l-.053-.352a2.27 2.27 0 0 0 .053.683v.038zm9.871 1.225c-.071.393-.367.746-.594 1.095a3.71 3.71 0 0 0-.514 1.245 2.11 2.11 0 0 1-.175.602.52.52 0 0 1-.211.225c-.092.052-.197.074-.302.064a2.03 2.03 0 0 0 0 .331.52.52 0 0 0 .513-.289 2.11 2.11 0 0 0 .175-.602c.094-.443.268-.865.514-1.245.275-.425.661-.853.605-1.357.007-.023-.008-.045-.011-.068zm-1.773 2.329c-.028-.46-.271-.876-.507-1.271-.16-.319-.386-.601-.662-.827-.08-.047-.155-.102-.223-.165-.152-.165-.135-.428-.165-.661a1.48 1.48 0 0 0-.396-.81c-.213-.222-.49-.372-.793-.429a.5.5 0 0 0-.37.051c-.113.079-.166.227-.26.319a.67.67 0 0 1-.278.105c-.1.014-.2.005-.296-.025-.433-.086-.884-.245-1.304-.104-.721.238-.992 1.235-1.733 1.42a4.2 4.2 0 0 1-.661.048.69.69 0 0 0-.567.294.55.55 0 0 1-.144-.289.71.71 0 0 0-.001.327.7.7 0 0 0 .145.293.69.69 0 0 1 .567-.294 4.2 4.2 0 0 0 .661-.048c.738-.185 1.012-1.182 1.733-1.42.42-.141.871.018 1.304.104.096.03.197.039.296.025s.195-.05.278-.105c.103-.093.147-.24.26-.319.112-.065.245-.083.37-.051.303.057.58.207.793.429a1.48 1.48 0 0 1 .396.81c.028.228.011.484.165.661.068.063.143.119.223.165.276.226.502.508.662.827.23.385.463.789.496 1.233a2.2 2.2 0 0 0 .011-.293z" class="B"/></g></g><path d="M79.831 24.276v17.35c-.001.037.006.073.02.107s.034.065.06.09.057.046.091.06.07.02.107.02c4.778-.149 8.763-4.099 8.763-8.951S84.89 24.147 80.109 24a.27.27 0 0 0-.198.079c-.026.026-.046.057-.06.09a.27.27 0 0 0-.02.107z" fill="#61beec"/><path d="M67.899 47.97V33.611c-.017-2.296.719-4.535 2.095-6.374 1.301-1.709 3.327-3.257 6.389-3.237.041 0 .082.008.12.023s.073.038.102.067.053.064.069.102.024.079.025.12v14.781s.496 8.078-8.624 9.034c-.022.001-.044-.002-.064-.009s-.04-.018-.056-.033-.03-.032-.039-.052-.015-.041-.016-.063z" fill="#4064ac"/><g class="E"><path d="M30.304 22.38a5.21 5.21 0 0 0 5.208-5.208 5.21 5.21 0 0 0-5.208-5.208 5.21 5.21 0 0 0-5.208 5.208 5.21 5.21 0 0 0 5.208 5.208zM19.392 7.996c1.781 0 3.224-1.443 3.224-3.224s-1.443-3.224-3.224-3.224-3.224 1.443-3.224 3.224 1.443 3.224 3.224 3.224zM2.53 13.948c1.096 0 1.984-.888 1.984-1.984S3.625 9.98 2.53 9.98.546 10.868.546 11.964s.888 1.984 1.984 1.984z" class="B"/><use xlink:href="#H"/></g><use xlink:href="#H" class="B C"/><g class="E"><path d="M60.57 112.213l-.455 1.323s-.253-.178-.572-.46c-.638-.557-1.544-1.517-1.255-2.258.313-.795 1.343.255 1.905.919l.377.476zm.959-.755a6.45 6.45 0 0 1-.443.521 6.96 6.96 0 0 1-.081-.7c-.038-.681.035-1.585.718-1.384s.223 1.014-.193 1.563zm5.864.207l-.056.787c-.2-.153-.389-.32-.567-.498-.514-.534-1.083-1.357-.286-1.853.832-.523.934.696.909 1.564zm2.687.573a2.92 2.92 0 0 1-1.194.901 3.17 3.17 0 0 1-.4.146l-.536-.752c.057-.249.131-.493.221-.731a2.83 2.83 0 0 1 .377-.71c.741-.983 2.252.148 1.531 1.146z"/></g><g class="C"><path d="M60.193 111.746l.377.467-.455 1.323s-.253-.178-.572-.46a2.6 2.6 0 0 1 .513-1.168l.137-.162zm1.336-.288a6.45 6.45 0 0 1-.443.521 6.99 6.99 0 0 1-.081-.7.9.9 0 0 1 .524.179z" class="B"/></g><path d="M63.766 116.737l-1.133.496s-.246-.119-.602-.339c-1.189-.732-3.578-2.573-1.976-4.742s2.938 1.721 3.464 3.624l.246.961z" class="E"/><g class="C"><path d="M66.77 111.954a.92.92 0 0 1 .623-.281l-.056.787c-.2-.156-.39-.325-.567-.506zm2.116 1.185a3.17 3.17 0 0 1-.4.146l-.536-.752c.057-.249.131-.493.221-.731.346.203.6.704.714 1.337z" class="B"/></g><path d="M66.079 118.055l-.19.033c-3.791.577-1.25-1.47-1.25-1.47l.402-.413c.458-.505 1.146-1.389 1.225-2.206.119-1.228.256-2.381 1.706-2.042 1.424.328 1.691 5.378-1.893 6.098z" class="E"/><g class="L"><path d="M66.009 127.494h-7.243v1.904h7.243v-1.904z"/><path d="M67.079 121.303h-9.464v6.647h9.464v-6.647z"/></g><g class="C"><path d="M66.009 127.494h-7.243v1.904h7.243v-1.904z" class="B"/><path d="M67.079 121.303h-9.464v6.647h9.464v-6.647z" class="B"/></g><path d="M66.485 127.494h-7.243v1.904h7.243v-1.904z" class="L"/><g class="C"><path d="M63.519 115.778l.246.959-1.133.496s-.246-.119-.602-.339c.443-.56.942-.985 1.488-1.116zm2.56 2.277l-.19.033c-3.791.577-1.25-1.47-1.25-1.47l.402-.413c.708.567 1 1.205 1.038 1.85z" class="B"/></g><path d="M59.908 121.679s2.123-7.606 5.101-5.258-1.21 5.952-1.21 5.952l-3.89-.694z" class="E"/><g class="C"><path d="M60.988 113.584c.131 0 .238-.107.238-.238s-.107-.238-.238-.238-.238.107-.238.238.106.238.238.238zm-.02 1.111c.131 0 .238-.107.238-.238s-.107-.238-.238-.238-.238.107-.238.238.107.238.238.238zm6.905-.893c.131 0 .238-.106.238-.238s-.107-.238-.238-.238-.238.107-.238.238.107.238.238.238zm-5.555 5.696c.131 0 .238-.107.238-.238s-.107-.238-.238-.238-.238.106-.238.238.107.238.238.238zm5.059-3.851c.132 0 .238-.106.238-.238s-.106-.238-.238-.238-.238.107-.238.238.107.238.238.238z" class="B"/><use xlink:href="#I" class="B"/><path d="M61.802 114.06c.132 0 .238-.106.238-.238s-.107-.238-.238-.238-.238.107-.238.238.107.238.238.238zm5.416.457c.132 0 .238-.107.238-.239s-.107-.238-.238-.238-.238.107-.238.238a.24.24 0 0 0 .238.239zm-.814 1.845c.132 0 .238-.107.238-.238a.24.24 0 0 0-.238-.239c-.131 0-.238.107-.238.239s.107.238.238.238zm-2.499 2.957c.132 0 .238-.106.238-.238s-.107-.238-.238-.238-.238.107-.238.238.107.238.238.238zm-.516-1.17c.132 0 .238-.107.238-.238s-.107-.238-.238-.238-.238.106-.238.238.107.238.238.238zm-1.23-2.64c.131 0 .238-.107.238-.239s-.107-.238-.238-.238-.238.107-.238.238a.24.24 0 0 0 .238.239zm4.326 11.985h-7.243v.696h7.243v-.696z" class="B"/></g><path d="M67.555 121.303h-9.464v6.647h9.464v-6.647z" class="L"/><g class="C"><path d="M64.222 120.391c.132 0 .238-.107.238-.238s-.107-.238-.238-.238-.238.106-.238.238.107.238.238.238zm-1.428.297c.131 0 .238-.106.238-.238s-.107-.238-.238-.238-.238.107-.238.238.107.238.238.238z" class="B"/></g></g><defs><linearGradient id="A" x1="39.341" y1="127.93" x2="39.341" y2="39.764" gradientUnits="userSpaceOnUse"><stop stop-color="gray" stop-opacity=".25"/><stop offset=".54" stop-color="gray" stop-opacity=".12"/><stop offset="1" stop-color="gray" stop-opacity=".1"/></linearGradient><linearGradient id="B" x1="39224.3" y1="54940.5" x2="39224.3" y2="6127.73" gradientUnits="userSpaceOnUse"><stop stop-color="gray" stop-opacity=".25"/><stop offset=".54" stop-color="gray" stop-opacity=".12"/><stop offset="1" stop-color="gray" stop-opacity=".1"/></linearGradient><clipPath id="C"><path fill="#fff" transform="translate(.546)" d="M0 0h178.909v130H0z"/></clipPath><path id="D" d="M34.155 59.12s1.571 4.092 4.877 3.431c0 0 3.338.261 5.249-2.191s2.025 14.053 2.025 14.053l-.744 10.953s-5.329 3.183-7.643 2.769-3.431-1.653-3.431-1.653-2.439-2.273-3.1-2.563.289-14.384.289-14.384l.785-5.291 1.691-5.125z"/><path id="E" d="M30.8 81.296c-.056 1.488-.283 3.037-.283 3.037-2.315-3.265-3.948-.231-3.948-.231l-.516-1.38a2.33 2.33 0 0 1-.496-.595c1.078-.594 3.454-1.688 5.243-.83z"/><path id="F" d="M52.647 85.744l-.099.165-.331 1.653s-1.157-1.984-3.844-1.488c.157-.562.261-1.137.311-1.718.921.058 2.776.318 3.963 1.387z"/><path id="G" d="M122.042 46.193s2.178 3.746 4.436 2.7c.509-.231.932-.618 1.207-1.104.891-1.541 0-3.507-1.726-3.968-.636-.165-1.322-.27-1.878-.165-1.571.278-2.039 2.538-2.039 2.538z"/><path id="H" d="M68.311 111.092a2.86 2.86 0 0 0-.377.71l-.069.2c-.042-.02-.085-.035-.131-.045-.193-.049-.392-.066-.59-.051l.012-.241c.025-.872-.078-2.087-.909-1.573-.797.496-.228 1.323.286 1.854l.132.129c-.47.33-.559 1.112-.637 1.924s-.767 1.701-1.225 2.206l-.129.14a1.67 1.67 0 0 0-.629-.314c-.229-.059-.469-.069-.702-.028l-.061-.225c-.369-1.344-1.138-3.659-2.12-4.155l.129-.165c.417-.546.886-1.356.194-1.563s-.756.703-.718 1.384c0 .085.013.166.02.242-.139.006-.274.041-.399.102a1.01 1.01 0 0 0-.326.252l-.107-.126c-.562-.661-1.592-1.715-1.905-.919-.289.74.617 1.701 1.255 2.258l.04.035c-.428 1.739 1.442 3.156 2.449 3.776l.131.079c-1.389 1.637-2.247 4.704-2.247 4.704l3.89.694s2.578-2.225 2.247-4.313h.026c2.578-.516 3.163-3.264 2.763-4.896.015 0 .03-.011.045-.019.469-.192.88-.503 1.194-.901.721-1.007-.79-2.138-1.531-1.155z"/><path id="I" d="M64.916 118.109c.132 0 .238-.106.238-.238s-.107-.238-.238-.238-.238.107-.238.238.107.238.238.238z"/></defs></svg>