<svg xmlns="http://www.w3.org/2000/svg" xmlns:xlink="http://www.w3.org/1999/xlink" width="178" height="130" fill="none" xmlns:v="https://vecta.io/nano"><style><![CDATA[.B{fill:#000}.C{opacity:.1}.D{fill:#464353}.E{opacity:.05}.F{fill:#00bafc}.G{fill:#a1616a}.H{fill:#514e7f}.I{fill:#3f3d56}.J{fill:#ffcdd3}.K{fill:#fbbebe}]]></style><g clip-path="url(#B)"><path d="M104.096 17.968c-10.439-.363-20.382-3.732-29.876-7.42S55.323 2.776 45.127.823C38.58-.434 31.085-.611 25.804 2.9c-5.081 3.387-6.723 9.218-7.605 14.633-.665 4.076-1.055 8.363.764 12.178 1.265 2.648 3.507 4.874 5.058 7.42 5.399 8.826 1.582 19.71-4.266 28.329-2.742 4.042-5.928 7.903-8.046 12.204s-3.097 9.234-1.244 13.623c1.836 4.355 6.212 7.62 10.952 9.919 9.628 4.668 20.969 6.005 32.035 6.762 24.49 1.676 49.109.95 73.663.224 9.087-.269 18.213-.542 27.153-1.947 4.964-.78 10.089-2.019 13.692-5 4.576-3.795 5.71-10.223 2.644-14.981-5.143-7.983-19.356-9.966-22.954-18.533-1.978-4.715.053-9.968 2.929-14.341 6.168-9.383 16.505-17.612 17.049-28.337.374-7.365-4.596-14.741-12.28-18.226-8.053-3.653-19.223-3.194-25.162 2.853-6.121 6.213-16.873 8.608-26.091 8.289z" class="C F"/><g opacity=".9"><g fill="#3a3768"><path opacity=".9" d="M115.883 40.127h-.69a.37.37 0 0 0-.369.369v11.039a.37.37 0 0 0 .369.369h.69a.37.37 0 0 0 .37-.369V40.497a.37.37 0 0 0-.37-.369zm-48.119-9.226h-.063a.37.37 0 0 0-.369.369v3.139a.37.37 0 0 0 .369.369h.063a.37.37 0 0 0 .369-.369V31.27a.37.37 0 0 0-.369-.369zM67.836 38h-.164a.37.37 0 0 0-.369.369v6.01a.37.37 0 0 0 .369.369h.164a.37.37 0 0 0 .369-.369v-6.01a.37.37 0 0 0-.369-.369zm-.029 9.11h-.121a.37.37 0 0 0-.369.369v6.068a.37.37 0 0 0 .369.369h.121a.37.37 0 0 0 .369-.369v-6.068a.37.37 0 0 0-.369-.369z"/><path opacity=".9" d="M109.306 18.088H74.075a6.29 6.29 0 0 0-6.289 6.289v84.585a6.29 6.29 0 0 0 6.289 6.289h35.231a6.29 6.29 0 0 0 6.289-6.289V24.377a6.29 6.29 0 0 0-6.289-6.289z"/></g><g fill="#e6e8ec"><path opacity=".9" d="M93.129 20.988h-5.428c-.345 0-.624.279-.624.624v.106c0 .345.279.624.624.624h5.428c.345 0 .624-.279.624-.624v-.106c0-.345-.279-.624-.624-.624zm2.404 1.448a.77.77 0 0 0 .769-.769.77.77 0 0 0-.769-.769.77.77 0 0 0-.769.769.77.77 0 0 0 .769.769z"/></g></g><g class="F"><path d="M38.968 120.774c17.814 0 32.254-1.472 32.254-3.287s-14.441-3.288-32.254-3.288-32.254 1.472-32.254 3.288 14.441 3.287 32.254 3.287zM110.686 130c8.345 0 15.111-.69 15.111-1.54s-6.766-1.541-15.111-1.541-15.11.69-15.11 1.541 6.765 1.54 15.11 1.54zm51.631-7.762c8.345 0 15.11-.689 15.11-1.54s-6.765-1.54-15.11-1.54-15.11.689-15.11 1.54 6.765 1.54 15.11 1.54z" class="C"/><path d="M108.839 20.617h-5.467v.66c0 .829-.33 1.624-.916 2.21s-1.381.916-2.21.916H82.797a3.12 3.12 0 0 1-2.21-.916 3.13 3.13 0 0 1-.916-2.21v-.66h-5.136c-.498 0-.992.098-1.453.289s-.879.471-1.231.823a3.8 3.8 0 0 0-.823 1.232c-.191.461-.289.954-.288 1.453v84.508a3.8 3.8 0 0 0 .288 1.453c.191.46.47.879.823 1.232a3.8 3.8 0 0 0 1.231.823 3.81 3.81 0 0 0 1.453.289h34.304c1.007 0 1.973-.4 2.685-1.112s1.112-1.678 1.112-2.685V24.414c0-1.007-.4-1.973-1.112-2.685s-1.678-1.112-2.685-1.112zm23.306-6.792s-13.581-.819-11.979 8.697c0 0-.323 1.682 1.206 2.445 0 0 .024-.705 1.392-.466.488.082.983.106 1.476.071a3.06 3.06 0 0 0 1.805-.744s3.816-1.577 5.302-7.816c0 0 1.098-1.361 1.055-1.711l-2.292.979s.782 1.653.161 3.027c0 0-.074-2.968-.515-2.903-.09.013-1.192.573-1.192.573s1.349 2.879.323 4.973c0 0 .385-3.549-.752-4.765l-1.613.942s1.575 2.974.508 5.402c0 0 .273-3.723-.846-5.173l-1.462 1.14s1.479 2.931.578 4.944c0 0-.12-4.332-.895-4.66 0 0-1.28 1.129-1.475 1.59 0 0 1.013 2.129.386 3.252 0 0-.386-2.887-.702-2.903 0 0-1.274 1.913-1.406 3.226 0 0 .054-1.95 1.096-3.407 0 0-1.23.211-1.95 1.01 0 0 .199-1.352 2.259-1.471 0 0 1.053-1.452 1.335-1.539 0 0-2.056-.173-3.303.381 0 0 1.097-1.276 3.68-.695l1.442-1.179s-2.706-.369-3.854.039c0 0 1.322-1.129 4.245-.306l1.571-.939s-2.308-.498-3.684-.323c0 0 1.452-.782 4.144.066l1.129-.505s-1.692-.332-2.188-.386-.521-.189-.521-.189c1.08-.179 2.188-.053 3.199.365 0 0 2.377-.892 2.337-1.042zm-13.929-4.233s-6.13-.369-5.414 3.931c0 0-.143.76.546 1.105 0 0 .011-.323.629-.211a2.8 2.8 0 0 0 .666.032 1.39 1.39 0 0 0 .816-.335s1.724-.713 2.395-3.532c0 0 .497-.614.484-.773l-1.035.442s.353.747.074 1.368c0 0-.032-1.34-.232-1.31-.041 0-.538.26-.538.26s.609 1.3.149 2.247c0 0 .174-1.603-.339-2.153l-.729.426s.711 1.344.229 2.44c0 0 .124-1.682-.382-2.337l-.661.516s.669 1.324.261 2.234c0 0-.053-1.958-.403-2.106 0 0-.579.51-.667.719 0 0 .457.968.173 1.469 0 0-.174-1.305-.323-1.311 0 0-.575.864-.635 1.452a3.15 3.15 0 0 1 .495-1.539 1.73 1.73 0 0 0-.881.456s.089-.611 1.023-.664c0 0 .476-.657.603-.697 0 0-.929-.077-1.492.173 0 0 .495-.576 1.663-.323l.645-.532s-1.222-.161-1.742.018c0 0 .599-.51 1.918-.139l.71-.424s-1.042-.224-1.663-.143c0 0 .655-.353 1.871.029l.508-.227-.987-.174c-.224-.024-.235-.085-.235-.085a2.64 2.64 0 0 1 1.433.161s1.084-.392 1.067-.46zM7.058 110.548c3.582 0 6.486-.491 6.486-1.097s-2.904-1.097-6.486-1.097-6.486.491-6.486 1.097 2.904 1.097 6.486 1.097z"/><path d="M9.739 107.656a1.88 1.88 0 0 0 .619-.933c.079-.371-.079-.806-.432-.95-.397-.153-.821.123-1.142.4s-.69.596-1.111.536c.216-.197.377-.446.467-.723a1.69 1.69 0 0 0 .05-.859c-.017-.119-.068-.231-.145-.323-.219-.236-.619-.134-.884.052-.839.59-1.073 1.729-1.076 2.754-.085-.371-.015-.756-.016-1.129s-.106-.806-.426-1.003c-.198-.106-.42-.159-.645-.153-.377-.013-.797.024-1.055.3-.323.342-.237.918.042 1.29s.702.613 1.09.875a2.4 2.4 0 0 1 .781.743.71.71 0 0 1 .058.132h2.363a6.58 6.58 0 0 0 1.461-1.009zM134.54 94.12s1.396 1.826-.645 4.581-3.721 5.081-3.04 6.799c0 0 3.077-5.116 5.582-5.189s.858-3.113-1.897-6.19z"/></g><path d="M134.54 94.12a2.28 2.28 0 0 1 .286.573c2.444 2.871 3.745 5.552 1.395 5.618-2.187.063-4.813 3.976-5.44 4.963.019.077.044.152.074.226 0 0 3.077-5.116 5.582-5.189s.858-3.113-1.897-6.19z" class="B C"/><g fill="#ffd037"><path d="M137.134 96.452c0 .645-.073 1.163-.161 1.163s-.162-.521-.162-1.163.091-.339.18-.339.143-.306.143.339z"/><path d="M138.024 97.213c-.564.306-1.054.493-1.098.414s.381-.39.945-.698.341-.082.384 0 .334-.024-.231.284z"/></g><path d="M127.169 94.12s-1.395 1.826.645 4.581 3.721 5.081 3.042 6.799c0 0-3.077-5.116-5.582-5.189s-.86-3.113 1.895-6.19z" class="F"/><path d="M127.169 94.12a2.23 2.23 0 0 0-.285.573c-2.444 2.871-3.746 5.552-1.397 5.618 2.189.063 4.813 3.976 5.442 4.963a2.21 2.21 0 0 1-.074.226s-3.078-5.116-5.583-5.189-.858-3.113 1.897-6.19z" class="B C"/><g fill="#ffd037"><path d="M124.574 96.452c0 .645.072 1.163.161 1.163s.161-.521.161-1.163-.09-.339-.179-.339-.143-.306-.143.339z"/><path d="M123.679 97.213c.563.306 1.055.493 1.096.414s-.379-.39-.943-.698-.342-.082-.384 0-.327-.024.231.284z"/></g><path d="M125.019 105.26s3.902-.121 5.078-.958 6.002-1.837 6.29-.493 5.863 6.679 1.452 6.714-10.236-.687-11.409-1.401-1.411-3.862-1.411-3.862z" fill="#a8a8a8"/><path opacity=".2" d="M137.928 110.056c-4.405.035-10.236-.687-11.409-1.402-.895-.544-1.25-2.497-1.369-3.398h-.131s.247 3.146 1.421 3.861 7.004 1.437 11.409 1.402c1.271-.012 1.711-.463 1.687-1.129-.178.404-.662.658-1.608.666z" class="B"/><g fill="#3a3768"><path opacity=".3" d="M107.441 78.692H94.855v12.586h12.586V78.692zM88.892 62.078H76.306v12.586h12.586V62.078zm1.21 32.943H77.516v12.586h12.586V95.021z"/></g><g fill="#fff"><path d="M87.294 31.175H74.708v12.586h12.586V31.175zm17.623 42.979l-9.332 8.445 8.444 9.333 9.333-8.445-8.445-9.333zm2.316-27.812H94.647v12.586h12.586V46.342zm-15.91 14.033H78.737v12.586h12.586V60.375z"/></g><g class="F"><path d="M157.327 118.164c.732.095 1.492.161 2.193-.074.108-.034.233-.108.218-.219a.25.25 0 0 0-.05-.107c-.265-.397-.489-.82-.666-1.263-.007-.023-.021-.043-.04-.056s-.049-.009-.071 0c-.323.084-.604.293-.926.382-.164.045-.335.058-.503.039-.146-.016-.346-.137-.476-.123.08.479.264.932.321 1.421zm13.86-1.227c.484-.323.984-.681 1.269-1.192.021-.03.033-.066.034-.102s-.018-.071-.04-.1a4.14 4.14 0 0 0-1.031-1.113c-.214.151-.407.33-.576.531-.121.127-.456.337-.459.527 0 .115.127.239.187.323l.23.364.386.762z"/></g><path d="M160.198 119.645c.01.114-.021.229-.087.322-.052.051-.116.089-.186.108-1.026.367-2.206-.092-3.226.271l-.621.252a3.4 3.4 0 0 1-.769.137l-1.089.066c-.275.02-.551-.004-.819-.071a.99.99 0 0 1-.367-.182c-.109-.086-.198-.194-.262-.316-.055-.11-.066-.237-.031-.355.016-.042.038-.08.066-.114a.99.99 0 0 1 .242-.196l.378-.243a2.5 2.5 0 0 1 .571-.303c.148-.049.308-.07.458-.113.53-.162.934-.576 1.309-.979l.513-.547a.51.51 0 0 1 .178-.142c.07-.024.145-.032.219-.023.498.037.98.199 1.399.471a1.99 1.99 0 0 0 .345.203c.161.047.33.061.496.04a1.25 1.25 0 0 0 .471-.16c.133-.07.104-.113.162-.238s.19-.204.306-.09a.34.34 0 0 1 .073.139c.113.366.069.758.069 1.14-.003.06.005.12.023.178a1.08 1.08 0 0 0 .1.161c.008.013.015.027.021.042.063.173.083.359.058.542z" class="H"/><path d="M160.198 119.645c.01.114-.021.229-.087.322-.052.051-.116.089-.186.108-1.026.367-2.206-.091-3.226.271l-.621.252a3.4 3.4 0 0 1-.769.137l-1.089.066c-.275.02-.551-.004-.819-.071a.99.99 0 0 1-.367-.182c-.109-.086-.198-.194-.262-.316-.055-.11-.066-.237-.031-.355.016-.042.038-.08.066-.114.062.125.105.29.142.35.051.089.121.166.204.226a.72.72 0 0 0 .28.12 1.22 1.22 0 0 0 .437-.056c.929-.231 1.916-.234 2.807-.582.297-.141.604-.259.919-.354.329-.049.661-.076.994-.08.524-.042 1.03-.2 1.548-.283a1.12 1.12 0 0 1 .06.541z" class="D"/><path d="M173.529 116.874c-.048.388-.295.724-.566 1.008-.289.264-.554.554-.791.866-.267.406-.385.908-.73 1.252a2.01 2.01 0 0 1-.439.322c-.18.107-.371.194-.569.262-.515.161-1.07.127-1.613.088-.175-.002-.348-.036-.51-.1-.076-.037-.148-.081-.216-.13a1.04 1.04 0 0 1-.323-.334c-.04-.074-.05-.159-.03-.241.032-.091.087-.172.161-.235.121-.126.251-.243.389-.35.189-.123.36-.273.506-.445.09-.137.156-.287.195-.445.078-.277.126-.561.142-.847 0-.191.02-.38.06-.566.082-.291.298-.554.272-.855a.22.22 0 0 1 .012-.129.2.2 0 0 1 .101-.063c.17-.067.348-.107.529-.121.09-.006.18.008.264.042s.159.084.22.15c.076.09.125.216.236.256.053.011.108.011.161 0 .271-.027.56-.061.768-.237.099-.089.179-.197.235-.319s.085-.252.087-.386c0-.1-.045-.205.109-.226.117-.016.209.107.269.187.236.276.412.597.518.944.031-.013.064-.019.098-.019.069-.001.137.015.198.046s.114.078.154.134c.094.145.131.32.103.491z" class="H"/><path d="M173.529 116.874c-.048.388-.295.724-.566 1.008-.289.264-.554.554-.791.866-.267.406-.385.908-.73 1.252a2.01 2.01 0 0 1-.439.322c-.18.107-.371.194-.569.262-.515.161-1.07.127-1.613.088-.175-.002-.348-.036-.51-.1-.076-.037-.148-.081-.216-.13a1.04 1.04 0 0 1-.323-.334.77.77 0 0 1 .333-.079c.24.013.414.238.645.308.322.098.645-.133.982-.212.216-.05.445-.035.657-.104.177-.069.341-.168.483-.294.197-.14.371-.309.518-.5.123-.191.225-.394.305-.606a8.48 8.48 0 0 1 .615-1.176c.034-.059.077-.114.125-.162s.113-.08.162-.122c.221-.161.313-.447.39-.712a1.27 1.27 0 0 1 .087-.237c.069-.001.137.015.198.047s.114.077.154.134a.7.7 0 0 1 .103.481z" class="D"/><path d="M150.357 82.419a2.33 2.33 0 0 1 .658.769c.162.303 1.047 2.658.995 2.995.291-.294 1.442-.342 1.731-.634l.884-.877c.098-.142.837-.447.918-.592.301-.54-2.139-2.581-1.828-3.123.018-.024.027-.054.026-.084-.007-.025-.021-.047-.04-.064a3.88 3.88 0 0 0-.707-.484c-.256-.138-.449-.369-.538-.645-.23.106-.441.249-.625.423l-1.319 1.174c-.171.161-.497.366-.576.59s.258.419.421.552z" class="G"/><path d="M154.307 81.55a7.05 7.05 0 0 0-1.045.855c-.303.298-.59.645-.666 1.066-.031.161-.026.332-.052.498-.108.723-.735 1.253-1.011 1.935a3.28 3.28 0 0 0-.177.645c-.078.418-.12.842-.126 1.268 0 .413.397.697.545 1.082.123.382.211.775.263 1.173.161.742.382 1.47.66 2.178l2.856 7.173c1.669-.419 6.115-1.382 7.592-2.258.494-.294-3.419-3.61-2.892-3.839.061-.019.113-.058.147-.111.017-.052.017-.109 0-.161-.526-2.305-2.176-4.194-2.923-6.452-.259-.779-.725-1.444-1.08-2.186-.323-.671-.492-1.411-.875-2.049-.073-.131-.167-.249-.279-.35-.096-.073-.2-.135-.309-.186-.212-.113-.415-.176-.628-.282z" class="H"/><path d="M150.446 82.156c1.443 0 2.613-1.17 2.613-2.613s-1.17-2.613-2.613-2.613-2.613 1.17-2.613 2.613 1.17 2.613 2.613 2.613z" class="G"/><g class="D"><path d="M153.104 80.771c.13-.12.294-.198.469-.223a.88.88 0 0 1 .513.082.48.48 0 0 1 .22.19.47.47 0 0 1 .072.281l1.291.019c.206-.005.412.014.614.056s.385.159.513.323c.016.021.034.045.06.05.021-.001.042-.008.059-.021a1.14 1.14 0 0 1 .646-.116c.7.045 1.348.397 1.896.834a.61.61 0 0 1 .226.276c.045.147 0 .335.107.435 0 1.218.417 2.352.697 3.537.048.211.251.397.391.563a2.26 2.26 0 0 1 .42.626c.235.615-.09 1.336.14 1.953a3.18 3.18 0 0 0 .445.702 1.8 1.8 0 0 1 .379.906c.01.148-.009.297 0 .447a2.72 2.72 0 0 0 .107.587l.297 1.068c.161.574.387 1.195.901 1.502-1.243.211-2.553.416-3.739-.015-.165-.056-.322-.135-.466-.234-.427-.305-.634-.828-.817-1.319-.207-.553-.417-1.115-.459-1.703a1.9 1.9 0 0 0-.077-.556c-.121-.323-.44-.514-.734-.692a3.53 3.53 0 0 1-.882-.687 1.36 1.36 0 0 1-.286-.479 1.35 1.35 0 0 1-.072-.553c.022-.182.093-.358.101-.542.011-.092-.007-.184-.052-.265a.43.43 0 0 0-.199-.182c-.905-.274-1.337-1.345-1.539-2.269a7.28 7.28 0 0 1-.116-1.452l-.011-.934c-.125-.113-.226-.251-.296-.405a1.23 1.23 0 0 1-.111-.489c.015-.098.015-.197 0-.295a.83.83 0 0 0-.206-.323c-.202-.2-.371-.431-.502-.684zm-2.784 2.989c-.029.292.037.59-.029.877-.026.11-.069.215-.102.323a1.91 1.91 0 0 0 .121 1.229 6.93 6.93 0 0 0 .628 1.089 1.63 1.63 0 0 1 .201.376 1.97 1.97 0 0 1 .078.431c.064.584.167 1.162.308 1.732.123.497.282.998.61 1.392a.42.42 0 0 0 .251.171c.074.003.148-.013.215-.045l.668-.253c.058-.017.113-.046.161-.084a.4.4 0 0 0 .093-.261c.047-.539-.114-1.073-.293-1.582-.542-1.539-1.262-3.021-1.613-4.613-.099-.445-.15-1.129-.474-1.476-.134-.145-.089-.084-.249 0-.08.036-.158.078-.234.124a.77.77 0 0 0-.235.247.76.76 0 0 0-.105.324z"/></g><path d="M152.333 86.679l.544 2.818 2.593-.681c.021-.271-.124-.523-.224-.776-.237-.594-.242-1.253-.434-1.863-.145-.465-.397-.892-.532-1.36-.079-.271-.118-.555-.195-.828-.084-.269-.186-.533-.305-.789a5.09 5.09 0 0 0-.566-1.05c-.333.124-.686.268-.875.566-.098.17-.153.362-.161.558-.045.584.161 1.169.095 1.747-.069.552-.049 1.111.06 1.657z" class="F"/><g class="D"><path d="M155.514 99.194c.145.555-.066 1.129-.237 1.681a13.01 13.01 0 0 0-.529 2.53 2.13 2.13 0 0 1-.131.646c-.096.177-.201.349-.315.516-.261.461-.254 1.026-.198 1.553l.161 1.039c.086.418.191.856.068 1.264.205-.045.345.22.337.431s-.082.437.018.623c.255.092.258.442.25.711a6.01 6.01 0 0 0 .176 1.394l1.226 5.53c.934.291 2.024.592 2.914.191.087-.028.166-.077.23-.141a.58.58 0 0 0 .14-.23c.009-.097-.003-.194-.036-.286l-.422-1.535c-.127-.362-.179-.747-.152-1.129.042-.286.161-.592.026-.842-.049-.086-.123-.162-.178-.236-.222-.322-.106-.756-.087-1.15.007-.088 0-.177-.019-.263-.03-.1-.072-.197-.124-.288a4.41 4.41 0 0 1-.484-2.194.54.54 0 0 0-.039-.287c-.028-.036-.051-.075-.071-.116-.017-.071-.009-.146.023-.212a1.86 1.86 0 0 1-.341-.322c.06-.039.111-.091.149-.153s.061-.129.068-.201 0-.143-.024-.211a.49.49 0 0 0-.112-.18c.045-.009.087-.031.121-.062s.058-.071.07-.115.013-.092 0-.136-.038-.084-.072-.115c-.055-.039-.125-.055-.161-.11-.06-.08-.011-.195.037-.282l.258-.466c.192-.345.236-.773.442-1.11.279-.493.507-1.013.681-1.553l.735-2.048.5.433c.168.128.307.287.412.47.071.179.115.369.132.561.184 1.113.885 2.078 1.145 3.176.036.249.116.489.236.71.05.064.095.132.135.203.037.109.056.222.057.337a1.55 1.55 0 0 0 .208.637 1.56 1.56 0 0 0 .454.492c.246.161.557.286.686.553a1.09 1.09 0 0 0 .113.236c.119.143.377.161.429.34.027.102-.026.221.032.31.032.04.073.072.121.09l.721.362c.807.401 1.213 1.322 1.808 1.998a4.18 4.18 0 0 1 .541.716c.256.458.375 1.034.806 1.329a1.25 1.25 0 0 1 .313.233c.137.179.087.43.098.656s.186.494.4.426c-.075.273-.075.561 0 .834a4.2 4.2 0 0 0 2.549-1.033c.21-.183.413-.417.414-.695.003-.048-.008-.096-.03-.138-.042-.055-.098-.098-.162-.123-.672-.365-.875-1.21-1.212-1.897-.299-.605-.738-1.129-1.11-1.69-.807-1.21-1.345-2.673-2.557-3.473-.266-.176-.576-.332-.708-.623-.056-.169-.104-.341-.142-.516-.022-.086-.071-.163-.138-.221s-.152-.093-.241-.101c.077-.262.106-.535.087-.807.007-.117-.006-.234-.04-.347-.046-.12-.105-.235-.177-.342-.316-.536-.474-1.151-.457-1.774.01-.322.066-.645-.031-.953-.048-.161-.132-.295-.192-.445-.088-.268-.134-.549-.138-.831l-.066-1.063a5.09 5.09 0 0 0-.137-1.05c-.225-.824-.439-4.278-1.199-4.666s-2.056 2.268-2.903 2.321a3.87 3.87 0 0 0-1.11.213c-.566.213-1.042.61-1.505.998l-1.568 1.316a5.68 5.68 0 0 1-.972.702zm-7.522-22.552a1.97 1.97 0 0 1 .677-.542c.263-.128.552-.197.845-.199.586 0 1.164.145 1.68.423.153.087.315.154.484.202.278.056.584-.019.834.113.332.176.395.624.366.998s-.098.784.1 1.105a2.87 2.87 0 0 1 .192.287.95.95 0 0 1-.018.614 4.96 4.96 0 0 1-.322-.405c-.116-.127-.315-.215-.457-.119s-.142.271-.148.427-.048.345-.197.397c-.06.012-.123.006-.18-.017a.32.32 0 0 1-.142-.112c-.254-.31-.152-.806-.402-1.116-.144-.177-.381-.263-.513-.448-.103-.145-.129-.334-.219-.484s-.302-.273-.444-.161a.6.6 0 0 0-.118.161.68.68 0 0 1-.806.242c-.11-.066-.227-.116-.35-.15a.43.43 0 0 0-.23.051c-.07.038-.129.095-.169.165a.86.86 0 0 0-.104.461c0 .218.038.456-.088.634a.64.64 0 0 1-.187.161c-.185.118-.438.197-.613.063-.057-.054-.1-.121-.124-.197a.47.47 0 0 1-.013-.232 3.57 3.57 0 0 1 .131-.453c.097-.342-.029-.727.077-1.05a3.33 3.33 0 0 1 .458-.818z"/></g><path d="M149.393 84.437c-.017.081-.009.165.024.24.033.052.078.095.13.126a2.71 2.71 0 0 0 1.233.398c.056.002.111.017.161.044.046.043.078.099.091.16a.31.31 0 0 1-.018.183c-.051.115-.077.239-.078.365.032.231.305.335.537.365.323.066.659.001.934-.181a1.45 1.45 0 0 0 .386-.579c.634-1.452.856-3.065 1.498-4.516.05-.094.082-.196.097-.302.007-.053-.001-.107-.022-.156s-.055-.092-.097-.123c-.12-.074-.305-.032-.386-.147-.04-.06-.035-.139-.071-.2-.074-.132-.268-.116-.402-.187-.103-.056-.175-.161-.29-.192-.057-.003-.114.007-.167.03s-.099.057-.136.101c-.376.352-.574.85-.784 1.321-.323.722-.701 1.418-1.129 2.082.05-.078-.239-.666-.352-.689-.196-.04-.451.306-.558.437-.331.407-.539.899-.601 1.419z" class="F"/><path d="M163.298 86.502h-12.586v12.586h12.586V86.502z" fill="#fff"/><path d="M163.196 93.434c-.216.191-.416.401-.597.626a1.25 1.25 0 0 0-.274.806c.001.085.028.167.078.236.025.034.06.058.101.071s.083.012.123-.001c.044-.024.081-.058.11-.098.116-.141.24-.276.371-.403.048-.047.109-.097.174-.079.029.01.055.027.076.05.076.064.132.148.161.244.008.086-.003.173-.032.254a.58.58 0 0 1-.139.215 1.22 1.22 0 0 0-.289.427.18.18 0 0 0 0 .137c.022.032.051.057.086.074a1.24 1.24 0 0 0 .514.149c.18.012.361-.016.529-.081.224-.089.418-.243.645-.323.099-.026.195-.062.286-.106.065-.043.121-.098.165-.163s.073-.138.088-.214c.029-.154.035-.311.018-.466-.029-.604-.16-1.198-.389-1.758a.21.21 0 0 0-.063-.094.22.22 0 0 0-.106-.031c-.282-.029-.747-.174-1.02-.069a.7.7 0 0 0-.24.215c-.063.056-.376.31-.376.384z" class="G"/><path d="M163.1 93.184c0-.271-.336-.921.195-.968 0-.287-.408-.468-.334-.771.026-.103.108-.186.121-.289.034-.295-.499-.455-.412-.739.033-.108.15-.174.176-.284.06-.255-.396-.369-.405-.631 0-.089.049-.173.046-.26 0-.111-.097-.195-.15-.29-.137-.247-.071-.629-.323-.755.161.013.224-.234.153-.386s-.209-.282-.209-.45a.72.72 0 0 0 0-.185c-.047-.161-.312-.173-.355-.334-.004-.061-.004-.122 0-.182-.016-.126-.145-.203-.266-.24a1.06 1.06 0 0 1-.355-.126c-.078-.06-.162-.161-.25-.105-.031.018-.047.053-.071.081-.099.115-.287.065-.413-.021-.37-.25-.552-.7-.632-1.139s-.076-.892-.173-1.327c-.03-.135-.07-.267-.118-.397-.076-.125-.139-.258-.187-.397-.019-.253.507-.081.707-.055a3.15 3.15 0 0 1 .574.108 6.08 6.08 0 0 1 .585.256c.807.353 1.762.397 2.404.989.211.195.388.45.661.537.125.025.249.058.371.097.305.144.352.547.518.839a1.85 1.85 0 0 1 .137.242c.031.1.046.205.043.31l.023.766-.061 3.845c-.046.419-.108.853.014 1.258l.107.323a2.22 2.22 0 0 1 .042.398l.017.495a.16.16 0 0 1-.024.114c-.018.015-.04.026-.063.031s-.047.006-.071.001c-.692-.061-1.389-.452-2.042-.216" class="D"/><path d="M150.238 91.163c-.031.015-.057.037-.078.064a.55.55 0 0 0 0 .655.21.21 0 0 1 .039.065c.005.038-.002.076-.019.11a.36.36 0 0 0 .05.406c.05.042.117.063.15.118.056.094-.023.213-.01.323.016.144.186.215.323.232a.34.34 0 0 0 .314-.084.26.26 0 0 0 0-.285c-.056-.084-.128-.157-.213-.213.078-.004.152-.036.208-.09a.32.32 0 0 0 .097-.205c.006-.077-.008-.154-.04-.225a.46.46 0 0 0-.144-.177c-.029-.024-.064-.048-.072-.087s.03-.092.066-.129c.161-.161.285-.556-.018-.645a.75.75 0 0 0-.323.014c-.077.024-.077.071-.137.103s-.126.016-.193.05z" class="G"/><g class="B"><path d="M153.407 80.022c-.079.002-.157.021-.228.057s-.133.087-.181.15a1.16 1.16 0 0 0-.171.548c-.099.621-.318 1.216-.646 1.752m1.791-2.065a.62.62 0 0 0-.311.09.63.63 0 0 0-.225.233 1.81 1.81 0 0 0-.135.547c-.095.416-.278.808-.537 1.147" class="C"/></g><use xlink:href="#C" class="K"/><use xlink:href="#C" class="B E"/><use xlink:href="#D" class="G"/><use xlink:href="#D" class="B E"/><g class="I"><path d="M52.345 114.224c-.632.385-1.419.408-2.155.322-.118-.014-.258-.024-.334.068-.11.132.019.323.153.435a3.2 3.2 0 0 0 1.481.608 9.93 9.93 0 0 0 1.452.097c1.321.023 2.648.044 3.957-.147a.53.53 0 0 0 .216-.062c.083-.06.14-.149.161-.249a.99.99 0 0 0-.044-.518c-.061-.165-.165-.312-.301-.424a2.92 2.92 0 0 0-.923-.495l-1.148-.447c-.269-.105-.703-.384-.995-.361-.542.035-1.063.905-1.519 1.173z"/><path d="M55.231 116.922c-.529.474-1.217.731-1.928.719-.181 0-.432.034-.432.215.003.054.021.106.052.15.225.374.58.652.997.781.394.093.801.119 1.203.075l1.177-.061.668-.05.692-.108c.568-.08 1.142-.107 1.714-.081a.5.5 0 0 0 .224-.007c.073-.02.141-.056.198-.105.105-.133.044-.323.01-.484-.071-.341 0-.699-.066-1.042-.113-.6-.629-1.062-1.202-1.279-.529-.202-1.468-.433-1.969-.097-.539.356-.863.943-1.339 1.374z"/></g><use xlink:href="#E" class="D"/><use xlink:href="#E" class="B E"/><path d="M56.399 96.786c.103.493.582.871.595 1.376.011.403-.276.742-.484 1.089a7.3 7.3 0 0 0-.494 1.12 17.09 17.09 0 0 1-1.452 2.882c-.276.439-.586.915-.521 1.429a2.12 2.12 0 0 0 .25.683l.829 1.646a4.72 4.72 0 0 1 .423 1.041c.073.313.079.645.121.955.131 1.009.603 2.026.323 3.005-.024.083-.113.185-.179.127.274.511.495 1.027.473 1.613-.01.305-.103.621.01.905.063.106.106.223.126.345 0 .082-.039.161-.047.244-.023.232.19.427.413.501s.465.07.689.136c.432.129.739.5 1.11.758a2.33 2.33 0 0 0 1.273.414.32.32 0 0 0 .187-.037c.033-.028.059-.063.077-.102s.028-.082.028-.125a1.26 1.26 0 0 0-.091-.606c-.08-.192-.205-.361-.365-.493-.067-.045-.123-.106-.161-.177a.43.43 0 0 1-.016-.198c.068-.906.052-1.816-.048-2.718a4.2 4.2 0 0 1-.042-.865 3.53 3.53 0 0 0 .069-.721c-.051-.236-.125-.467-.221-.689-.127-.411-.092-.853-.105-1.29a11.31 11.31 0 0 0-.364-2.208 1.68 1.68 0 0 0-.344-.797c-.173-.181-.452-.351-.386-.592a.68.68 0 0 1 .161-.235.95.95 0 0 0 .173-.34c.034-.124.043-.254.025-.381.073.018.149.011.217-.021s.122-.086.154-.154c1.371-.678 2.419-1.869 2.916-3.316a1.08 1.08 0 0 1 .131-.295c.124-.174.342-.25.534-.347.603-.303 1.019-.872 1.402-1.429.241-.311.424-.662.542-1.037.052-.246.077-.497.074-.749l.034-1.29a.74.74 0 0 0-.024-.253c-.033-.077-.081-.147-.14-.206-.368-.388-.851-.648-1.377-.742-.353-.063-.715-.052-1.073-.081-.694-.058-1.379-.273-2.074-.223-1.09.081-2.061.837-2.581 1.802-.19.345-.381.636-.768.647z" class="D"/><use xlink:href="#F" class="H"/><use xlink:href="#F" class="B E"/><use xlink:href="#G" class="D"/><use xlink:href="#G" class="B E"/><path d="M16.231 92.615a1.15 1.15 0 0 0-.568-.179 1.15 1.15 0 0 0-.618.306c-.215.166-.42.346-.613.539a3.28 3.28 0 0 0-.732 3.244c.195.579.548 1.09.897 1.59l.71 1.019 3.3 4.628c.001.036.013.071.035.1s.053.05.087.061c.042.012.092.01.118.044.011.021.016.045.014.069a1.06 1.06 0 0 1-.063.323.15.15 0 0 0-.013.111c.035.086.192.037.24.118.034.051 0 .121-.052.161s-.097.095-.089.161.116.128.111.208c0 .046-.039.079-.066.115-.039.056-.056.125-.05.193s.037.131.085.18c.074.742-.323 1.443-.408 2.185-.127 1.166.4 2.305.464 3.476a.93.93 0 0 0 .073.384c.11.202.39.323.381.553a2.11 2.11 0 0 1-.079.279 2.25 2.25 0 0 0 .042.399c0 .133-.113.293-.237.242l.248.937 2.484.205c.026-.224.019-.45-.023-.671-.052-.239-.161-.463-.216-.702a.83.83 0 0 1-.03-.362c.017-.121.061-.237.128-.34-.065.001-.128-.021-.179-.062s-.084-.099-.096-.164a1.1 1.1 0 0 1 0-.385c.066-.645-.206-1.29-.198-1.936.008-.513.187-1.004.279-1.508.194-1.077-.008-2.247.471-3.226.29-.593.692-1.251.366-1.826-.161-.283-.444-.483-.627-.745a3.02 3.02 0 0 1-.337-.806c-.384-1.187-1.002-2.282-1.545-3.407-.15-.282-.262-.583-.332-.895-.038-.273-.052-.55-.04-.826a12.69 12.69 0 0 0-.092-1.484 1.39 1.39 0 0 0-.181-.615c-.105-.141-.237-.261-.387-.353-.815-.555-1.786-.876-2.665-1.339z" class="D"/><path d="M19.207 117.45c.238.082.491.112.742.088.019-.205.294-.25.498-.24a.58.58 0 0 1 .286.066c.052.032.09.081.142.115a.6.6 0 0 0 .29.074l1.066.09c.476.04.968.077 1.418-.093.089-.027.167-.08.226-.152.121-.173 0-.421-.161-.547s-.382-.184-.552-.313c-.369-.282-.421-.806-.618-1.232a3.56 3.56 0 0 0-.51-.74 2.83 2.83 0 0 0-.503-.517c-.429-.309-.921-.303-1.423-.346-.357-.033-.69-.054-.944.261-.323.39-.19 1.177-.171 1.644a11.99 11.99 0 0 0 .213 1.842z" class="H"/><path d="M45.261 98.741H32.675v12.586h12.586V98.741z" fill="#fff"/><g class="G"><path d="M30.214 88.315a2.46 2.46 0 0 0 2.46-2.46 2.46 2.46 0 0 0-2.46-2.46 2.46 2.46 0 0 0-2.46 2.46 2.46 2.46 0 0 0 2.46 2.46z"/><path d="M27.895 86.584c-.353.305-.858.323-1.321.374-.989.101-1.952.379-2.842.823-.121.053-.231.13-.323.226a.93.93 0 0 0-.161.352c-.084.277-.116.567-.093.855a2.46 2.46 0 0 0 .237.806 4.33 4.33 0 0 0 1.526 1.739 1.11 1.11 0 0 0 .371.177c.323.068.637-.121.955-.205.291-.075.597-.065.882.029.268.089.55.252.806.144a.84.84 0 0 0 .368-.418 14.2 14.2 0 0 0 .671-1.469 5.55 5.55 0 0 1 .244-.571c.286-.544.779-.968 1.024-1.526.025-.043.04-.091.044-.141s-.003-.1-.021-.146a.4.4 0 0 0-.181-.139c-.363-.208-.694-.468-.982-.771-.161-.161-.46-.574-.692-.611-.255-.034-.334.321-.511.473z"/></g><g class="H"><path d="M27.953 91.582c-.285.137-.621.076-.931.011-.797-.161-1.602-.335-2.339-.681a1.25 1.25 0 0 1-.574-.44c-.091-.171-.146-.359-.161-.552l-.136-.915c-.047-.323.035-.616.042-.939.005-.036.003-.073-.006-.108s-.025-.068-.047-.097c-.045-.037-.103-.055-.161-.05-.369 0-.592.392-.852.655a1.57 1.57 0 0 1-.523.352c-.237.097-.529.161-.624.402-.04.098-.035.211-.076.31-.161.394-.871.263-1.05.645-.052.11-.048.248-.134.335s-.242.084-.371.107c-.513.084-.763.677-1.202.956-.369.236-.845.231-1.242.415-.207.124-.422.232-.645.323-.247.043-.498.056-.748.037-.027-.002-.054.001-.08.009s-.05.022-.07.04c-.015.024-.024.05-.029.078s-.003.056.005.083a4.53 4.53 0 0 0 2.798 3.505.99.99 0 0 1 .239.115c.224.161.263.527.516.645.092.031.191.037.286.017s.182-.066.253-.133c.138-.135.268-.278.389-.429a1.55 1.55 0 0 1 .866-.455c.305-.048.645-.013.892-.2.101-.093.195-.193.281-.3a1.76 1.76 0 0 1 .645-.381 6.45 6.45 0 0 1 2.016-.426c.645-.037 1.314.023 1.926-.189a1.13 1.13 0 0 0 .429-.242 1.29 1.29 0 0 0 .287-.498c.222-.645.268-1.337.131-2.005z"/><path d="M24.782 87.958c.182-.016.364 0 .547 0 .215 0 .426-.052.645-.053a1.59 1.59 0 0 1 1.5 1.142.29.29 0 0 1 .01.161c-.007.026-.024.05-.047.065s-.05.022-.078.019a2.72 2.72 0 0 0-.276-.553c-.205-.277-.495-.479-.826-.574s-.679-.106-1.016-.037a4.67 4.67 0 0 0-.413.102l-.669.181-.36.11c-.09.032-.247.161-.335.161-.121 0-.023-.105.031-.176a.86.86 0 0 1 .429-.311 3.61 3.61 0 0 1 .858-.236z"/></g><path d="M26.44 95.347l.518 1.516c.357.861.807 1.681 1.342 2.445a17.53 17.53 0 0 0 1.108 1.452c.494.582 1.045 1.168 1.219 1.912.102.429.068.879.11 1.317s.186.905.54 1.168c.269.167.575.267.89.294.223.035.502.046.618-.147a.55.55 0 0 0 .061-.255l.053-.645c.013-.139.061-.323.2-.323s.21.179.323.262a.36.36 0 0 0 .136.04c.048.004.095-.001.141-.016s.087-.04.123-.072.064-.07.084-.114c.071-.18.076-.381.013-.564a2.68 2.68 0 0 0-.504-1c-.237-.294-.533-.535-.869-.707-.234-.096-.459-.213-.671-.35a2.25 2.25 0 0 1-.527-.664c-1.221-2.008-2.447-4.033-3.307-6.212-.17-.39-.284-.802-.34-1.224-.018-.431 0-.862.053-1.29.052-.775-.018-1.553-.208-2.307a1.81 1.81 0 0 0-.221-.56c-.353-.539-1.187-.618-1.713-.247-.194.149-.354.337-.471.551s-.189.451-.21.694c-.039.434.213.887.34 1.29l1.168 3.755z" class="G"/><path d="M33.793 84.116c.019-.205-.161-.39-.373-.521a5.2 5.2 0 0 1-.632-.387c-.187-.161-.289-.373-.476-.534a2.1 2.1 0 0 0-.71-.353c-.546-.192-1.118-.295-1.697-.305-.571-.015-1.135.134-1.624.429-.108.067-.202.154-.276.257a1.13 1.13 0 0 0-.134.408 8.06 8.06 0 0 1-.424 1.29c-.182.465-.377.945-.806 1.303-.46.384-1.165.605-1.468 1.068-.033.041-.056.09-.068.141s-.011.105.002.157c.044.116.184.195.311.269.747.429 1.39.984 1.723 1.648a1.91 1.91 0 0 1-.152 2.057c-.173.226-.411.494-.242.721.257.345 1.142.148 1.345.513a.73.73 0 0 1 .027.377c0 .382.369.724.818.9a4.56 4.56 0 0 0 1.471.242 1.27 1.27 0 0 0 .037-.952.38.38 0 0 1-.037-.216.52.52 0 0 1 .161-.208c.54-.51.426-1.26.102-1.865s-.828-1.16-1.015-1.797c-.093-.323-.095-.673.161-.936.144-.126.299-.24.463-.339a1.76 1.76 0 0 0 .645-.806c.15-.419.127-.924.569-1.202s1.014-.187 1.481-.366c.376-.15.787-.697.816-.995z" class="D"/><g class="K"><path d="M47.586 87.668c1.481 0 2.682-1.201 2.682-2.682s-1.201-2.682-2.682-2.682-2.682 1.201-2.682 2.682 1.201 2.682 2.682 2.682z"/><path d="M50 84.873c.248.395.572.737.955 1.005s.815.455 1.271.552l-.202.732c-.348 1.261-.742 2.597-1.716 3.471.042-.217.04-.44-.007-.656s-.137-.42-.266-.599a4.75 4.75 0 0 0-.91-.952l-1.544-1.344a.42.42 0 0 1-.116-.129c-.038-.094-.038-.199 0-.293.197-.613.758-.995 1.213-1.408.229-.214.434-.453.611-.711.316-.436.514.005.71.332z"/></g><path d="M50.342 88.342c.015.201-.012.402-.079.592-.037.093-.107.169-.196.214s-.191.058-.288.034c.056-.127-.092-.273-.231-.257-.068.015-.132.047-.185.092s-.095.103-.121.167a.97.97 0 0 0-.089.6c.044.255.19.498.152.753-.031.211-.187.423-.103.621a1 1 0 0 0 .2.239c.109.135.162.306.149.479s-.093.334-.221.45l2.097.04c-.077.35.081.708.26 1.018a6.41 6.41 0 0 0 4.778 3.12c-.053.031-.099.074-.133.125s-.058.109-.067.169-.005.123.012.182.047.114.089.159c.171.169.458.148.671.039.202-.13.394-.274.576-.431a1.76 1.76 0 0 1 1.181-.323c.263.024.516.108.779.123.774.042 1.44-.516 2.181-.744.544-.161 1.158-.161 1.613-.507.197-.145.358-.384.3-.623-.048-.136-.125-.261-.226-.365-.263-.34-.416-.748-.605-1.129a6.74 6.74 0 0 0-1.511-2.023c-.472-.414-.972-.794-1.497-1.137-.128-.094-.264-.175-.407-.243-.19-.062-.376-.137-.555-.226-.247-.161-.387-.427-.576-.645-.415-.484-1.052-.705-1.563-1.086-.342-.255-.645-.59-1.053-.715-.198-.06-.411-.064-.61-.124-.452-.137-.781-.539-1.224-.7-.35-.129-.737-.095-1.108-.142a2.58 2.58 0 0 1-1.139-.431c-.111-.091-.235-.164-.368-.216-.56-.161-.605.874-.658 1.236-.084.528-.223 1.068-.223 1.611z" class="I"/><path d="M50.889 91.844c.093 1.018-.676 2.005-.452 3.003.048.213.139.415.173.629.094.592-.26 1.152-.597 1.647l-2.903 4.249c-.115.187-.254.359-.413.511-.555.492-1.384.44-2.111.589-.511.104-.994.317-1.415.625-.019.015-.031.036-.034.06s.003.047.016.066a1.21 1.21 0 0 0 .463.381 1.22 1.22 0 0 0 .589.113c.076.1 0 .248-.105.322-.161.108-.369.137-.4.4a.45.45 0 0 0 .052.267c.117.178.3.304.508.351 1.002.307 2.084-.232 2.834-.968s1.29-1.656 2.026-2.403c.408-.413.871-.766 1.29-1.166.837-.807 1.489-1.774 2.118-2.742a3.05 3.05 0 0 0 .458-.934c.077-.331.042-.682.132-1.01.116-.431.431-.774.694-1.129.514-.708.856-1.573.789-2.445s-.608-1.731-1.429-2.028a1.28 1.28 0 0 0-.806-.048c-.337.103-.585.382-.816.645l-.55.635a1.51 1.51 0 0 0-.322.484.51.51 0 0 0 .113.54" class="K"/><path d="M52.354 87.661c-.381.023-.806.06-1.069.323-.112.125-.203.268-.268.423-.261.531-.516 1.087-.534 1.679-.016.473.121.936.194 1.403.06.389-.092.785-.121 1.179a8.05 8.05 0 0 0 1.523-.586c.281-.183.58-.338.892-.463.453-.152 1.218.108 1.647.323.024-.303-.203-.831-.179-1.129.003-.128.026-.255.068-.376a2.24 2.24 0 0 1 .227-.363c.165-.267.241-.58.217-.894s-.147-.611-.351-.85c-.382-.431-.982-.592-1.555-.66-.361-.041-.724-.054-1.087-.037" class="I"/><path d="M44.052 82.289l-.061-.505c.424.108.826-.25 1.097-.623s.521-.806.932-.968c.502-.189 1.032.113 1.511.361.535.302 1.124.497 1.734.574a1.23 1.23 0 0 1 .287.047c.311.111.46.502.505.856s.032.732.185 1.048c.118.239.323.418.439.645.323.634.011 1.502.358 2.124l-.86-.787c-.079-.073-.19-.148-.276-.087s-.074.161-.103.237a.45.45 0 0 1-.258.242.45.45 0 0 1-.353-.019c-.217-.124-.404-.295-.547-.5a3.34 3.34 0 0 0-1.364-1.034c-.233-.09-.482-.129-.731-.114s-.492.083-.712.2c-.402.227-.695.755-1.187.773-.674.026-.955-1.229-1.266-1.724a.61.61 0 0 0 .177-.761c.047-.016.484-.063.493.014z" class="D"/><g class="F"><path d="M104.734 50.368a2.95 2.95 0 0 1-.842.231c.306-.182.535-.469.646-.806a2.96 2.96 0 0 1-.933.356 1.46 1.46 0 0 0-.748-.431 1.47 1.47 0 0 0-.862.066 1.46 1.46 0 0 0-.927 1.367 1.45 1.45 0 0 0 .037.335c-.583-.029-1.154-.181-1.675-.445a4.14 4.14 0 0 1-1.347-1.09 1.47 1.47 0 0 0 .455 1.962 1.43 1.43 0 0 1-.666-.184v.018a1.47 1.47 0 0 0 1.177 1.44 1.53 1.53 0 0 1-.387.052 1.42 1.42 0 0 1-.276-.027c.094.291.277.546.523.729a1.47 1.47 0 0 0 .848.291 2.94 2.94 0 0 1-1.823.629 3.15 3.15 0 0 1-.35-.021 4.11 4.11 0 0 0 2.245.663c2.702 0 4.178-2.237 4.178-4.179v-.189a2.98 2.98 0 0 0 .727-.765zm-5.33 31.58l.484 1.215 3.159 3.35 1.058-.997.667.705.704-.666.041-1.369.88-.832.071-2.398-2.827-2.997-4.237 3.99zm6.371-.671l-.041 1.371-1.058.997-.04 1.371-.664-.705-.883.832-2.834-2.999 3.35-3.16 2.17 2.292zm-2.573-.6l.529-.498 1.342 1.421-.529.497-1.342-1.419zm-1.234 1.165l.529-.5 1.341 1.423-.529.498-1.341-1.421zM40.934 101.13H35.76c-.086 0-.168.034-.228.094s-.094.143-.094.228v5.176a.32.32 0 0 0 .323.323h2.581v-2.305h-.695v-.849h.708v-.627c0-.75.521-1.16 1.192-1.16l.747.036v.784h-.534c-.364 0-.436.172-.436.427v.54h.869l-.113.849h-.758v2.303h1.613c.085 0 .168-.034.228-.094s.095-.143.095-.228v-5.175c0-.085-.034-.167-.095-.228s-.143-.094-.228-.094zm45.24-36.937c.321.001.629.129.856.356s.355.535.356.856v2.419c-.001.321-.129.629-.356.856s-.535.355-.856.356h-2.419c-.321-.001-.629-.128-.856-.355a1.2 1.2 0 0 1-.356-.857v-2.419c.001-.321.129-.629.356-.856a1.21 1.21 0 0 1 .857-.355h2.419zm0-.484h-2.419a1.7 1.7 0 0 0-1.697 1.697v2.419a1.7 1.7 0 0 0 1.697 1.697h2.419a1.7 1.7 0 0 0 1.697-1.69v-2.419a1.7 1.7 0 0 0-.497-1.202c-.318-.319-.75-.499-1.2-.501z"/><path d="M86.537 65.407c-.072 0-.143-.021-.203-.061a.37.37 0 0 1-.135-.163c-.028-.066-.035-.14-.021-.211s.049-.136.1-.187.116-.086.187-.1.144-.007.211.021a.36.36 0 0 1 .163.135c.039.06.061.131.061.203a.36.36 0 0 1-.363.363zm-1.569.237a.97.97 0 0 1 .684 1.652.97.97 0 0 1-1.652-.684.97.97 0 0 1 .968-.968zm0-.484a1.45 1.45 0 0 0-1.026 2.478 1.45 1.45 0 0 0 2.478-1.026 1.45 1.45 0 0 0-1.452-1.452zm76.081 25.95c0-.681-.501-1.229-1.129-1.229l-2.569-.055h-.273l-2.569.055c-.618 0-1.12.55-1.12 1.232l-.053 1.613.052 1.613c0 .682.502 1.236 1.119 1.236l2.705.058 2.707-.058c.619 0 1.129-.553 1.129-1.236l.051-1.621-.05-1.613v.005zm-4.569 3.108V91.24l2.197 1.487-2.197 1.49zM80.935 34.03a3.39 3.39 0 0 0-3.346 2.692 3.39 3.39 0 0 0 1.984 3.809 3.04 3.04 0 0 1 .058-.779l.437-1.85a1.29 1.29 0 0 1-.11-.535c0-.503.292-.879.655-.879.31 0 .458.232.458.51 0 .31-.198.774-.3 1.203-.02.08-.022.163-.004.243a.53.53 0 0 0 .106.219.51.51 0 0 0 .194.147.53.53 0 0 0 .239.044c.645 0 1.076-.826 1.076-1.805 0-.744-.502-1.298-1.411-1.298-.218-.008-.435.028-.638.107s-.388.197-.545.349a1.61 1.61 0 0 0-.364.534 1.62 1.62 0 0 0-.125.634.97.97 0 0 0 .224.666.16.16 0 0 1 .056.086c.009.034.006.07-.008.102l-.069.273a.12.12 0 0 1-.021.051c-.011.015-.025.027-.042.036s-.035.013-.054.012-.037-.005-.054-.013c-.474-.194-.695-.713-.695-1.29 0-.968.806-2.12 2.419-2.12 1.29 0 2.148.937 2.148 1.944 0 1.331-.74 2.326-1.832 2.326a.97.97 0 0 1-.828-.423l-.24.932c-.078.258-.192.503-.34.727a3.44 3.44 0 0 0 .968.139 3.4 3.4 0 0 0 2.402-.994c.637-.636.995-1.501.995-2.402a3.4 3.4 0 0 0-.994-2.402c-.636-.637-1.501-.995-2.402-.995z"/></g><path d="M116.457 127.989l-.209-1.038c.011-.365-.072-.728-.241-1.053v-.151-1.113c.077-.202.171-.397.281-.583.2-.348 0-1.629 0-1.629s-.742-1.805-.563-2.95-1.522-5.085-1.522-5.085c.01-.382.064-.761.161-1.13.018-.077.025-.156.021-.235a.14.14 0 0 0 0-.029v.01c-.026-.755-.623-2.171-.623-2.171l.081-2.697s.381-1.592-.24-3.728l-.446-1.802-.027-.15 2.258-.358s-.742-3.105-1.244-3.648-.901-2.25-.901-2.25-.261-2.194.161-2.834.484-1.747.484-1.747.968-.698 1.082-1.01a5.1 5.1 0 0 0 .323-1.377c0-.369-.121-.698-.081-.894s-.28-.931-.119-1.281a.95.95 0 0 0 .063-.337 4.83 4.83 0 0 0-.086-.921c-.277-.235-.602-.409-.951-.51l-.021-.082-.055-.218a.73.73 0 0 0-.095-.056v-.081-.323l.15-.71c.296-1.231-1.349-1.414-1.349-1.414-.099-.189-.265-.335-.466-.41-.322-.116-.055 1.855.1 1.981.116.094.484.713.645 1.016l.029.05c-.027.024-.052.051-.075.079l.062.427.01.066c-.109.135-.198.286-.263.447 0 0 .302.331.241.7-.024.288.01.578.1.853-.018-.021-.23-.25-.441-.194l-.806.232s-.442.077-.402.174-.3.524-.3.524l-1.185-1.129-.036-.102a2.85 2.85 0 0 1-.102-.484 2.64 2.64 0 0 0 .378-.121.81.81 0 0 0 .322-.21c.1-.155.165-.329.191-.511.093-.345.295-.653.44-.981a3.18 3.18 0 0 0 .229-1.75c-.018-.184-.08-.361-.18-.516-.194-.266-.546-.374-.807-.587s-.419-.535-.718-.695c-.283-.124-.599-.151-.9-.077a4.81 4.81 0 0 0-1.679.61c-.174.103-.363.221-.563.186-.164-.05-.307-.155-.405-.297l-.014-.032a2.12 2.12 0 0 0-.184.887v.142.048c.001.014.001.028 0 .042a.27.27 0 0 1-.01.063.46.46 0 0 1-.109.161.68.68 0 0 0-.097.132c0-.016.01-.032.016-.048a.7.7 0 0 0-.124.373.37.37 0 0 0 .09.268 1.32 1.32 0 0 0 .192.161c-.023.13-.034.262-.034.394a2.29 2.29 0 0 0 1.116 1.957l.041.102c.171.407.245.849.214 1.29 0 .032 0 .063-.014.095l-.042.048s-1.958.019-2.42-.398-1.163 1.019-1.163 1.019-.701.137-.842 0-.967-.019-.967-.019c-.337-.298-.774-.457-1.223-.445-.274-.209-.577-.377-.898-.5l-.022-.008c-.141-.051-.292-.07-.442-.055 0 0-.968-.797-1.242-1.223s-1.613-2.011-1.624-2.019v-.076l-.016-.231a.9.9 0 0 1-.119.011c0-.024-.016-.05-.027-.081-.077-.222-.172-.438-.284-.645 0 0 0-.29.085-.363s-.035-1.14-.035-1.14-.868-2.027-1.644-.514c0 0-1.469.979-.237 2.121 0 0 .484.237.561.426.047.123.213.466.323.694l.05.102-.014.011.019.19v.074c-.232.131-.389.261-.352.361a2.12 2.12 0 0 1 .14.524s1.705 2.134 1.926 3.047c0 0 4.571 2.716 6.074 2.911l-.26 1.358a10.49 10.49 0 0 0-.059 1.107c.019.29-.181 1.613-.181 1.613s-.261 1.935-.484 2.211-.181 1.437-.181 1.437a9.61 9.61 0 0 1-.3 1.648c-.221.739-.059 1.65-.059 1.65s-.763 1.747 1.063.563l1.935-.09v.103.428l.026 3.422c.081 1.844.645 5.484.645 5.484v1.833a2.56 2.56 0 0 0-.051.524 3.39 3.39 0 0 0 .493 1.835l.141 1.223s.322.807.335 1.29c-.001.04-.006.078-.014.117-.013.061-.018.124-.017.187-.017.555.323 1.884.323 1.884s.021 1.338.221 1.416c.171.066-.229.772-.348.968-.004-.013-.007-.026-.009-.039l-.024.04c-.041.108-.063.223-.063.339-.011.091.003.184.043.268s.102.154.18.203c.381.234.585.427.263.505-.119.018-.237.043-.353.074 0-.015-.013-.031-.018-.045a.22.22 0 0 0-.1.091c-.023.041-.032.087-.026.133.004.159.045.314.121.453.141.35.323.683.542.991l.161-.018a.73.73 0 0 1-.09.161.62.62 0 0 1-.226.2.72.72 0 0 1-.274.095.76.76 0 0 0-.314.077c-.098.047-.184.115-.254.199-.2.258-.322.611.07.921l1.433.494s2.467.322 2.336-.233l-.21-1.037a2.19 2.19 0 0 0-.201-.982 1.01 1.01 0 0 0-.087-.145l.087-.01s.18-1.222.421-1.451c.056-.054.069-.096.055-.128.025-.066-.038-.105-.118-.127l-.018.048c-.078-.016-.158-.025-.239-.026 0 0-.08-.645.179-.874.022-.026.037-.057.046-.09s.011-.067.006-.1c.001-.088-.008-.176-.027-.262l-.01.017c-.148-.518-.341-1.021-.576-1.505 0 0-.019-.583.14-.817s-.019-3.163-.019-3.163.06-1.416-.121-2.075.221-1.438.221-1.438v-.042-.009l-.024-.224v.014l-.173-1.368c-.08-.446.02-2.58.02-2.58l.361-.912.645 1.571.681 2.097c.194.26.314.568.347.89v.067a.82.82 0 0 0 0 .14c-.012.265.061.526.208.747 0 0 .18.99.461 1.242s.281.737.281.737.34 1.437.501 1.689c.136.213.142.796.141.967v.054l.045.945v.161-.011a1.57 1.57 0 0 1-.042.348v.021-.072c-.072.292-.107.593-.103.895-.01.516.069 1.129.382 1.485.542.621.882.544.882.544s-.261.776-.582.932a.24.24 0 0 0-.034.021c0-.014 0-.03-.008-.045a.37.37 0 0 0-.077.135.39.39 0 0 0-.017.155 2.08 2.08 0 0 0 .397 1.15.64.64 0 0 0 .271.162l-.05.03c-.036.02-.073.038-.111.054a.53.53 0 0 1-.161.041c-.109.003-.216.03-.314.077a.77.77 0 0 0-.254.199c-.2.258-.323.612.069.921l1.434.494s2.436.329 2.311-.232z" fill="url(#A)"/><g fill="#2d293d"><path d="M107.038 128.905l-1.389-.494c-.382-.309-.26-.663-.066-.921.066-.083.149-.15.244-.198a.73.73 0 0 1 .304-.078c.095-.012.185-.045.266-.095a.63.63 0 0 0 .22-.2 1.02 1.02 0 0 0 .161-.537s1.524-.445 1.936 0a1.14 1.14 0 0 1 .185.271c.137.309.203.645.194.982l.203 1.038c.126.553-2.258.232-2.258.232zm6.792-.678l-1.387-.493c-.384-.31-.262-.663-.068-.92.066-.083.149-.151.244-.199s.2-.075.306-.078a.5.5 0 0 0 .161-.042.82.82 0 0 0 .107-.053c.389-.213.379-.737.379-.737s1.522-.447 1.935 0a1.09 1.09 0 0 1 .146.198c.163.327.244.689.233 1.055l.204 1.037c.126.553-2.26.232-2.26.232z"/></g><g class="B"><path d="M108.715 126.382c.075.081.137.172.186.271l-2.284.265c.103-.161.158-.347.161-.538 0 0 1.521-.443 1.937.002zm6.939-.485v.427c-.355.586-2.072.458-2.571.161.037-.015.072-.033.107-.053.388-.213.379-.737.379-.737s1.522-.447 1.935 0a1.06 1.06 0 0 1 .15.202z" class="C"/></g><path d="M115.927 124.053c-.107.186-.198.381-.273.582v1.534c-.387.645-2.406.428-2.677.078s-.563-1.262-.253-1.417.562-.932.562-.932-.322.078-.853-.543-.368-1.999-.271-2.33 0-1.435 0-1.435.02-.776-.135-1.029-.484-1.689-.484-1.689 0-.484-.271-.737-.447-1.242-.447-1.242c-.159-.247-.227-.542-.194-.834.059-.484-.33-1.01-.33-1.01l-.66-2.096-.621-1.573-.348.911-.02 2.581a33.27 33.27 0 0 1 .194 1.629s-.389.777-.213 1.437.116 2.076.116 2.076.174 2.931.02 3.165-.136.806-.136.806.795 1.708.542 1.936-.174.874-.174.874.543 0 .311.232-.408 1.452-.408 1.452l-2.35.297a4.98 4.98 0 0 1-.526-.991c-.31-.717.058-.645.371-.717s.115-.271-.255-.505-.161-.757-.161-.757.563-.951.369-1.029-.214-1.416-.214-1.416-.387-1.592-.291-2.018-.311-1.452-.311-1.452l-.135-1.222a3.36 3.36 0 0 1-.42-2.313v-1.889l-.622-5.484-.02-3.799.02-.937 8.387-.872a7.05 7.05 0 0 0 .153 1.245l.429 1.802c.602 2.134.234 3.726.234 3.726l-.077 2.696s.737 1.805.582 2.42c-.096.369-.15.748-.161 1.129 0 0 1.65 3.94 1.476 5.086s.545 2.942.545 2.942.193 1.29 0 1.632z" class="D"/><g class="B"><path d="M111.133 113.943l2.545-.34s-1.438 1.474-2.545.34z" class="E"/><path d="M113.315 111.109s.089.902-.464 1.242c0 0 .989-.155.464-1.242zm-.156-2.873s-2.132 1.757-2.903 1.613 2.903-1.613 2.903-1.613zm-5.191 6.531s-1.613.37-1.667 1.02 1.667-1.02 1.667-1.02z" class="C"/><path d="M108.325 122.859s-2.289.428-1.639.72c.558.22 1.132.395 1.718.522 0 0 .737.039-.079-1.242z" class="E"/><g class="E"><path d="M106.223 124.034c-.057-.036-.106-.085-.143-.143a.44.44 0 0 1-.066-.19l-.023.042s-.215.523.161.757l.12.079.211-.04c.306-.071.11-.267-.26-.505zm2.95-.149c.063-.058.06-.208.023-.4-.094.173-.139.367-.131.563.023-.062.06-.117.108-.163zm-.353-9.655a2.68 2.68 0 0 0-.161.713c.044-.166.103-.328.177-.484 0 0 .003-.093-.016-.229zm5.244-1.019c.015-.07.022-.142.021-.213l-.063.398.042-.185z" class="E"/><path d="M108.765 121.13c.045-.139.065-.284.058-.43-.072.172-.11.356-.111.543.013-.039.031-.077.053-.113zm.481 3.659c-.12.389-.209.788-.266 1.191l-2.347.273c-.213-.309-.389-.641-.526-.99-.025-.056-.047-.113-.066-.171-.14.064-.197.209-.011.645.136.349.312.681.525.989l2.346-.273s.175-1.223.408-1.452c.114-.124.042-.182-.063-.212zm-3.1-3.486s.019 1.34.213 1.418c.098-.221.161-.431.075-.466-.193-.078-.212-1.417-.212-1.417s-.389-1.592-.291-2.019-.311-1.452-.311-1.452l-.136-1.222a3.37 3.37 0 0 1-.427-2.31v-1.886l-.621-5.492-.019-3.798v-.484h-.066l-.02.937.02 3.798c.077 1.844.621 5.493.621 5.493v1.882a3.35 3.35 0 0 0 .437 2.329l.135 1.223s.408 1.027.31 1.451.292 2.015.292 2.015zm6.908 4.426c-.191-.276-.317-.591-.371-.923-.24.216.036 1.057.294 1.389s2.29.563 2.679-.079v-.369c-.526.521-2.344.313-2.602-.018zm2.95-2.194c-.106.187-.197.381-.271.583v.272l.194-.389c.062-.153.091-.318.085-.483l-.008.017zm-2.831.307a3.57 3.57 0 0 0 .192-.462s-.322.078-.854-.543c-.381-.452-.402-1.305-.349-1.863-.097.331-.253 1.708.271 2.329.344.408.6.513.74.539zm-1.011-4.304a10.52 10.52 0 0 1 .039 1.15l.039-.18c.098-.323 0-1.436 0-1.436s.019-.777-.136-1.029-.484-1.689-.484-1.689 0-.484-.271-.737-.447-1.242-.447-1.242c-.159-.247-.228-.542-.195-.834.06-.484-.322-1.009-.322-1.009l-.66-2.097-.629-1.563-.35.911-.011.295.283-.74.621 1.571.66 2.097s.387.524.323 1.008a1.28 1.28 0 0 0 .201.826s.175.989.446 1.242.272.737.272.737.323 1.435.484 1.689.137 1.03.137 1.03z" class="E"/></g></g><path d="M113.791 83.831l-.145.71.008.323v.232l-.806.084-.091-.161c-.161-.303-.516-.921-.629-1.016-.15-.126-.416-2.097-.097-1.979.196.075.357.221.452.408 0 0 1.595.168 1.308 1.4z" class="J"/><path d="M113.661 85.087l-.807.084-.09-.161a.71.71 0 0 1 .42-.234c.163-.027.33.004.473.087l.004.224z" class="B C"/><path d="M113.864 85.471l-1.066.248-.023-.161-.061-.427c.058-.078.131-.143.215-.192a.73.73 0 0 1 .272-.095c.096-.013.194-.007.288.018s.182.068.259.127l.053.218.063.264z" fill="#dce6f2"/><path d="M96.567 83.908l-1.139.613-.103-.216-.323-.692c-.068-.189-.544-.427-.544-.427-1.194-1.14.227-2.119.227-2.119.753-1.515 1.592.513 1.592.513s.116 1.069.034 1.14-.082.365-.082.365a4.43 4.43 0 0 1 .276.645l.061.179z" class="J"/><path d="M96.566 83.908l-1.139.613-.103-.216c.161-.134.731-.597.918-.576.09.009.181.009.271 0l.053.179z" class="B C"/><path d="M96.683 84.253l-1.281.631-.026-.276-.018-.189s.742-.637.968-.613c.111.016.224.016.336 0l.014.231.006.216z" fill="#dce6f2"/><path d="M110.686 88.537l-4.542.292c.728-.237 1.016-.698 1.078-1.211a2.95 2.95 0 0 0-.208-1.29 5.66 5.66 0 0 0-.5-1.01s4.269-2.349 3.416-.213a3.33 3.33 0 0 0-.242 1.011 2.85 2.85 0 0 0 .108 1.023 3.05 3.05 0 0 0 .89 1.398z" class="J"/><path d="M109.93 85.103a3.33 3.33 0 0 0-.242 1.011c-.403.337-.844.323-1.41.323-.435 0-.918.106-1.264-.103-.133-.352-.3-.691-.5-1.01 0 0 4.269-2.356 3.416-.221z" class="B C"/><path d="M108.202 86.579a2.31 2.31 0 0 0 2.31-2.31 2.31 2.31 0 0 0-2.31-2.31 2.31 2.31 0 0 0-2.309 2.31 2.31 2.31 0 0 0 2.309 2.31z" class="J"/><g class="B"><path d="M110.686 88.537l-4.542.292c.728-.237 1.016-.698 1.078-1.211.277-.302.835-.519 1.195-.634a1.66 1.66 0 0 1 1.011-.016c.13.035.254.09.368.161a3.05 3.05 0 0 0 .89 1.408zm3.178-3.066l-1.066.248-.023-.161c.114-.157.274-.275.457-.338s.383-.068.569-.013l.063.264zm-17.181-1.218l-1.281.631-.026-.276a9.51 9.51 0 0 1 1.29-.571l.016.216zm16.213 18.359l-5.731.637c-.405-.124-1.698-.111-2.826-.073l.02-.937 8.387-.872c.012.418.063.835.15 1.245z" class="C"/></g><path d="M115.053 102.097l-7.888.989c-.764-.234-4.689.021-4.689.021-1.766 1.182-1.027-.563-1.027-.563s-.161-.913.058-1.65a10.14 10.14 0 0 0 .29-1.65s-.038-1.165.174-1.436.467-2.213.467-2.213l.175-1.613c-.019-.294.058-1.105.058-1.105l.252-1.36c-1.452-.194-5.881-2.911-5.881-2.911-.213-.911-1.863-3.047-1.863-3.047-.024-.18-.069-.356-.135-.524-.116-.31 1.631-.931 1.631-.931l1.571 2.018c.271.426 1.203 1.223 1.203 1.223a.94.94 0 0 1 .427.056h.023c.312.123.604.291.868.498a1.68 1.68 0 0 1 1.183.447s.797-.116.933.019.806 0 .806 0 .681-1.436 1.129-1.019 2.341.398 2.341.398c.253-.335.866-.576 1.251-.7.328-.11.681-.116 1.012-.016.144.04.279.106.4.194l1.148 1.129s.323-.427.292-.524.389-.174.389-.174l.776-.234c.213-.06.409.174.425.194a2.26 2.26 0 0 1-.096-.853.97.97 0 0 0-.233-.698c.686-1.658 2.22-.255 2.22-.255s.174.911.019 1.261.162 1.087.116 1.281.078.524.078.892c-.041.472-.146.935-.31 1.379-.118.31-1.048 1.008-1.048 1.008s-.058 1.106-.466 1.747-.162 2.834-.162 2.834.387 1.708.873 2.258 1.21 3.63 1.21 3.63z" class="I"/><g class="B"><path d="M104.67 89.334s-.213-.645-.408-.7a4.6 4.6 0 0 1-.563-.252l.126-.239s.729.2.845.413 0 .778 0 .778zm-3.895-1.418c-.039.195-1.765.369-1.765.369l.873-.876.022.008a3.44 3.44 0 0 1 .87.498z" class="C"/></g><g fill="#575988"><path d="M95.771 85.408c.086 0 .155-.069.155-.155s-.069-.155-.155-.155-.155.069-.155.155.069.155.155.155zm.199.311c.085 0 .155-.069.155-.155s-.069-.155-.155-.155-.155.069-.155.155.069.155.155.155zm.195.286c.085 0 .155-.069.155-.155s-.069-.155-.155-.155-.155.069-.155.155.069.155.155.155zm.203.311c.086 0 .155-.069.155-.155s-.069-.155-.155-.155-.155.069-.155.155.069.155.155.155zm18.294-.047c.07 0 .126-.056.126-.126s-.056-.126-.126-.126-.126.056-.126.126.057.126.126.126zm.02.288c.069 0 .125-.056.125-.126s-.056-.126-.125-.126-.126.056-.126.126.056.126.126.126zm.016.285c.069 0 .126-.056.126-.126s-.057-.126-.126-.126-.126.056-.126.126.056.126.126.126z"/></g><g class="B"><path d="M104.68 94.592c-.018-.023 4.355 5.502 7.753 2.31 0 0-5.368.727-7.753-2.31zm-2.513 2.873s2.617.071 2.892.824v.784a.5.5 0 0 1-.484 0c-.265-.142-1.847-.947-2.405-.56l-.003-1.048z" class="C"/></g><path d="M102.215 97.465s2.503.068 2.766.785v.748a.48.48 0 0 1-.233.06c-.081 0-.162-.021-.233-.06-.253-.137-1.774-.903-2.3-.534v-1z" class="I"/><g class="B"><path d="M103.596 91.774c.267.619.608 1.203 1.014 1.74a6.79 6.79 0 0 0 1.591 1.535s-2.562-2.91-2.605-3.276zm-.857-3.035s.437 1.886 1.562 2.526l-1.562-2.526zm-.674.19c-.011-.035-.389 1.49 1.452 2.336 0 0-.778-.265-1.452-2.336zm11.436-1.264c-.029 0 .906.597 1.161.873 0 0-.608-.911-1.161-.873z" class="C"/></g><path d="M107.578 86.361c.018.123.082.235.179.313.068.032.143.049.218.048.705.044 1.437.074 2.097-.197a.78.78 0 0 0 .322-.211c.093-.155.152-.328.171-.508.092-.345.287-.645.428-.981a3.3 3.3 0 0 0 .227-1.761c-.017-.183-.078-.36-.176-.516-.187-.266-.527-.374-.774-.587s-.406-.537-.693-.697a1.35 1.35 0 0 0-.871-.078 4.6 4.6 0 0 0-1.626.611c-.162.103-.352.221-.544.186-.165-.053-.306-.161-.4-.306a2.15 2.15 0 0 0-.172 1.005.55.55 0 0 1 0 .152c-.025.061-.062.115-.109.161-.174.202-.282.521-.111.724.076.089.19.137.263.227.131.161.086.395.082.603-.006.072.012.144.052.205.038.035.084.059.134.071s.102.011.151-.003a.79.79 0 0 1 .304-.029.51.51 0 0 1 .264.203c.32.413.447.866.584 1.365z" fill="#2d293d"/><g class="C B"><path d="M110.452 86.137a.76.76 0 0 1-.322.21c-.645.273-1.384.24-2.087.197-.076.001-.15-.015-.218-.048-.098-.077-.163-.188-.181-.311-.137-.498-.263-.953-.589-1.366a.5.5 0 0 0-.264-.203.78.78 0 0 0-.303.029c-.05.014-.102.015-.152.003s-.096-.036-.134-.071c-.04-.06-.057-.133-.05-.205 0-.208.047-.442-.084-.603-.072-.09-.187-.139-.263-.227-.048-.066-.078-.144-.085-.226s.007-.164.042-.238c-.124.197-.178.448-.034.619.076.089.19.137.263.228.131.161.085.395.082.603-.006.072.012.144.052.205a.3.3 0 0 0 .134.071c.05.012.102.011.151-.004.098-.029.202-.039.304-.029a.51.51 0 0 1 .264.203c.323.415.452.868.589 1.366.018.123.082.235.179.313.068.032.142.049.218.048.704.043 1.437.074 2.096-.197.124-.043.235-.115.323-.211a.61.61 0 0 0 .1-.187c-.01.011-.016.024-.031.032z" class="C"/></g><g class="B"><path d="M107.165 87.761s2.886.382 3.145-.052l-3.145.052zm5.61-1.193s1.602 0 1.955.603l-1.955-.603z" class="C"/></g></g><defs><linearGradient id="A" x1="105.043" y1="128.998" x2="105.043" y2="80.503" gradientUnits="userSpaceOnUse"><stop stop-color="gray" stop-opacity=".25"/><stop offset=".54" stop-color="gray" stop-opacity=".12"/><stop offset="1" stop-color="gray" stop-opacity=".1"/></linearGradient><clipPath id="B"><path fill="#fff" transform="translate(.573)" d="M0 0h176.855v130H0z"/></clipPath><path id="C" d="M49.912 90.741c.094 1.019-.676 2.007-.452 3.003.048.213.14.415.174.629.092.592-.261 1.153-.598 1.648l-2.894 4.249c-.117.186-.256.358-.415.511-.555.484-1.384.441-2.111.587-.511.105-.992.318-1.413.626-.019.015-.032.036-.036.06s.002.048.016.068a1.22 1.22 0 0 0 1.052.493c.076.1 0 .247-.105.323-.161.108-.369.135-.4.4a.43.43 0 0 0 .053.264.82.82 0 0 0 .506.352c1.002.306 2.086-.231 2.834-.968s1.29-1.656 2.026-2.403c.408-.412.871-.766 1.29-1.166.839-.797 1.489-1.774 2.118-2.742.205-.282.36-.598.458-.932.077-.332.042-.682.132-1.011.116-.429.432-.773.694-1.129.514-.707.857-1.573.789-2.444s-.606-1.732-1.429-2.027a1.28 1.28 0 0 0-.806-.05c-.337.105-.586.384-.816.645l-.548.636c-.139.138-.248.303-.323.484a.51.51 0 0 0 .113.54"/><path id="D" d="M27.869 95.071l.518 1.516a12.83 12.83 0 0 0 1.34 2.445 17.57 17.57 0 0 0 1.108 1.451c.494.583 1.045 1.168 1.219 1.912.102.429.068.879.11 1.318s.185.904.54 1.167a2 2 0 0 0 .89.294c.223.035.502.047.618-.147a.55.55 0 0 0 .061-.255l.055-.645c.011-.139.06-.323.198-.323s.21.18.323.262a.36.36 0 0 0 .136.04c.048.005.096-.001.141-.016a.36.36 0 0 0 .123-.071.35.35 0 0 0 .084-.115c.072-.18.077-.38.013-.564-.096-.365-.269-.706-.506-.999s-.534-.535-.87-.706c-.234-.096-.459-.213-.671-.35-.216-.187-.395-.412-.527-.665-1.219-2.008-2.445-4.032-3.307-6.211-.17-.39-.284-.802-.34-1.224-.017-.431 0-.862.053-1.29.05-.774-.021-1.551-.213-2.303a1.81 1.81 0 0 0-.221-.56c-.353-.539-1.187-.618-1.713-.247-.194.149-.354.337-.471.551s-.189.451-.21.694c-.039.434.213.887.34 1.29l1.178 3.75z"/><path id="E" d="M52.905 101.686c-.484.637-.968 1.373-.855 2.16.065.424.302.798.476 1.192a8.41 8.41 0 0 1 .484 1.674l.469 2.515c.124.957.159 1.923.105 2.887-.014.232-.04.484-.202.645-.065.065-.148.118-.176.205a.35.35 0 0 0 .037.242 2.68 2.68 0 0 0 1.435 1.321c.623.239 1.284.362 1.952.364a.54.54 0 0 0 .261-.034.5.5 0 0 0 .202-.23c.484-.92.215-2.029.223-3.065 0-.866.21-1.724.173-2.59-.031-.694-.216-1.371-.284-2.063-.111-1.129.097-2.274.305-3.395l.524-2.568c.102-.524.29-1.027.555-1.491.226-.356.532-.655.79-.99.714-.937 1.031-2.117.884-3.286-.016-.116-1.661.416-1.803.484a5.59 5.59 0 0 0-1.613 1.034c-.381.361-.679.845-1.013 1.252l-1.39 1.729-1.539 2.008z"/><path id="F" d="M20.206 116.54c.238.082.491.113.742.089.018-.205.293-.25.498-.241.102-.005.203.017.293.065.052.032.09.08.14.114a.59.59 0 0 0 .29.074l1.068.091c.476.04.968.077 1.416-.094a.46.46 0 0 0 .227-.151c.121-.173 0-.421-.161-.547s-.382-.184-.55-.313c-.371-.282-.421-.807-.618-1.232a3.54 3.54 0 0 0-.51-.741c-.146-.193-.315-.366-.505-.516-.427-.31-.921-.303-1.423-.347-.355-.032-.689-.053-.944.262-.315.39-.189 1.177-.169 1.643a11.76 11.76 0 0 0 .203 1.844z"/><path id="G" d="M20.638 95.784c-.323.105-.468.511-.408.85s.263.629.431.927c.474.85.681 1.823 1.079 2.709.298.663.702 1.276.997 1.936s.484 1.415.298 2.119c-.087.344-.255.66-.368.996-.11.368-.183.746-.216 1.129a21.4 21.4 0 0 0-.077 3.897c.002.158.035.315.098.461.066.129.182.264.126.398-.023.054-.071.092-.095.146-.068.148.069.303.194.408-.022.039-.052.074-.088.102s-.077.048-.122.059c.09.057.159.141.197.241s.043.208.014.311c-.111.016-.118.185-.047.274s.179.145.229.245c.03.082.027.173-.008.254s-.1.144-.18.178c-.164.064-.343.077-.514.039a5.51 5.51 0 0 1-.861-.189c-.095-.023-.185-.064-.265-.121-.142-.138-.227-.325-.237-.522a9.45 9.45 0 0 1-.06-1.613l-.113-7.822c-.047-1.048-.361-2.071-.768-3.038a15.57 15.57 0 0 0-.748-1.452c-.584-1.074-1.103-2.258-.968-3.476.015-.131.063-.289.192-.31.051-.006.102.003.148.024a6.86 6.86 0 0 1 .782.432c.413.243.879.383 1.358.406z"/></defs></svg>