<svg xmlns="http://www.w3.org/2000/svg" width="300" height="233" fill="none" xmlns:v="https://vecta.io/nano"><g clip-path="url(#D)"><g opacity=".8"><path opacity=".8" d="M273.693 221.077H15.522V54.095c0-1.397.555-2.736 1.542-3.724s2.327-1.542 3.724-1.542h247.639c1.397 0 2.736.555 3.724 1.542a5.27 5.27 0 0 1 1.542 3.724v166.982z" fill="url(#A)"/></g><path d="M24.331 51.862h240.536c1.397 0 2.736.555 3.724 1.542a5.27 5.27 0 0 1 1.542 3.724v163.949H19.078V57.132c-.001-1.395.552-2.733 1.537-3.721s2.321-1.545 3.716-1.548z" fill="#fff"/><path d="M262.051 61.708H27.16v154.067h234.891V61.708z" fill="#f5f5f5"/><path opacity=".8" d="M261.954 69.187H28.06v138.611h233.894V69.187z" fill="#e0e0e0"/><path d="M261.954 61.821H28.06v7.366h233.894v-7.366z" fill="#f5f5f5"/><path d="M33.076 67.18c.987 0 1.786-.8 1.786-1.787s-.8-1.787-1.786-1.787-1.786.8-1.786 1.787.8 1.787 1.786 1.787z" fill="#ff5252"/><path d="M37.986 67.18c.987 0 1.787-.8 1.787-1.787s-.8-1.787-1.787-1.787-1.786.8-1.786 1.787.8 1.787 1.786 1.787z" fill="#ff0"/><path d="M42.899 67.18c.987 0 1.786-.8 1.786-1.787s-.8-1.787-1.786-1.787-1.787.8-1.787 1.787.8 1.787 1.787 1.787z" fill="#69f0ae"/><g opacity=".8"><path opacity=".8" d="M280.915 232.149c-14.371 1.09-261.177.666-269.8 0C-.19 226.699.017 205.555.017 205.555l113.187-.756.38 6.436h48.435l1.893-5.667h125.433s2.493 19.385-8.43 26.581z" fill="url(#B)"/></g><path d="M287.508 207.258H164.522c.473.548.78 1.221.882 1.938a3.78 3.78 0 0 1-.307 2.107c-.302.658-.787 1.216-1.397 1.606a3.78 3.78 0 0 1-2.045.595h-46.954a3.78 3.78 0 0 1-2.045-.595c-.61-.39-1.095-.948-1.397-1.606a3.78 3.78 0 0 1-.307-2.107c.102-.717.408-1.39.882-1.938H1.703s-.19 18.361 10.979 23.107c8.516.567 252.305.947 266.5 0 10.802-6.262 8.326-23.107 8.326-23.107z" fill="#f5f5f5"/><g fill="#e0e0e0"><path d="M27.257 212.748c.836 0 1.513-.678 1.513-1.514s-.677-1.513-1.513-1.513-1.513.678-1.513 1.513.677 1.514 1.513 1.514zm4.543 0c.836 0 1.513-.678 1.513-1.514s-.678-1.513-1.513-1.513-1.513.678-1.513 1.513.677 1.514 1.513 1.514zm4.539 0c.836 0 1.513-.678 1.513-1.514s-.678-1.513-1.513-1.513-1.513.678-1.513 1.513.678 1.514 1.513 1.514z"/></g><path d="M139.944 125.88h10.729c12.331 0 24.158 4.899 32.877 13.618s13.618 20.546 13.618 32.877v33.8H93.45v-33.8c0-12.331 4.899-24.157 13.618-32.877s20.545-13.618 32.876-13.618z" fill="#00bafc"/><path d="M145.411 107.803c26.179 0 47.401-21.223 47.401-47.402S171.59 13 145.411 13 98.009 34.222 98.009 60.401s21.222 47.402 47.402 47.402z" fill="#333"/><path opacity=".1" d="M138.431 112.075h13.709c2.563 0 5.022 1.019 6.834 2.831s2.831 4.272 2.831 6.835v9.419a14.78 14.78 0 0 1-14.778 14.778h-3.496a14.78 14.78 0 0 1-14.779-14.778v-9.406c0-2.563 1.019-5.022 2.831-6.834s4.271-2.831 6.835-2.831l.013-.014z" fill="#000"/><path d="M128.752 111.109h33.07v19.098a14.78 14.78 0 0 1-14.778 14.778h-3.513a14.78 14.78 0 0 1-14.779-14.778v-19.098z" fill="#fdb797"/><path opacity=".1" d="M128.812 115.878a47.59 47.59 0 0 0 33.07.09v-4.059h-33.07v3.969z" fill="#000"/><path d="M145.411 118.091c26.179 0 47.401-21.222 47.401-47.401s-21.222-47.401-47.401-47.401S98.009 44.511 98.009 70.69s21.222 47.401 47.402 47.401z" fill="#fdb797"/><path opacity=".1" d="M100.092 53.912h90.39s-7.716-36.499-41.889-34.189-48.501 34.19-48.501 34.19z" fill="#000"/><path d="M100.092 52.685h90.39s-7.716-36.499-41.889-34.173-48.501 34.173-48.501 34.173z" fill="#333"/><g fill="#fdb797"><path d="M98.989 76.939c2.435 0 4.409-3.702 4.409-8.269s-1.974-8.269-4.409-8.269-4.41 3.702-4.41 8.269 1.974 8.269 4.41 8.269zm92.596 0c2.436 0 4.41-3.702 4.41-8.269s-1.974-8.269-4.41-8.269-4.409 3.702-4.409 8.269 1.974 8.269 4.409 8.269z"/></g><path d="M107.108 28.501c1.083-3.54 3.053-6.922 6.093-9.032 2.309-1.603 5.073-2.373 7.722-3.313a59.03 59.03 0 0 0 11.226-5.369c4.019-2.476 7.795-5.459 12.222-7.096 7.615-2.816 16.098-1.293 23.96.727 1.937.497 3.897 1.037 5.603 2.083 1.976 1.21 3.493 3.03 4.973 4.813l12.478 15.052c1.144 1.377 2.293 2.77 3.1 4.37a15.03 15.03 0 0 1 1.42 4.929c.333 2.76.073 5.686-1.333 8.089-2.11 3.603-6.46 5.413-10.629 5.579s-8.263-1.043-12.269-2.216c-12.918-3.783-25.997-7.309-39.395-8.879a111.13 111.13 0 0 0-20.048-.65c-2.1.137-4.873 1.1-6.149-1.04-1.104-1.856.456-6.186 1.026-8.046z" fill="#333"/><g stroke="#000" stroke-width="4" stroke-miterlimit="10"><path opacity=".05" d="M113.754 169.372v36.803m63.94-36.803v36.803"/></g><g opacity=".8"><path opacity=".8" d="M300 66.76h-59.48l-20.075 16.738V66.76h-13.381V.611H300V66.76z" fill="url(#C)"/></g><path d="M298.74 1.398h-90.416v63.256h90.416V1.398z" fill="#fff"/><g fill="#e0e0e0"><path d="M290.148 10.697h-71.642v1.88h71.642v-1.88zm-22.388 8.465h-49.254v1.88h49.254v-1.88zm9.853 8.463h-59.107v1.88h59.107v-1.88z"/></g><g fill="#00bafc"><path d="M265.97 36.091h-47.464v1.88h47.464v-1.88zm24.178 8.462h-71.642v1.88h71.642v-1.88z"/></g><path d="M290.148 53.019h-71.642v1.88h71.642v-1.88z" fill="#e0e0e0"/><path d="M223.792 63.424v16.732l18.401-18.405-18.401 1.673z" fill="#fff"/></g><defs><linearGradient id="A" x1="144.607" y1="221.077" x2="144.607" y2="48.836" gradientUnits="userSpaceOnUse"><stop stop-color="gray" stop-opacity=".25"/><stop offset=".54" stop-color="gray" stop-opacity=".12"/><stop offset="1" stop-color="gray" stop-opacity=".1"/></linearGradient><linearGradient id="B" x1="169221" y1="22572.9" x2="169221" y2="20217.9" gradientUnits="userSpaceOnUse"><stop stop-color="gray" stop-opacity=".25"/><stop offset=".54" stop-color="gray" stop-opacity=".12"/><stop offset="1" stop-color="gray" stop-opacity=".1"/></linearGradient><linearGradient id="C" x1="70901.9" y1="20613.9" x2="70901.9" y2=".611" gradientUnits="userSpaceOnUse"><stop stop-color="gray" stop-opacity=".25"/><stop offset=".54" stop-color="gray" stop-opacity=".12"/><stop offset="1" stop-color="gray" stop-opacity=".1"/></linearGradient><clipPath id="D"><path fill="#fff" transform="translate(0 .611)" d="M0 0h300v232.198H0z"/></clipPath></defs></svg>