<svg xmlns="http://www.w3.org/2000/svg" width="300" height="260" fill="none" xmlns:v="https://vecta.io/nano"><style><![CDATA[.B{fill:#d0cde1}.C{fill:#3f3d56}.D{fill:#a0616a}]]></style><g clip-path="url(#A)"><g class="D"><path d="M163.752 72.695c15.256 0 27.623-12.367 27.623-27.623s-12.367-27.623-27.623-27.623-27.624 12.367-27.624 27.623 12.368 27.623 27.624 27.623z"/><path d="M143.134 58.883s5.204 39.233-2.802 43.637 47.64 4.804 47.64 4.804-12.41-34.029-6.806-44.438l-38.032-4.003z"/></g><path d="M228.606 107.523l-4.628 21.073-9.785 44.585-.293 2.442-3.377 28.267-2.247 18.779-1.506 12.614-15.796 7.956s-.571-2.862-1.491-6.525c-6.428 1.927-18.32 5.124-28.399 5.763 3.67 4.09 5.357 7.933 3.069 10.769-6.904 8.55-35.408-9.361-45.378-16.04a27.01 27.01 0 0 0-.263 4.831l-7.629-5.867.755-13.501 1.273-22.843 1.601-28.647a29.92 29.92 0 0 1-1.266-3.767c-2.337-8.31-5.173-24.902-7.348-38.816l-3.343-22.674-.056-.398 42.233-18.662c3.002 6.961 17.017 9.053 17.017 9.053 11.611-.8 20.713-6.923 20.713-6.923l46.144 18.531z" class="B"/><path d="M194.178 235.234l-4.695 1.48c-6.428 1.927-18.32 5.124-28.399 5.762-8.677.556-16.01-.781-17.351-6.442-.575-2.434.24-4.436 2.017-6.081 5.304-4.918 19.158-6.679 30.146-7.284a201.62 201.62 0 0 1 8.362-.278c4.056-.053 6.716.03 6.716.03l.064.248 3.14 12.565z" class="D"/><path d="M140.771 18.942l-5.164-2.068s10.799-11.889 25.824-10.856l-4.226-4.652s10.33-4.135 19.721 6.72c4.936 5.706 10.648 12.414 14.208 19.97h5.532l-2.309 5.083 8.08 5.083-8.293-.913a28.41 28.41 0 0 1 .225 8.431 10.91 10.91 0 0 1-3.995 7.136s-6.405-13.259-6.405-15.326v5.169s-5.165-4.652-5.165-7.754l-2.817 3.618-1.409-5.686-17.373 5.686 2.817-4.652-10.799 1.551 4.226-5.686s-12.208 6.72-12.678 12.406-4.042 11.074-4.042 11.074-9.574-26.582 4.042-34.336z" fill="#2f2e41"/><path d="M258.631 204.405c-2.813 3.05-9.785 7.644-18.237 12.618l-9.906 5.646c-8.148 4.519-16.679 8.996-23.718 12.614l-15.796 7.956s-.571-2.862-1.491-6.525c-1.232-4.902-3.088-11.239-5.023-14.045-.067-.098-.135-.188-.202-.278-.564-.74-1.131-1.172-1.691-1.172l27.956-17.329 12.08-7.49-8.703-20.777-10.917-26.062 6.589-20.965 6.623-21.074h12.411s4.11 8.971 9.365 21.48l2.423 5.834c10.811 26.295 24.289 63.014 18.237 69.569z" class="B"/><path d="M164.153 253.246c-6.904 8.55-35.408-9.361-45.378-16.04l-3.463-2.374 9.12-12.163 2.889-3.851a200.24 200.24 0 0 0 6.405 3.603l.421.248c3.294 1.934 7.43 4.463 11.603 7.284 5.759 3.895 11.581 8.339 15.334 12.524 3.67 4.09 5.357 7.933 3.069 10.769z" class="D"/><path d="M133.726 222.421c-1.02-.004-2.038.079-3.043.248-8.636 1.484-11.183 9.301-11.908 14.537-.232 1.6-.32 3.216-.263 4.831l-7.629-5.867-2.78-2.138c-6.69-2.333-12.652-6.476-17.82-11.363a89.62 89.62 0 0 1-12.002-14.233c-3.482-5.075-6.585-10.398-9.286-15.928a11.71 11.71 0 0 1-.161-9.935l9.447-21.055 13.809-30.773c.102-.733.213-1.449.334-2.149 2.739-15.702 10.074-22.674 10.074-22.674h5.605l3.749 22.674 4.658 28.17-3.264 10.646-7.543 24.586 7.208 7.828 20.815 22.595z" class="B"/><path d="M140.069 156.788l4.791 5.59 5.554-1.186-1.376-4.404 3.365 3.926c20.284-4.989 45.425-14.688 45.425-14.688s-27.143 1.99-47.409-2.438c-8.967-1.959-18.193 2.486-21.873 10.895-2.138 4.887-1.803 9.122 5.783 9.122a50.12 50.12 0 0 0 7.645-.72l-1.905-6.097z" fill="#00bafc"/><g class="C"><path d="M249.297 248.663v2.281a5.02 5.02 0 0 1-.342 1.829c-.101.26-.223.511-.365.751a5.04 5.04 0 0 1-1.843 1.806c-.761.432-1.621.659-2.495.659H76.508a5.05 5.05 0 0 1-2.495-.659c-.761-.432-1.396-1.054-1.844-1.806a5.12 5.12 0 0 1-.364-.751 5.01 5.01 0 0 1-.342-1.829v-2.281a5.04 5.04 0 0 1 .384-1.93 5.03 5.03 0 0 1 1.094-1.637c.468-.469 1.025-.84 1.637-1.094s1.268-.384 1.931-.383h9.669v-1.064a.21.21 0 0 1 .016-.08.2.2 0 0 1 .046-.068c.02-.02.043-.035.068-.046s.053-.016.081-.016h5.045c.028 0 .055.005.081.016a.21.21 0 0 1 .068.046c.02.019.035.042.046.068s.016.053.016.08v1.064h3.152v-1.064c0-.027.005-.055.016-.08a.2.2 0 0 1 .046-.068c.019-.02.043-.035.068-.046s.053-.016.081-.016h5.045c.028 0 .055.005.081.016a.21.21 0 0 1 .068.046.2.2 0 0 1 .046.068.22.22 0 0 1 .016.08v1.064h3.155v-1.064a.2.2 0 0 1 .062-.148.2.2 0 0 1 .148-.062h5.045c.028 0 .055.005.081.016a.21.21 0 0 1 .068.046.2.2 0 0 1 .046.068.22.22 0 0 1 .016.08v1.064h3.151v-1.064a.22.22 0 0 1 .016-.08.2.2 0 0 1 .046-.068.21.21 0 0 1 .068-.046c.026-.011.053-.016.081-.016h5.045a.2.2 0 0 1 .148.062.2.2 0 0 1 .062.148v1.064h3.152v-1.064a.2.2 0 0 1 .016-.08c.01-.026.026-.049.045-.068a.22.22 0 0 1 .068-.046c.026-.011.053-.016.081-.016h5.045c.028 0 .055.005.08.016s.049.026.069.046.035.042.045.068a.2.2 0 0 1 .016.08v1.064h3.156v-1.064a.2.2 0 0 1 .016-.08c.01-.026.026-.049.045-.068a.22.22 0 0 1 .068-.046c.026-.011.053-.016.081-.016h5.045c.028 0 .055.005.08.016s.049.026.069.046.035.042.045.068a.2.2 0 0 1 .016.08v1.064h3.152v-1.064a.2.2 0 0 1 .016-.08c.01-.026.026-.049.045-.068s.043-.035.069-.046a.2.2 0 0 1 .08-.016h39.518c.028 0 .055.005.081.016a.22.22 0 0 1 .068.046.2.2 0 0 1 .061.148v1.064h3.156v-1.064a.2.2 0 0 1 .016-.08c.01-.026.026-.049.045-.068s.043-.035.069-.046a.2.2 0 0 1 .08-.016h5.045c.056.001.109.023.148.062s.062.093.063.148v1.064h3.151v-1.064a.22.22 0 0 1 .016-.08.2.2 0 0 1 .114-.114c.026-.011.053-.016.081-.016h5.044c.028 0 .056.005.081.016a.2.2 0 0 1 .114.114.22.22 0 0 1 .016.08v1.064h3.152v-1.064a.2.2 0 0 1 .061-.148.22.22 0 0 1 .068-.046c.026-.011.053-.016.081-.016h5.045a.2.2 0 0 1 .08.016c.026.011.049.026.069.046s.035.042.045.068a.2.2 0 0 1 .016.08v1.064h3.156v-1.064c0-.027.005-.055.015-.08s.027-.049.046-.068a.22.22 0 0 1 .068-.046c.026-.011.053-.016.081-.016h5.045c.055.001.108.023.146.063s.061.092.06.147v1.064h3.156v-1.064a.2.2 0 0 1 .016-.08c.01-.026.026-.049.045-.068s.043-.035.069-.046a.2.2 0 0 1 .08-.016h5.045c.028 0 .055.005.081.016a.22.22 0 0 1 .068.046.2.2 0 0 1 .061.148v1.064h3.152v-1.064a.22.22 0 0 1 .016-.08.2.2 0 0 1 .114-.114.2.2 0 0 1 .08-.016h5.045c.028 0 .055.005.081.016a.2.2 0 0 1 .114.114.22.22 0 0 1 .016.08v1.064h14.714c.662-.001 1.318.13 1.931.383a5.04 5.04 0 0 1 1.636 1.094c.469.468.841 1.024 1.094 1.637s.384 1.268.384 1.93z"/><path d="M298.074 252.773H22.727v.751h275.347v-.751zM235.79 152.638h-62.523v-1.289h-28.351v1.289H82.135a4.23 4.23 0 0 0-4.229 4.229v85.614a4.23 4.23 0 0 0 4.229 4.229H235.79a4.23 4.23 0 0 0 4.229-4.229v-85.614c0-.556-.109-1.105-.322-1.619a4.24 4.24 0 0 0-.916-1.372c-.392-.393-.859-.704-1.372-.916a4.23 4.23 0 0 0-1.619-.322z"/></g><path d="M159.086 191.919c5.186 0 9.391-4.205 9.391-9.392s-4.205-9.391-9.391-9.391-9.392 4.205-9.392 9.391 4.205 9.392 9.392 9.392z" stroke="#d0cde1" stroke-width="2" stroke-miterlimit="10"/><g class="B"><path d="M156.08 195.299c5.187 0 9.392-4.204 9.392-9.391s-4.205-9.391-9.392-9.391-9.391 4.205-9.391 9.391 4.205 9.391 9.391 9.391zM40.737 248.978H30.219v10.518h10.518v-10.518z"/></g><path d="M34.353 240.714v12.772h12.772v-12.772H34.353zm12.216 12.216H34.905v-11.66h11.664v11.66z" class="C"/><path d="M284.155 248.978h-10.518v10.518h10.518v-10.518z" class="B"/><path d="M277.77 240.714v12.772h12.772v-12.772H277.77zm12.216 12.216h-11.663v-11.66h11.663v11.66z" class="C"/><path d="M35.529 87.034c16.46 0 29.804-13.344 29.804-29.804S51.989 27.426 35.529 27.426 5.725 40.77 5.725 57.23s13.344 29.804 29.804 29.804z" fill="#00bafc"/><g class="C"><path d="M45.915 21.813a32.23 32.23 0 0 0-8.128 0 31.69 31.69 0 0 0-26.151 22.055 31.27 31.27 0 0 0-1.373 8.137 31.89 31.89 0 0 0-.023 1.161 31.64 31.64 0 0 0 31.61 31.61 32.9 32.9 0 0 0 2.01-.063 31.26 31.26 0 0 0 4.633-.641 31.62 31.62 0 0 0 18.352-11.554c4.564-5.894 6.897-13.213 6.589-20.661a31.61 31.61 0 0 0-8.275-20.045c-5.036-5.497-11.852-9.038-19.244-9.997h0zm5.83 60.425h-.005a30.39 30.39 0 0 1-7.88 1.567c-.664.045-1.337.068-2.01.068a30.74 30.74 0 0 1-21.702-9.005 30.75 30.75 0 0 1-9.005-21.702c0-.388.009-.777.023-1.161A30.75 30.75 0 0 1 41.85 22.459a30.71 30.71 0 0 1 9.894 59.779h0zm-9.443-57.973h-.903v6.322h.903v-6.322zm-20.568 8.146l-.639.639 4.47 4.47.639-.639-4.47-4.47zM12.95 52.714v.903h6.322v-.903H12.95zm8.145 20.568l.639.639 4.47-4.47-.639-.639-4.47 4.47zm36.402-36.401l.639.639 4.47-4.47-.639-.639-4.47 4.47zm6.932 15.833v.903h6.322v-.903h-6.322zm-6.294 16.098l-.639.639 4.47 4.47.639-.639-4.47-4.47z"/><path d="M42.302 75.745h-.903v6.322h.903v-6.322zm.903-24.385a2.26 2.26 0 0 0-2.709 0c-.268.203-.488.462-.646.759a2.26 2.26 0 0 0 1.233 3.172c.406.146.844.174 1.265.079a2.26 2.26 0 0 0 .857-4.008h0zm-1.355 3.161a1.36 1.36 0 0 1-1.355-1.355 1.38 1.38 0 0 1 .239-.768 1.35 1.35 0 0 1 1.195-.582c.233.014.457.088.653.214s.355.301.464.507.162.437.155.67-.074.46-.194.659-.29.364-.493.479a1.35 1.35 0 0 1-.665.175h0zm4.065-40.642h-8.128v8.128h8.128v-8.128z"/><path d="M41.851 15.234c5.986 0 10.838-1.718 10.838-3.838s-4.852-3.838-10.838-3.838-10.838 1.718-10.838 3.838 4.852 3.838 10.838 3.838zm1.354 20.772h-2.709V51.36h2.709V36.006zM84.896 83.4H0v.903h84.896V83.4z"/></g><path d="M56.57 225.887c.351 12.002-6.662 16.401-15.463 16.658l-.611.011a24.35 24.35 0 0 1-1.212-.021c-7.959-.33-14.26-4.555-14.585-15.717-.337-11.551 14-26.559 15.076-27.669l.002-.001.062-.064s16.382 14.802 16.732 26.803z" class="B"/><path d="M40.473 240.726l5.59-8.314-5.579 9.208.012.936c-.408.003-.812-.004-1.212-.021l.277-12.025-.008-.093.01-.018.027-1.136-6.122-8.889 6.115 8.039.022.24.209-9.086-5.288-9.215 5.303 7.619-.055-18.822v-.063l.002.062.351 14.835 4.819-6.026-4.804 7.304.105 8.126 4.435-7.931-4.418 9.126.059 4.519 6.449-11.048-6.43 12.624.131 10.049z" class="C"/><path d="M299.987 225.887c.351 12.002-6.662 16.401-15.462 16.658l-.611.011a24.33 24.33 0 0 1-1.212-.021c-7.96-.33-14.26-4.555-14.586-15.717-.337-11.551 14-26.559 15.076-27.669l.002-.001.061-.064s16.382 14.802 16.732 26.803z" class="B"/><path d="M283.891 240.726l5.591-8.314-5.579 9.208.011.936a24.33 24.33 0 0 1-1.212-.021l.277-12.025-.008-.093.011-.018.026-1.136-6.122-8.889 6.115 8.039.022.24.209-9.086-5.288-9.215 5.303 7.619-.055-18.822v-.063l.002.062.351 14.835 4.819-6.026-4.804 7.304.106 8.126 4.434-7.931-4.418 9.126.058 4.519 6.45-11.048-6.43 12.624.131 10.049z" class="C"/></g><defs><clipPath id="A"><path fill="#fff" transform="translate(0 .593)" d="M0 0h300v258.903H0z"/></clipPath></defs></svg>