<svg xmlns="http://www.w3.org/2000/svg" width="300" height="278" fill="none" xmlns:v="https://vecta.io/nano"><g clip-path="url(#A)"><path d="M18.183 22.14c-4.821.005-9.442 1.923-12.851 5.332S.005 35.502 0 40.323V249.8a18.2 18.2 0 0 0 18.183 18.183H171.85c4.821-.006 9.442-1.923 12.851-5.332s5.326-8.03 5.332-12.851V40.323c-.006-4.821-1.923-9.442-5.332-12.851s-8.03-5.326-12.851-5.332H18.183z" fill="#3f3d56"/><path d="M180.577 35.055H9.456v220.013h171.121V35.055z" fill="#fff"/><g fill="#00bafc"><path d="M158.207 74.491H31.826v8.302h126.381v-8.302zm0 22.14H31.826v8.302h126.381v-8.302zm0 22.139H31.826v8.303h126.381v-8.303zm0 22.14H31.826v8.303h126.381v-8.303zm0 22.14H31.826v8.302h126.381v-8.302zm0 22.14H31.826v8.302h126.381v-8.302zm0 22.139H31.826v8.303h126.381v-8.303z"/></g><path d="M159.986 21.104L34.667 44.038l29.486 161.124 125.319-22.934-29.486-161.124z" fill="#e6e6e6"/><g fill="#00bafc"><path d="M148.889 52.983L56.335 69.92 57.448 76l92.553-16.937-1.112-6.08zm2.967 16.214L59.302 86.134l1.113 6.08 92.553-16.937-1.112-6.08zm2.967 16.213L62.27 102.348l1.113 6.08 92.553-16.938-1.112-6.08zm2.967 16.214l-92.553 16.938 1.113 6.08 92.554-16.938-1.113-6.08zm2.966 16.214l-92.553 16.937 1.113 6.08 92.553-16.937-1.112-6.08zm2.968 16.213l-92.553 16.938 1.113 6.08 92.553-16.937-1.113-6.081zm2.967 16.214l-92.553 16.938 1.113 6.08 92.553-16.938-1.113-6.08z"/></g><path d="M248.688 197.361l-35.459 6.489 8.343 45.591 35.459-6.489-8.343-45.591z" fill="#e6e6e6"/><g fill="#fff"><path d="M245.548 206.381l-26.188 4.793.315 1.72 26.188-4.792-.315-1.721zm.84 4.588l-26.189 4.793.315 1.72 26.189-4.792-.315-1.721zm.839 4.588l-26.188 4.792.315 1.721 26.188-4.793-.315-1.72zm.84 4.588l-26.188 4.792.314 1.721 26.189-4.793-.315-1.72zm.839 4.587l-26.188 4.793.315 1.72 26.188-4.792-.315-1.721zm.84 4.588l-26.188 4.793.315 1.72 26.188-4.792-.315-1.721zm.84 4.588l-26.189 4.792.315 1.721 26.188-4.793-.314-1.72z"/></g><g fill="#3f3d56"><path d="M126.701 11.531h-15.08V8.444a8.44 8.44 0 0 0-2.473-5.971C107.564.89 105.417 0 103.177 0H86.856a8.45 8.45 0 0 0-5.971 2.473 8.44 8.44 0 0 0-2.473 5.971v3.087h-15.08a8.43 8.43 0 0 0-3.231.643c-1.024.425-1.955 1.046-2.739 1.83a8.44 8.44 0 0 0-1.83 2.739c-.424 1.024-.643 2.122-.643 3.231v23.382h80.257V19.975a8.45 8.45 0 0 0-.643-3.231 8.44 8.44 0 0 0-4.57-4.569 8.45 8.45 0 0 0-3.231-.643zM89.603 239.069c2.493-1.706 5.056-3.481 8.016-4.256 2.701-.708 5.803-.521 7.939 1.457 1.725 1.596 2.453 4.05 1.175 6.15a3.9 3.9 0 0 1-1.093 1.219 3.91 3.91 0 0 1-1.496.665c-.522.068-1.053.004-1.543-.187a3.13 3.13 0 0 1-1.261-.909c-.67-.74-1.071-1.834-.715-2.81.375-1.026 1.376-1.653 2.359-2.003a17.47 17.47 0 0 1 3.518-.727l4.893-.67 20.025-2.741 22.302-3.053c.176-.05.325-.167.416-.327a.7.7 0 0 0 .067-.524.71.71 0 0 0-.851-.484l-44.375 6.075-4.821.7c-1.251.202-2.436.695-3.462 1.438-2.126 1.683-1.974 4.66-.018 6.42 1.981 1.783 4.852 1.476 6.59-.493.878-.996 1.4-2.257 1.482-3.582a5.98 5.98 0 0 0-1.029-3.739c-1.897-2.86-5.354-3.959-8.657-3.553-3.82.469-7.058 2.616-10.16 4.739-.73.5-.039 1.7.698 1.195z"/></g><g fill="#a0616a"><path d="M245.308 187.788l.462 4.613s-2.768 10.147 3.228 10.147 1.384-10.147 1.384-10.147l.461-3.69-5.535-.923zm41.895-15.367l-2.116 4.125s-7.833 7.02-2.797 10.274 6.67-7.771 6.67-7.771l2.391-2.848-4.148-3.78z"/></g><g fill="#2f2e41"><path d="M252.688 191.939l6.458 43.819 3.228 31.364s2.768 6.919 11.993.923l-1.384-17.989-.923-16.143s-.922-15.683-1.844-18.45.461-11.992.461-11.992l3.69-15.221-21.679 3.689z"/><path d="M263.297 266.2l-3.69 4.151s-5.535-1.845-6.919 1.845 10.609 4.612 10.609 4.612 12.453.923 12.453 0-.333-7.977-2.011-8.37-10.442-2.238-10.442-2.238zm6.918-76.567l6.458 46.125 3.229 31.364s2.767 6.919 11.992.923l-1.384-17.989-.922-16.143s-.923-15.683-1.845-18.45.461-11.992.461-11.992l-.922-17.066-17.067 3.228z"/><path d="M280.824 266.2l-3.69 4.151s-5.535-1.845-6.918 1.845 10.608 4.612 10.608 4.612 12.454.923 12.454 0-.334-7.977-2.012-8.37-10.442-2.238-10.442-2.238z"/></g><g fill="#a0616a"><path d="M256.378 116.757a9.69 9.69 0 0 0 9.686-9.686 9.69 9.69 0 0 0-9.686-9.687 9.69 9.69 0 0 0-9.686 9.687 9.69 9.69 0 0 0 9.686 9.686z"/><path d="M263.527 111.452l4.152 6.919-10.609 4.612-1.384-8.302 7.841-3.229z"/></g><g fill="#575a89"><path d="M268.832 117.679s-9.686-.922-13.376 5.074l-9.104 6.919c-.737.56-1.313 1.305-1.669 2.16s-.48 1.789-.358 2.707l7.902 59.707 11.531-.462 18.911-3.69 5.535-1.383-2.767-24.446s-3.229-9.686.461-16.144l-1.845-22.601-12.915-5.073-2.306-2.768z"/><path d="M247.153 131.517l-.692-1.154s-.922 0-.922 1.845-1.614 41.743-1.614 41.743l-.462 15.221 8.764.923 3.229-28.598-1.384-18.911-6.919-11.069zm30.442-6.919l6.458.922c2.516 2.635 4.686 5.58 6.457 8.764 2.768 5.074 11.07 14.76 9.225 22.14s-7.38 20.756-7.38 20.756l-8.763-3.69s6.918-16.144 6.457-17.527-5.996-9.687-5.996-9.687l-6.458-21.678z"/></g><path d="M249.69 101.766s-7.841-.461-2.767-5.535c0 0 4.151-1.845 5.996-.922 0 0 2.767-1.845 2.767-.922 0 0 9.686-2.767 11.07 6.919s-.922 14.299-.922 14.299l-6.458-.462s1.384-7.841-3.69-6.918c0 0-4.151 1.383-4.612 0s-1.384-6.458-1.384-6.458z" fill="#2f2e41"/><path opacity=".2" d="M253.38 189.403l4.151-27.675-2.767-17.066.922 18.563-2.767 26.178h.461z" fill="#000"/></g><defs><clipPath id="A"><path fill="#fff" d="M0 0h300v278H0z"/></clipPath></defs></svg>