<svg xmlns="http://www.w3.org/2000/svg" xmlns:xlink="http://www.w3.org/1999/xlink" width="300" height="172" fill="none" xmlns:v="https://vecta.io/nano"><style><![CDATA[.B{opacity:.1}.C{fill:#000}.D{fill:#3f3d56}.E{fill:#00bafc}.F{fill:#fff}.G{fill:#fbbebe}.H{fill:#f86d70}.I{fill:#be6f72}]]></style><g clip-path="url(#C)"><g class="E"><path d="M180.346 123.829c5.796-.331 12.986-4.262 18.577-6l19.93-5.924a866.59 866.59 0 0 1 70.403-16.888l6.65-1.274c-3.458-7.473-8.816-13.909-15.54-18.663.172-1.636.26-3.28.262-4.925 0-25.998-20.777-47.074-46.416-47.074a45.68 45.68 0 0 0-22.526 5.913C193.539 17.056 169.854 9.831 143.94 9.831c-36.824 0-69.15 14.588-87.467 36.556l86.087 14.544 52.799 8.916c-60.191 1.796-120.569 3.582-180.587-.635C6.849 76.879 1.835 87.058.585 98.011s1.344 22.001 7.337 31.254c0 .941.039 1.875.11 2.801 1.529.438 3.005.862 4.33 1.14 21.261 4.492 42.657 8.25 64.191 11.277-15.868 9.784-35.192 11.168-53.497 15.312 8.864 7.316 20.9 11.8 34.164 11.8h197.497c21.385 0 38.719-14.887 38.719-33.254a47.26 47.26 0 0 0 6.294-17.279c-39.572 3.821-79.636.504-119.384 2.767z" class="B"/><path d="M300 113.24a47.2 47.2 0 0 0-5.247-21.762 47.21 47.21 0 0 0-14.683-16.897 48.46 48.46 0 0 0 .262-4.922c0-25.998-20.787-47.066-46.416-47.066a45.7 45.7 0 0 0-22.529 5.911c-18.147-11.942-41.835-19.17-67.749-19.17-42.152 0-78.435 19.13-94.526 46.563-.894-.052-1.794-.081-2.701-.081-25.631 0-46.416 21.076-46.416 47.074a47.34 47.34 0 0 0 7.636 25.875c0 23.392 22.078 42.354 49.301 42.354h197.502c21.382 0 38.716-14.89 38.716-33.257 4.498-7.424 6.867-15.941 6.85-24.621z" class="B"/></g><path d="M245.004 84.399a2.92 2.92 0 0 0-1.28-.561c-.491-.113-.991-.184-1.49-.262l-6.456-.931c-.652-.121-1.316-.156-1.977-.105-.332.027-.655.12-.95.273s-.557.363-.771.618a1.35 1.35 0 0 0-.299.839 2.21 2.21 0 0 0 .294.871c.063.124.116.253.16.385a8.87 8.87 0 0 0 .231.879c.028.063.066.121.11.173.001.015.001.03 0 .045-.071.362.157.739.055 1.088-.089.299-.38.48-.564.729a1.1 1.1 0 0 0-.026 1.209c.197.304.553.511.656.86.133.459-.228.902-.551 1.256a19.56 19.56 0 0 0-1.642 2.069c-.14.179-.231.391-.262.616-.029.456.409.858.333 1.311-.06.357-.409.574-.71.787-1.115.734-2.009 1.914-2.098 3.249-.287-2.124-1.166-4.123-2.539-5.769-.375-.451-.787-.905-.941-1.476-.058-.228-.068-.472-.147-.692-.262-.695-1.096-.994-1.461-1.634-.262-.451-.262-1.031-.587-1.427s-.837-.485-1.117-.868a5.54 5.54 0 0 1-.357-.808c-.118-.227-.283-.425-.485-.582l-.121-.087c.044-.039.079-.087.103-.14s.036-.111.036-.169c0-.307-.304-.509-.569-.661l-.999-.621a2.33 2.33 0 0 0 .894-.732 2.4 2.4 0 0 0 .341-1.573c-.018-.442-.183-.866-.469-1.204-.165-.176-.373-.302-.546-.467-.448-.438-.6-1.086-.786-1.684-.247-.787-.632-1.613-1.351-2.03-.346-.202-.75-.296-1.088-.509s-.622-.614-.504-.999c.079-.262.323-.443.488-.666a1.33 1.33 0 0 0-.333-1.836c-.194-.123-.433-.231-.472-.456-.152-.039-.289-.121-.397-.235s-.181-.256-.211-.41c-.059-.308-.059-.625 0-.934l.202-1.458c.115.048.239.073.364.073s.249-.025.365-.073c.226.368.49.713.786 1.028a10.26 10.26 0 0 1 1.836 3.186c.149.419.302.889.69 1.112.133.076.285.115.417.197.161.113.3.255.409.42l.941 1.248.016.063c.008.037.022.072.042.105.058.065.138.106.225.115.965.223 2.048.427 2.885-.1.755-.472 1.086-1.406 1.725-2.03.454-.443 1.097-.787 1.225-1.411a4.63 4.63 0 0 1-.451-.165l.441-.456a5.57 5.57 0 0 0 .697-.831c.222-.369.398-.764.525-1.175l1.521-4.324.786-2.032 1.031-2.114c.887-1.835 1.571-3.76 2.04-5.743.083-.271.111-.555.081-.837-.073-.454-.417-.81-.744-1.133-.33-.357-.706-.668-1.117-.926a1.84 1.84 0 0 0-1.401-.226c-.671.197-1.093.884-1.248 1.573s-.097 1.4-.163 2.098c-.094 1.01-.44 1.985-.524 2.997l-.071 1.762a6.41 6.41 0 0 1-.787 2.171c-.85 1.599-2.001 3.018-3.39 4.18l-.483.406c0-.113.018-.228.034-.341-.114.03-.225.069-.333.118.013-.132 0-.266-.039-.393-.21-.627-1.144-.787-1.311-1.424a2.94 2.94 0 0 1-.045-.477c-.055-.559-.435-1.031-.566-1.573-.121-.501-.029-1.049-.263-1.513-.198-.29-.433-.554-.697-.787a3.1 3.1 0 0 1-.664-1.251l-.102-.391c.04-.291.008-.587-.094-.863-.239-.593-.855-.973-1.078-1.573-.173-.467-.097-1.049-.425-1.411-.174-.173-.387-.302-.621-.375a13.84 13.84 0 0 0-3.743-.884c-.718-.066-1.51-.102-2.024-.608-.601-.587-.629-1.644-1.332-2.098-.619-.401-1.495-.105-1.975.459a2.43 2.43 0 0 0-.199.262 2.8 2.8 0 0 1-.055-1.075c0-.089.018-.181.026-.262 1.184-.387 2.192-1.183 2.843-2.245l.031.097c.076.191.197.375.375.396.119-.001.233-.043.325-.118.159-.11.304-.236.436-.378l.188-.228c.121-.164.225-.34.31-.525.13-.278.219-.574.262-.878l.105-.921c.049-.235.113-.468.191-.695l.076-.228.084-.262a6.05 6.05 0 0 0 .263-1.663v-.283a2.78 2.78 0 0 0-.244-1.066c-.151-.335-.368-.637-.637-.888-.452-.37-1.049-.524-1.38-1.025-.215-.336-.262-.768-.388-1.162-.136-.471-.401-.894-.766-1.222a2.62 2.62 0 0 0-1.295-.632c-.581-.064-1.165.097-1.631.448l-.037.029a2.61 2.61 0 0 0-.65.724c-.347-.095-.664-.276-.923-.525s-.465-.551-.729-.787a1.88 1.88 0 0 0-.88-.452c-.329-.069-.67-.049-.988.059-.327.131-.619.338-.851.604a2.22 2.22 0 0 0-.483.925c-.145.54-.118 1.162-.42 1.613-.233.351-.616.524-.884.844-.166.203-.279.443-.33.7a1.9 1.9 0 0 0-.045.438c0 .066 0 .131.016.194v.032c.009.072.024.143.045.212.074.266.208.511.39.719a1.73 1.73 0 0 0 .632.456c.1.039.201.071.305.097l.312.071.11.026c-.377.707-.586 1.491-.611 2.292a5.22 5.22 0 0 0 .464 2.326c0 .073-.018.147-.026.22-.043 1.033.003 2.067.136 3.092.037.406.058.855-.191 1.177a2.23 2.23 0 0 1-.381.338l.433-.545c-.37-.372-.954-.42-1.479-.383a6.86 6.86 0 0 0-2.885.881c-.587.338-1.19.787-1.861.708-.396-.044-.787-.262-1.173-.157-.216.089-.419.209-.6.357-.144.103-.317.156-.493.152-.412-.506-1.049-.85-1.542-1.261-.561-.499-1.075-1.05-1.534-1.644l-2.531-3.089c-.703-.871-1.424-1.812-1.547-2.927-.013-.111-.019-.222-.018-.333a8.42 8.42 0 0 1 .199-1.574.79.79 0 0 0 0-.38c-.079-.262-.38-.359-.64-.417.034-.202.058-.409.071-.606.147-2.255-.013-4.547.464-6.755.181-.85.477-1.71 1.088-2.326.957-.968 2.56-1.201 3.294-2.347.614-.955.37-2.305-.401-3.147s-1.959-1.185-3.089-1.143c-.318-.011-.631.073-.9.241a1.91 1.91 0 0 0-.545.829l-1.125 2.735a16.55 16.55 0 0 0-.824 2.198c-.314 1.149-.385 2.36-.634 3.519 0 .892-.575 2.004-.889 2.824l-1.049 2.777-.525 1.573a.97.97 0 0 0-.178.134c-.137.175-.261.36-.372.553-.239.315-.627.482-.889.787s-.318.863.047 1.015c.074.025.15.042.228.05a.89.89 0 0 1 .142.024c.393.11.548.606.49 1.015s-.262.787-.296 1.196c-.071.724.354 1.398.763 2.006.423.659.891 1.289 1.4 1.886l1.159 1.185c1.419 1.458 2.546 3.163 3.821 4.746.458.598.98 1.145 1.555 1.631.376.294.769.564 1.177.81l2.193 1.39a2.4 2.4 0 0 0 .828.391c.098.013.197.013.294 0l.039.194c.171.687.546 1.311.588 2.011l.029 2.124.228 1.954c.073 1.238-.231 2.46-.525 3.671-.443 1.773-.71 3.582-1.573 5.19-.241.443-.525.894-.525 1.4 0 .06 0 .123.016.184l-.393.223-.336.199c-.498.325-1.03.684-1.235 1.246-.165.454-.089.973-.288 1.413l-.032.058c-.21.409-.627.713-.721 1.162-.071.344.066.708 0 1.049a4.57 4.57 0 0 0-.142.538.67.67 0 0 0 .016.173 1 1 0 0 0 .315.511c.094.091.197.172.307.244l.346.205.068.037.302.149.068.029.359.142.084.026.288.084.066.021.06.013.262.055.097.018.355.047h.104c.09 0 .176.013.263.016h.123.262.095c.123 0 .246-.018.369-.034h.04l.33-.058.084-.018.307-.079.055-.016.367-.123c.417-.172.822-.372 1.212-.601l.786-.425a6.15 6.15 0 0 1 .598-.262c.496-.212 1.036-.302 1.574-.262a6.15 6.15 0 0 1 .786.16v.087l.632 3.776a7.74 7.74 0 0 1 1.086-.653c-.071.19-.118.388-.139.59a2.3 2.3 0 0 0 0 .469c.024.249.076.524-.073.721-.092.121-.263.189-.313.325a1.12 1.12 0 0 0-.026.427.68.68 0 0 1-.194.433c-.115.117-.267.188-.43.201.075.211.077.441.005.654s-.213.394-.401.516c-.11.053-.212.12-.304.199a.91.91 0 0 0-.176.396 7 7 0 0 1-2.053 3.375c-.373.293-.713.625-1.015.991-.186.283-.34.587-.459.905l-2.129 5.132c-.399.957-.787 1.93-.913 2.961-.315 2.827-2.832 5.224-2.36 8.03a3.93 3.93 0 0 0 .818 1.917c.525.632 1.311.993 2.098 1.287 2.022.787 4.154 1.217 6.278 1.65l3.336.684a14.48 14.48 0 0 0 1.988.315c.805.055 1.631-.021 2.415.183.485.126.949.36 1.45.386.43.023.96-.068 1.214.283s.058.816.299 1.128c.388.495 1.335 0 1.757.466a2.18 2.18 0 0 1 .262.58 1.05 1.05 0 0 0 .262.33 2.18 2.18 0 0 1 .032.449 7.75 7.75 0 0 1-.378 1.788l-.941 3.197c-.12.377-.207.763-.262 1.154-.02.19-.02.381 0 .571.055.58.388 1.178.941 1.367.429.113.886.057 1.275-.158a5.58 5.58 0 0 0 1.049-.708c.58-.439 1.09-.964 1.513-1.557 1.311-1.962.886-4.616 1.806-6.784.611-1.448 1.802-2.623 2.198-4.149a1.65 1.65 0 0 0 .031-.897c-.165-.524-.723-.823-1.245-1.012h-.024c-.428-.153-.866-.278-1.311-.375l-.336-.06c-.249-.203-.448-.462-.579-.756a1.78 1.78 0 0 0-.123-.453c-.042-.063-.098-.115-.164-.151a.47.47 0 0 0-.214-.059c-.262-.026-.614.068-.9.047-.584-.042-.972-.616-1.497-.881s-1.093-.199-1.652-.16c-.2.027-.403.015-.598-.037a2.23 2.23 0 0 1-.629-.432c-.323-.252-.7-.424-1.101-.505s-.815-.067-1.21.04c-.251.102-.516.162-.786.179-.512-.029-.874-.485-1.251-.832-1.033-.946-2.505-1.195-3.758-1.817-.192-.071-.352-.209-.451-.388-.144-.357.181-.713.475-.957l2.155-1.791c2.36-1.962 5.31-3.438 6.407-6.315a3.64 3.64 0 0 1 .524-1.078 1.48 1.48 0 0 1 .291-.262c.477-.309 1.055-.422 1.613-.315.68.153 1.325.434 1.899.829l2.74 1.836a24.04 24.04 0 0 1 2.504 2.056c1.377 1.311 2.523 2.866 3.805 4.279s2.749 2.733 4.529 3.409 3.934.648 5.463-.487c1.765-1.312 2.331-3.656 2.777-5.806.983-.95 1.279-2.395 1.759-3.672l1.013-2.381c.388-.949.692-1.93.996-2.908a13.98 13.98 0 0 0 .698-3.034c.126-1.634-.312-3.372.147-4.906.605-.134 1.156-.475 1.751-.674.887-.291 1.836-.244 2.775-.239h.06a1.43 1.43 0 0 0 .923-.218c.315-.262.365-.711.38-1.117.037-1.004-.026-2.132-.778-2.782zm-37.996-44.732a1.95 1.95 0 0 1-.664.047l.664-.047z" fill="url(#A)"/><g class="I"><path d="M208.041 56.255a2.89 2.89 0 0 1-1.091.58l-1.859.666c-1.01.362-2.064.726-3.129.595-.595-.073-3.146-.448-3.532-.913-.587-.718 1.471-1.775 2.174-2.381a3.01 3.01 0 0 0 .441-.388c.262-.32.228-.768.191-1.172a18.09 18.09 0 0 1-.136-3.086 6.02 6.02 0 0 1 .105-.732c.262-1.206 1.384-.766 2.27-.446a17.77 17.77 0 0 1 3.082 1.335 2.21 2.21 0 0 1 .76.645c.388.587.234 1.358.171 2.098-.055.574-.053 1.125.307 1.542a4.02 4.02 0 0 1 .495.524.98.98 0 0 1-.249 1.133zm-25.683-18.899l.634-3.511c.222-.748.497-1.48.824-2.19l1.156-2.698a1.91 1.91 0 0 1 .545-.826 1.62 1.62 0 0 1 .9-.241c1.13-.042 2.318.309 3.089 1.141s1.015 2.177.401 3.128c-.734 1.146-2.336 1.377-3.293 2.342-.611.616-.908 1.474-1.089 2.321-.477 2.203-.317 4.487-.464 6.737-.047.7-.183 1.5-.787 1.862a2.29 2.29 0 0 1-1.174.228l-1.721.029c-.288 0-1.334.181-1.526-.037-.336-.38.43-2.274.569-2.696l1.049-2.769c.312-.821.887-1.93.887-2.819z"/></g><g class="D"><path d="M217.878 119.741c-.396 1.515-1.587 2.695-2.198 4.14-.92 2.164-.506 4.81-1.807 6.766-.422.594-.932 1.12-1.513 1.56a5.62 5.62 0 0 1-1.049.706c-.389.214-.845.271-1.274.157-.554-.189-.887-.787-.942-1.364-.019-.189-.019-.379 0-.569a7 7 0 0 1 .263-1.151l.941-3.189a7.71 7.71 0 0 0 .378-1.783c.034-.661-.386-1.521-.208-2.137.082-.278.386-.525.525-.758a4.4 4.4 0 0 0 .451-1.073c.215-.731.362-1.513.813-2.129a4.97 4.97 0 0 1 1.023-.957c.283-.249.615-.435.975-.548a2.37 2.37 0 0 1 1.049.05c.445.095.883.219 1.311.372h.024c.524.189 1.08.48 1.246 1.01.08.294.077.604-.008.897zm27.902-32.24c-.016.406-.066.86-.381 1.114a1.43 1.43 0 0 1-.923.218h-.07c-.937 0-1.889-.053-2.775.239-.674.223-1.293.632-1.995.713-.968.11-1.878-.42-2.736-.881a27.15 27.15 0 0 0-2.483-1.18c-.556-.228-1.691-.375-1.959-.983a8.83 8.83 0 0 1-.231-.876 2.84 2.84 0 0 0-.16-.385c-.157-.266-.257-.561-.293-.868.001-.306.106-.602.299-.839a2.51 2.51 0 0 1 .77-.613c.295-.152.617-.244.947-.27a7.61 7.61 0 0 1 1.978.105l6.456.928 1.489.262a2.92 2.92 0 0 1 1.28.561c.763.64.826 1.765.787 2.756z"/></g><path d="M240.105 89.179c-.787 1.66-.22 3.624-.362 5.46-.119 1.032-.353 2.047-.698 3.026l-.996 2.901-1.012 2.376c-.48 1.279-.787 2.719-1.76 3.671-.446 2.145-1.012 4.489-2.777 5.79-1.534 1.133-3.671 1.172-5.462.488s-3.247-1.996-4.529-3.409l-3.805-4.269a23.86 23.86 0 0 0-2.51-2.054l-2.74-1.82c-.575-.393-1.219-.673-1.899-.826-.558-.107-1.136.006-1.613.315a1.48 1.48 0 0 0-.291.262c-.233.327-.41.69-.524 1.075-1.102 2.869-4.057 4.343-6.417 6.299l-2.156 1.786c-.294.244-.619.601-.474.955a.86.86 0 0 0 .451.388c1.253.619 2.724.868 3.757 1.812.378.346.74.802 1.251.828.27-.015.536-.075.787-.175.395-.107.809-.121 1.209-.041s.778.252 1.101.502c.184.179.397.326.63.433.195.052.398.064.598.037.558-.04 1.151-.089 1.652.16s.912.836 1.497.878c.286.021.627-.073.9-.047.075.002.148.023.214.059a.47.47 0 0 1 .163.151c.061.144.103.296.123.451.108.37.47.595.706.899.362.467.414 1.102.378 1.692a7.22 7.22 0 0 1-2.298 4.83 2.84 2.84 0 0 1-1.413.787 1.32 1.32 0 0 1-.801-.085c-.251-.112-.461-.299-.6-.537a2.13 2.13 0 0 0-.262-.577c-.422-.464-1.369.029-1.757-.466-.241-.31-.068-.805-.299-1.125s-.786-.263-1.214-.281c-.501-.026-.965-.262-1.45-.385-.787-.205-1.61-.129-2.415-.184a14.53 14.53 0 0 1-1.988-.315l-3.336-.681c-2.124-.433-4.256-.871-6.278-1.645-.773-.293-1.552-.655-2.098-1.285a3.94 3.94 0 0 1-.818-1.914c-.474-2.798 2.043-5.19 2.36-8.009.113-1.028.525-1.998.913-2.953l2.129-5.121c.115-.318.264-.622.446-.907.302-.365.642-.697 1.015-.989.994-.902 1.707-2.071 2.053-3.367a.91.91 0 0 1 .176-.396 1.48 1.48 0 0 1 .304-.197c.188-.122.328-.303.4-.515a.99.99 0 0 0-.004-.652.68.68 0 0 0 .43-.201c.115-.117.184-.27.194-.433-.019-.142-.01-.286.027-.425.063-.136.22-.205.312-.325.149-.197.097-.472.073-.719a2.3 2.3 0 0 1 0-.469 2.41 2.41 0 0 1 .703-1.466c.627-.616 1.518-.456 2.384-.603.863-.186 1.706-.456 2.517-.805a24.73 24.73 0 0 1 7.109-1.644c2.45-.193 4.911.199 7.18 1.143.331.134.642.31.926.525.202.156.368.353.485.58.097.278.216.547.357.805.281.383.81.506 1.117.868s.333.973.587 1.421c.365.64 1.209.936 1.461 1.631.079.22.089.462.147.69.142.572.566 1.023.941 1.474 1.375 1.644 2.255 3.645 2.539 5.769.084-1.33.978-2.507 2.098-3.241.301-.197.65-.414.71-.771.077-.451-.361-.852-.333-1.311.032-.224.123-.436.263-.614.499-.724 1.048-1.414 1.641-2.064.323-.354.685-.787.551-1.254-.102-.349-.459-.553-.656-.858-.114-.181-.173-.392-.168-.607a1.08 1.08 0 0 1 .195-.599c.183-.249.474-.43.563-.726.103-.349-.125-.726-.055-1.086.096-.288.287-.534.541-.7a4.47 4.47 0 0 1 1.172-.771c.692-.262 1.463-.165 2.197-.063 1.228.17 2.604.433 3.297 1.461.443.642.668 1.618.338 2.305z" fill="#65617d"/><g class="C"><path d="M245.78 87.501c-.016.406-.066.86-.381 1.114a1.43 1.43 0 0 1-.923.218h-.07c.107-.545.771-.858.886-1.411.02-.17.004-.342-.045-.506s-.133-.316-.243-.446c-.562-.758-1.464-1.177-2.361-1.484a15.63 15.63 0 0 0-7.883-.59 7.94 7.94 0 0 0-2.071.637 6.89 6.89 0 0 0-.63.446c-.157-.266-.257-.561-.293-.868.001-.306.106-.602.299-.839a2.52 2.52 0 0 1 .77-.613c.295-.152.617-.244.947-.27a7.61 7.61 0 0 1 1.978.105l6.456.928 1.489.262a2.92 2.92 0 0 1 1.28.561c.771.64.834 1.765.795 2.756zm-27.902 32.239c-.396 1.516-1.587 2.696-2.198 4.141-.92 2.164-.506 4.81-1.807 6.766-.422.594-.932 1.12-1.513 1.56a5.62 5.62 0 0 1-1.049.706 1.73 1.73 0 0 1-1.274.157c-.554-.189-.887-.787-.942-1.364-.019-.189-.019-.38 0-.569l.016.042c.228.551.601 1.128 1.188 1.225.22.016.442-.014.65-.088s.4-.189.561-.34c.866-.694 1.369-1.73 1.849-2.729a11.37 11.37 0 0 0 .887-2.264l.262-1.347c.498-2.167 2.195-3.934 2.57-6.129.03-.151.037-.306.021-.459a2.35 2.35 0 0 0-.226-.572 2.83 2.83 0 0 1-.199-.634c.524.189 1.08.48 1.246 1.009a1.66 1.66 0 0 1-.042.889zm-3.96-3.76c-.243.635-.651 1.192-1.183 1.615a5.77 5.77 0 0 1-2.546 1.102c-.431.11-.883.104-1.311-.016-.583-.202-1.002-.747-1.597-.905-.425-.115-.882-.013-1.312-.076-.773-.107-1.374-.697-1.998-1.169-1.912-1.437-4.421-1.901-6.333-3.339-.085-.052-.155-.125-.204-.212-.037-.094-.051-.196-.04-.296.007-.872.203-1.732.575-2.52a8.77 8.77 0 0 1 1.08-1.54c1.712-2.098 3.433-4.211 5.483-5.981.86-.743 1.799-1.435 2.885-1.77.603-.187 1.794-.362 2.528-.048-.108.074-.206.162-.291.263-.234.326-.411.69-.525 1.075-1.104 2.871-4.059 4.345-6.419 6.301l-2.156 1.786c-.294.244-.619.601-.474.955a.86.86 0 0 0 .451.388c1.253.619 2.724.868 3.757 1.812.378.346.74.802 1.251.829.27-.016.536-.076.787-.176.395-.107.809-.121 1.209-.041a2.65 2.65 0 0 1 1.101.502c.184.179.397.326.63.433.195.052.398.064.598.037.558-.04 1.151-.089 1.652.16s.912.836 1.497.878c.291.021.632-.078.905-.047z" class="B"/></g><path d="M189.8 80.389c-.498.32-1.028.682-1.233 1.238-.168.454-.089.973-.291 1.413s-.655.747-.755 1.219c-.071.344.068.705 0 1.049a4.47 4.47 0 0 0-.144.546c-.026.391.309.708.637.926.698.454 1.493.738 2.32.829s1.665-.013 2.445-.305c.7-.262 1.332-.69 2.003-1.025.655-.377 1.404-.559 2.159-.525.432.047.847.205 1.279.262.214.042.435.032.644-.03a1.35 1.35 0 0 0 .555-.326c.133-.184.223-.397.262-.621.364-1.44.199-2.966-.147-4.413l-1.24-4.28c-.263-1.067-.464-2.161-.902-3.17s-1.175-1.948-2.206-2.334a.41.41 0 0 0-.262-.034.45.45 0 0 0-.171.126 8.06 8.06 0 0 0-1.798 3.026c-.412 1.256-.525 2.588-.903 3.85-.162.525-.372 1.227-.786 1.629s-.997.65-1.466.952z" class="D"/><g class="C"><path d="M199.689 85.031a1.52 1.52 0 0 1-.276.621c-.155.153-.346.265-.555.327a1.33 1.33 0 0 1-.643.027c-.43-.052-.844-.212-1.277-.262-.755-.035-1.504.147-2.158.525l-2.006 1.023c-1.017.385-2.128.449-3.181.181-.56-.141-1.092-.375-1.574-.692-.33-.215-.663-.525-.637-.926a4.62 4.62 0 0 1 .144-.543c.068-.344-.068-.705 0-1.049.1-.472.556-.787.755-1.222s.124-.957.289-1.411c.204-.559.737-.918 1.235-1.24s1.091-.569 1.49-.96a1.52 1.52 0 0 0 .139-.194 4.74 4.74 0 0 0 .624-1.445c.385-1.264.49-2.594.899-3.852a8.08 8.08 0 0 1 1.802-3.024.39.39 0 0 1 .168-.126.42.42 0 0 1 .262.031c1.028.388 1.765 1.327 2.205 2.337s.627 2.098.902 3.168l1.241 4.282c.346 1.445.516 2.982.152 4.424zm7.799-31.983c-1.233.392-2.568.314-3.747-.218a5.24 5.24 0 0 1-2.641-2.666 6.03 6.03 0 0 1 .105-.732c.262-1.206 1.384-.766 2.271-.446a17.85 17.85 0 0 1 3.081 1.335 2.21 2.21 0 0 1 .76.645c.388.58.234 1.351.171 2.082z" class="B"/></g><path d="M205.904 53.033c2.896 0 5.245-2.348 5.245-5.245s-2.349-5.245-5.245-5.245-5.245 2.348-5.245 5.245 2.348 5.245 5.245 5.245z" class="I"/><path d="M220.135 86.982c0 .435-.59.574-1.027.551-1.574-.092-3.113-.525-4.671-.393-1.969.178-3.779 1.267-5.753 1.366-.761.039-1.535-.073-2.285.066-.97.181-1.835.771-2.824.855-.857.074-1.704-.249-2.562-.215-.599.036-1.184.202-1.712.488a2.41 2.41 0 0 1 .703-1.466c.626-.616 1.518-.456 2.383-.603.863-.186 1.707-.456 2.518-.805a24.73 24.73 0 0 1 7.109-1.644 15.52 15.52 0 0 1 7.177 1.136c.331.134.642.31.926.524a.4.4 0 0 1 .018.142z" class="B C"/><path d="M203.478 57.365l-2.124-.787-.897-.33c-.365-.153-.75-.255-1.143-.304-1.028-.079-1.996.606-2.544 1.479s-.755 1.914-.931 2.929l-.613 4.18a27.33 27.33 0 0 0-.276 3.813c.06 3.247.748 6.449 1.503 9.608.37 1.401.649 2.825.836 4.261l.155 1.783.289 1.993.632 3.768c.786-.559 1.68-1.049 2.648-1.078.858-.031 1.707.288 2.562.215.984-.081 1.854-.671 2.824-.852.75-.139 1.524-.029 2.287-.066 1.972-.1 3.784-1.191 5.751-1.366 1.56-.142 3.11.299 4.673.391.435.026 1.025-.113 1.025-.551 0-.304-.304-.506-.569-.658a28.1 28.1 0 0 1-3.553-2.536c-1.033-.818-2.082-1.657-2.793-2.764-1.712-2.662-1.125-6.262-2.585-9.071-1.188-2.282 0-5.271 0-7.844 0-1.282 0-2.58-.302-3.826-.188-.697-.423-1.38-.703-2.045l-1.02-2.583c-.021-.075-.063-.144-.12-.197-.069-.047-.151-.072-.234-.071a2.46 2.46 0 0 0-1.694.543c-.48.391-.787.952-1.259 1.358-.516.448-1.182.842-1.825.606z" fill="#e3e8f4"/><g class="D"><path d="M206.906 55.875c.167-.719.348-1.466.828-2.027s1.356-.858 1.975-.456c.703.456.732 1.511 1.332 2.098.525.503 1.311.543 2.025.608 1.282.117 2.542.413 3.742.881.234.073.447.2.621.372.328.372.262.944.425 1.408.223.598.839.978 1.078 1.573.262.661 0 1.4-.22 2.08l-1.031 3.711c-.386 1.225-.934 2.431-1.836 3.354-.398.409-.991.787-1.515.543l-.202 1.455a2.47 2.47 0 0 0 0 .931c.03.154.103.296.211.41s.245.196.397.235c.039.225.278.333.472.456a1.31 1.31 0 0 1 .36.369 1.32 1.32 0 0 1 .19.479c.031.171.028.346-.009.516a1.32 1.32 0 0 1-.208.472c-.165.223-.409.399-.488.663-.118.383.163.787.504.997s.742.307 1.088.509c.719.414 1.104 1.23 1.351 2.022.183.598.335 1.246.786 1.681.173.165.381.291.546.464a1.99 1.99 0 0 1 .469 1.204c.072.548-.048 1.104-.341 1.573-.524.75-1.502.973-2.36 1.311-1.392.572-2.538 1.594-3.766 2.465a4.01 4.01 0 0 1-1.717.808c-.85.113-1.686-.262-2.541-.296a6.31 6.31 0 0 0-1.516.199l-1.573.341c.083-1.219-.588-2.441-.963-3.603-.708-2.187-.839-4.526-.671-6.818s.634-4.552 1.096-6.802c.322-1.573.291-3.218.787-4.746.464-1.471 1.127-2.885 1.371-4.416.399-2.478-1.259-4.579-.697-7.023z"/><path d="M218.835 60.724a2.9 2.9 0 0 1 .301.852c.122.462.349.889.664 1.248.264.233.498.497.697.787.242.456.15 1.012.263 1.511.131.543.511 1.015.566 1.573a2.93 2.93 0 0 0 .045.477c.17.635 1.104.787 1.311 1.421.139.412-.1.86-.055 1.293a1.15 1.15 0 0 1 .023.409c-.059.155-.163.288-.299.383a6.03 6.03 0 0 0-1.725 3.071 17.49 17.49 0 0 0-.396 3.548l-1.025-1.356a1.56 1.56 0 0 0-.41-.42c-.131-.079-.283-.118-.417-.197-.388-.22-.54-.687-.689-1.107-.415-1.162-1.037-2.238-1.836-3.178-.417-.49-.902-.983-.994-1.621a3.03 3.03 0 0 1 .047-.876c.263-1.718.543-3.477 1.38-5.001l1.272-2.082c.251-.48.605-1.728 1.277-.737zm-25.87 1.649a1.19 1.19 0 0 1-.163.629.82.82 0 0 1-.377.248c-.147.046-.302.051-.451.014a2.4 2.4 0 0 1-.829-.388l-2.192-1.387c-.408-.246-.801-.516-1.178-.808a10.6 10.6 0 0 1-1.555-1.628l-3.821-4.72-1.159-1.183a17.27 17.27 0 0 1-1.4-1.883c-.409-.606-.834-1.277-.763-2.001.042-.409.239-.787.296-1.193s-.097-.902-.49-1.012a.89.89 0 0 0-.142-.024c-.077-.008-.154-.025-.228-.05-.364-.152-.309-.716-.047-1.012s.65-.462.889-.787a4.74 4.74 0 0 1 .372-.553 1.42 1.42 0 0 1 .611-.307 9.46 9.46 0 0 1 4.655-.176c.262.058.561.163.64.417a.78.78 0 0 1 0 .378 8.34 8.34 0 0 0-.199 1.573c-.001.11.005.221.018.33.123 1.112.844 2.053 1.547 2.921l2.531 3.081a12.07 12.07 0 0 0 1.534 1.639c.524.435 1.203.787 1.613 1.345.333.451.225 1.067.262 1.61a35.66 35.66 0 0 1 .026 4.925z"/></g><path d="M226.269 73.314c.259-.252.493-.529.698-.826a5.47 5.47 0 0 0 .524-1.172l1.521-4.314.787-2.03 1.031-2.098c.883-1.822 1.566-3.734 2.037-5.704.083-.271.111-.555.081-.837-.073-.454-.417-.808-.744-1.13-.33-.356-.706-.666-1.117-.923a1.84 1.84 0 0 0-.678-.253c-.24-.039-.486-.029-.723.028-.671.197-1.093.884-1.248 1.573s-.097 1.395-.163 2.098c-.094 1.007-.44 1.98-.524 2.989l-.071 1.757a6.42 6.42 0 0 1-.787 2.169c-.852 1.595-2.003 3.01-3.39 4.17a5.48 5.48 0 0 0-1.018.978c-.246.369-.413.785-.49 1.222-.174.665-.099 1.372.212 1.985.428.729 1.248 1.049 2.033 1.212 1.059.22 1.303-.142 2.029-.894z" class="I"/><path d="M205.935 40.188a2.45 2.45 0 0 1 .994-1.002c.423-.229.903-.328 1.382-.286a2.62 2.62 0 0 1 1.295.631c.365.327.63.75.766 1.22.124.391.173.823.388 1.159.326.506.929.653 1.38 1.02a2.76 2.76 0 0 1 .637.887c.151.335.234.697.244 1.064.025.751-.093 1.499-.349 2.205a7.04 7.04 0 0 0-.262.923c-.052.304-.058.614-.105.918a2.98 2.98 0 0 1-.401 1.114c-.207.341-.48.637-.803.871-.092.075-.206.117-.325.118-.204-.024-.33-.262-.406-.477-.417-1.204-.318-2.675-1.086-3.635a3.97 3.97 0 0 0-1.243-.926 1.6 1.6 0 0 0-.635-.239 1.67 1.67 0 0 0-.917.336 5.72 5.72 0 0 1-1.815.803 2.23 2.23 0 0 1-.983.01c-.325-.07-.629-.211-.892-.414-.362-.299-.627-.747-1.028-.981s-.821-.22-1.217-.38c-.252-.107-.477-.271-.656-.478a1.79 1.79 0 0 1-.38-.718 1.81 1.81 0 0 1-.026-.812 1.8 1.8 0 0 1 .333-.741c.262-.315.651-.493.884-.842.301-.451.275-1.07.419-1.61.086-.342.251-.658.484-.923s.524-.471.851-.6c.318-.108.659-.129.987-.06a1.87 1.87 0 0 1 .88.451c.263.236.472.54.729.787a2.1 2.1 0 0 0 .904.51c.339.092.695.097 1.037.015" class="D"/><path d="M210.246 78.787c-.152.136-.26.315-.31.513a1.01 1.01 0 0 0 .033.599c.057.123 2.763-.399 3.049-.438.714-.102 1.964-.053 2.444-.705.855-1.156-1.793-.899-2.278-.858-.924.079-2.235.205-2.938.889z" class="B C"/><use xlink:href="#D" class="D"/><g class="C"><use xlink:href="#D" class="B"/><path d="M205.466 94.744c.378.126.787.309.915.687l-3.037-.771-1.573-.401c-.278-.071-1.275-.152-1.458-.37-.262-.32.669-.1.836-.076l1.524.246c.955.171 1.872.451 2.793.684zm1.177 2.688c-.262-.176-1.014-.155-1.337-.231l-1.4-.406-2.843-.881c-.178-.039-.787-.05-.758-.275s.608-.304.753-.315c.857-.063 1.927.338 2.724.624a12 12 0 0 1 2.861 1.484zm-1.924-5.085c-.963-.262-1.836-.86-2.827-.975a1.15 1.15 0 0 1-.722-.22c-.116-.115-.197-.26-.233-.42.664-.034 1.435.246 2.038.511a6.37 6.37 0 0 1 .954.509c.22.134.551.519.79.595z" class="B"/></g><g class="D"><path d="M223.065 68.867a4.58 4.58 0 0 0 .663 3.133c.59.931 1.496 1.618 2.552 1.936-.129.621-.771.965-1.225 1.408-.64.621-.97 1.552-1.725 2.025-.842.525-1.925.32-2.885.1-.087-.01-.168-.052-.226-.118a.35.35 0 0 1-.042-.102c-.317-1.162-.524-2.402-.199-3.567.262-.991.892-1.836 1.395-2.712s.551-1.815 1.692-2.103zM199.618 53.83a6.82 6.82 0 0 0-2.885.878c-.587.336-1.19.787-1.862.705-.395-.045-.786-.262-1.172-.157a2.3 2.3 0 0 0-.6.357.68.68 0 0 1-.661.105l-.262 3.629c-.1 1.379-.197 2.788.133 4.133.171.687.546 1.311.588 2.009l.029 2.119.228 1.948c.073 1.233-.231 2.455-.525 3.653-.443 1.767-.71 3.574-1.573 5.174-.241.443-.525.894-.525 1.398a.71.71 0 0 0 .016.184l-.729.422c-.498.323-1.03.682-1.235 1.24-.165.454-.089.973-.288 1.411s-.656.75-.756 1.222c-.07.344.066.705 0 1.049a4.61 4.61 0 0 0-.144.543c-.026.393.307.711.637.926.482.318 1.014.552 1.574.692l1.565-6.215a50.02 50.02 0 0 0 3.548-8.253 17.69 17.69 0 0 1 1.026-2.717 12.73 12.73 0 0 0 .786-1.542c.239-.661.263-1.377.378-2.074a14.53 14.53 0 0 1 .616-2.394c.284-.842.611-1.681.669-2.565.087-1.264-.372-2.599.115-3.768a5.02 5.02 0 0 1 .8-1.204l1.97-2.525c-.352-.375-.937-.414-1.461-.383z"/></g><g class="B C"><path d="M207.008 39.325l-.328.024-.037.026a1.94 1.94 0 0 0 .365-.05zm6 5.444a7.06 7.06 0 0 1-.336 1.532c-.108.301-.196.61-.262.923-.052.304-.058.614-.105.918-.058.394-.194.773-.401 1.114s-.48.637-.803.871a.52.52 0 0 1-.325.118c-.204-.024-.33-.262-.406-.477-.417-1.204-.318-2.675-1.086-3.635a3.97 3.97 0 0 0-1.243-.926 1.6 1.6 0 0 0-.635-.239 1.67 1.67 0 0 0-.917.336c-.554.371-1.168.643-1.815.802a2.23 2.23 0 0 1-1.875-.404c-.362-.299-.627-.747-1.028-.981s-.821-.22-1.217-.38c-.247-.106-.468-.266-.645-.468a1.79 1.79 0 0 1-.378-.701.68.68 0 0 1-.02-.1 1.83 1.83 0 0 0 .02.886 1.79 1.79 0 0 0 .378.701c.177.202.398.362.645.468.396.16.842.163 1.217.38s.666.682 1.028.981a2.23 2.23 0 0 0 1.875.404c.647-.16 1.261-.431 1.815-.802a1.67 1.67 0 0 1 .917-.336 1.6 1.6 0 0 1 .635.239 3.98 3.98 0 0 1 1.225.934c.768.96.668 2.431 1.085 3.635.076.218.202.454.407.477a.52.52 0 0 0 .343-.126 2.99 2.99 0 0 0 .806-.874 3 3 0 0 0 .401-1.119l.105-.918a6.89 6.89 0 0 1 .262-.923c.255-.706.374-1.455.349-2.205l-.016-.105z" class="B"/></g><path d="M196.416 65.811l-.178 2.394c-.026.325-.648 8.066-5.232 17.114-3.933 7.76-11.588 17.866-26.04 23.546-1.128.446-2.298.862-3.511 1.249l-1.354-4.249a49.64 49.64 0 0 0 9.761-4.269c7.366-4.253 13.093-10.324 17.087-18.136a48.75 48.75 0 0 0 4.485-13.191h-16.443v-4.458h21.425z" class="E"/><path d="M163.196 108.868c14.449-5.68 22.106-15.784 26.037-23.544 4.584-9.047 5.208-16.783 5.232-17.114l.178-2.394h1.836l-.178 2.394c-.024.325-.648 8.066-5.232 17.114-3.934 7.76-11.588 17.864-26.038 23.544-1.127.446-2.298.863-3.514 1.251l-.178-.559 1.857-.692z" class="B F"/><path d="M134.266 105.865l-1.353 4.249-3.514-1.251c-14.45-5.68-22.107-15.784-26.038-23.544-4.584-9.047-5.208-16.783-5.232-17.114l-.178-2.394h21.414v4.458H102.92c.86 4.59 2.375 9.032 4.498 13.191 3.994 7.812 9.718 13.883 17.085 18.134a49.52 49.52 0 0 0 9.763 4.271z" class="E"/><path d="M131.166 108.868c-14.449-5.68-22.107-15.784-26.037-23.544-4.584-9.047-5.209-16.783-5.232-17.114l-.178-2.394h-1.836l.178 2.394c.024.325.648 8.066 5.232 17.114 3.933 7.76 11.588 17.864 26.037 23.544 1.128.446 2.299.863 3.514 1.251l.179-.559-1.857-.692z" class="B F"/><path d="M171.92 146.932v24.039h-49.476v-24.039l1.573-2.098c16.034-5.691 19.283-20.531 19.931-26.402a24.36 24.36 0 0 0 .165-2.444h6.118a24.07 24.07 0 0 0 .165 2.444c.658 5.871 3.907 20.717 19.93 26.402l1.594 2.098z" class="E"/><path d="M171.92 146.932h-49.476v3.016h49.476v-3.016z" class="B C"/><path d="M126.64 144.834c16.033-5.691 19.282-20.531 19.93-26.402a24.36 24.36 0 0 0 .165-2.444h-2.622a24.36 24.36 0 0 1-.165 2.444c-.659 5.871-3.908 20.717-19.931 26.402l-1.573 2.098v24.039h2.622v-24.039l1.574-2.098z" class="B F"/><g class="C"><path d="M114.928 65.811h4.437v4.458h-4.043l-.394-4.458zm19.338 40.054l-1.353 4.249-3.514-1.251c-1.855-2.265-3.494-4.699-4.896-7.269a49.52 49.52 0 0 0 9.763 4.271zm25.833 0a49.66 49.66 0 0 0 9.76-4.269 47.13 47.13 0 0 1-4.896 7.272 54.24 54.24 0 0 1-3.511 1.248l-1.353-4.251zm19.335-40.054l-.394 4.458h-4.041v-4.458h4.435zm-29.028 52.621c-2.129.412-4.318.412-6.448 0l.165-2.444h6.118a24.36 24.36 0 0 0 .165 2.444z" class="B"/></g><path d="M115.453 58.427c.113 33.058 14.273 59.79 31.731 59.79s31.615-26.733 31.73-59.79h-63.461z" class="E"/><path d="M121.091 58.427h-5.638c.113 33.058 14.273 59.79 31.731 59.79a17.19 17.19 0 0 0 2.819-.239c-16.138-2.696-28.805-28.293-28.912-59.551z" class="B F"/><path d="M164.009 156.134h-33.653v8.654h33.653v-8.654z" class="D"/><path d="M131.929 157.314h32.08v-1.18h-33.653v8.654h1.573v-7.474z" class="B F"/><path d="M97.505 90.344c-.606-.202-4.172-3.024-4.442-4.301s1.885-13.175 1.885-13.175-.199 0-.524-.039v-.192l.443-15.629s1.817-10.489-1.615-9.878-1.28 9.878-1.28 9.878-.391 4.705-.666 6.115c-.262 1.361-1.463 6.905-.645 8.628a1.86 1.86 0 0 0 .1.178s.136 5.913-1.345 6.721c-1.413.768-2.001 4.636-2.051 4.983l-.076-.031a4.11 4.11 0 0 1-1.094-.999c-.031-.039-.055-.081-.084-.123a5.77 5.77 0 0 0-.155-7.833c-.468-.486-1.017-.887-1.623-1.185-.018-.501-.136-.993-.349-1.448-.682-1.458-4.458-3.364-7.141-3.409-1.238-.037-2.253.315-2.622 1.282-.189.49-.131 1.049-.21 1.558-.157 1.049-.831 1.87-1.697 2.523a10.63 10.63 0 0 0-1.13-1.088c-.876-.671-2.622-2.885-2.622-2.885s-5.452-5.646-5.856-7.193-5.85-10.838-7.062-9.22 4.172 8.67 4.172 8.67 1.023 2.562 1.809 3.427 6.818 9.624 6.818 9.624l.288.598c-1.275.671-2.439 1.526-2.851 2.858-.603 1.962.716 3.934 1.628 5.769 1.778 3.582 2.032 8.15-.262 11.423-2.056 2.89-5.622 4.264-8.961 5.465 1.612 1.266 3.615 1.931 5.664 1.881-.771 2.234-3.503 2.973-5.832 3.388 1.222 1.174 2.971 1.602 4.65 1.862a14.02 14.02 0 0 0 2.489.196h.204l.205-.016c.284-.018.567-.054.847-.107 1.212-.247 2.389-.907 3.008-1.977.525-.916.708-2.164 1.66-2.623a2.12 2.12 0 0 1 .787-.186h-.029.54l3.968.039h.506c1.12-.026 2.316-.22 2.885-1.146.234-.449.357-.948.359-1.455.084-1.256 0-2.549.034-3.815.338 2.305.692 5.897-.15 7.225a12.32 12.32 0 0 1-2.46 2.667 4.71 4.71 0 0 0-.65.666c-.129.092-.205.142-.205.142l-.081.244c-.299.453-.516.955-.64 1.484a1.03 1.03 0 0 0-.05.422c.092.186-.656.955-.438 1.277-1.867 2.19-2.221 5.507-2.221 5.507l-3.409 5.177c-1.752 4.602-4.374 5.074-4.374 5.074l-6.328-4.335c-.168-.202-2.523-1.211-2.523-1.211a2.67 2.67 0 0 0-1.212-1.107c-.808-.336-.876-1.573-.876-1.573-.1-2.924-1.817-3.147-1.817-3.147-1.385-.118-2.441.128-3.254.579l-.247.019-4.196.309c-4.377.289-5.418 3.123-5.418 3.123s-.538.606.168 1.262 5.221 0 5.413-.016a2.94 2.94 0 0 1-1.028-.071c.711-.026 1.689-.052 2.523-.052h.202a10.92 10.92 0 0 0-.076 1.332c0 .839 2.321 1.377 2.321 1.377l7.067 6.293s4.442 1.986 7.269 4.841 5.326.391 5.326.391c2.992-.739 11.601-11.148 11.609-11.158 0 .304.181 10.426.525 12.459a1.34 1.34 0 0 0 .076.301c.404.874-.136 3.26-.37 4.267-.149.843-.206 1.699-.171 2.554 0 0-3.228 12.325-2.961 13.408s-1.749 6.116-1.749 6.116v4.196l.351-.019c-.046.068-.088.138-.126.21l-.024.045s2.153.469 3.601.335 3.933 1.115 3.933 1.115.842.398 3.433.566 2.591-1.143 2.591-1.143c-.296-1.786-4.39-2.384-4.516-2.402a12.01 12.01 0 0 1-.894-.627l-.052-.042a1.09 1.09 0 0 0 .045-.121c.438-1.783-1.985-2.556-1.985-2.556v-.436c1.573-.807 1.885-6.351 1.885-6.351l2.691-7.998c.33-1.144 0-2.856 0-2.856l.236-1.479s.506-1.007.506-1.209c.066-.512.263-.998.572-1.411.37-.438-.404-1.479-.404-1.479l.674-1.746v-1.917l1.574-6.955s1.649-8.1 1.078-10.752.674-3.999.674-3.999c-.112.059-.228.112-.346.158.158-.364.293-.738.407-1.118l3.54.438v.053h1.277s-.404-4.983-.404-6.991 1.361-9.218 1.361-9.218.606-7.046 0-7.248zm-15.716-5.816c0 .197-.018.401-.031.611l-.071.108-.131-.11-.16.249-.047.024c-.346-.178-.525-1.198-.774-.978l-.034.029c-.055-.063-.11-.081-.168-.029l-.052.045v-.233a5.9 5.9 0 0 0 1.469.186c.003.034 0 .068 0 .1zm11.775 23.203h.076l-.126.33.05-.33zm-12.926 59.468l-.482-.121.262-.045.244.16.029.021-.053-.015zm4.93-.706a7.24 7.24 0 0 1-.48-.28c.052.028.26.136.48.28z" fill="url(#B)"/><path d="M95.305 102.776l-3.176 8.276h.771l-2.987 2.382 5.392.671v-11.329z" class="H"/><path d="M95.305 102.776l-3.176 8.276-.8-.215-1.416 2.597 5.392.671v-11.329z" class="B C"/><path d="M90.325 108.071h4.98l1.828-15.039h-6.808v15.039z" class="H"/><path d="M90.325 108.071h4.98l1.828-15.039h-6.808v15.039z" class="B C"/><path d="M80.599 96.593l1.075-.181 2.47-.419 8.95-1.809c.928-.123 1.833-.38 2.685-.766l.656-.304-2.672-4.88-4.146-3.074s-2.622-.558-3.732-2.085c-.248-.328-.409-.714-.469-1.12s-.017-.822.125-1.208c.677-2.098-4.041 2.006-4.041 2.006v2.237c0 .247-.024.504-.042.766 0 .173-.024.346-.042.524-.115 1.246-.351 2.528-.818 3.294-1.141 1.872 0 7.02 0 7.02z" class="G"/><path d="M81.501 85.094h.105c.189 0 .341-.401.524-.42 1.476-.142 2.824-.451 3.76-1.497a2.46 2.46 0 0 1-.343-2.326c.677-2.098-4.041 2.004-4.041 2.004s.05.986-.005 2.239z" class="B C"/><path d="M75.758 79.146c0 .755.148 1.503.437 2.2a5.75 5.75 0 0 0 3.111 3.111c.698.289 1.445.437 2.2.437l.561-.026a5.75 5.75 0 0 0 4.896-3.916 5.75 5.75 0 0 0-1.596-6.063 5.75 5.75 0 0 0-6.19-.998 5.75 5.75 0 0 0-3.42 5.255z" class="G"/><path d="M73.993 70.422c-.189.488-.131 1.033-.207 1.55-.281 1.865-2.177 2.982-3.892 3.763s-3.65 1.707-4.196 3.509c-.598 1.948.708 3.902 1.615 5.73 1.767 3.561 2.019 8.103-.262 11.36-2.027 2.885-5.559 4.254-8.885 5.455 1.6 1.259 3.589 1.921 5.625 1.872-.763 2.221-3.477 2.958-5.79 3.367 1.214 1.17 2.953 1.595 4.618 1.852 1.214.188 2.46.312 3.671.068s2.36-.902 2.984-1.967c.524-.91.703-2.15 1.649-2.609.427-.168.888-.236 1.345-.197l3.934.042c1.225 0 2.675-.094 3.307-1.141.233-.447.355-.943.357-1.447.17-2.581-.325-5.308.737-7.663.32-.711-1.733-1.836-1.518-2.588.739-2.588.926-4.626.918-7.319 0-2.085 1.356-3.881 2.476-5.641s2.056-3.981 1.172-5.869c-.997-2.106-8.481-5.166-9.658-2.127z" class="D"/><path d="M79.23 166.443l1.002.663.155.102.029.019 1.188.786 2.775.467 2.439-.168s.703-1.468-.401-1.434a2.3 2.3 0 0 1-1.007-.291l-.152-.076-.477-.278-.886-.624-.611-.499-4.052 1.333z" class="G"/><path d="M80.245 167.106l.155.102.029.019 1.188.786 2.774.467 2.439-.168s.703-1.468-.401-1.434a2.3 2.3 0 0 1-1.007-.291c.194.152.357.317.372.456.045.375-1.804 1.049-1.804 1.049l-2.607-.69-1.049-.283-.058-.016-.031.003z" class="B C"/><path d="M75.787 167.746s2.137.466 3.574.333 3.913 1.104 3.913 1.104.837.393 3.409.561 2.573-1.138 2.573-1.138c-.294-1.776-4.358-2.36-4.484-2.387.05.027.262.134.477.278.288.189.6.436.624.635.045.372-1.804 1.049-1.804 1.049l-2.607-.687-1.049-.286h-.058c-.898-.245-1.811-.433-2.733-.564-1.122-.12-1.697.834-1.815 1.049-.009.017-.016.035-.021.053z" class="D"/><path d="M42.1 120.587l1.136.871.823-.031h.157l2.504-.053a7.98 7.98 0 0 1 1.597.089c.566.2 1.573-3.241 1.573-3.241l-1.138-.262-.378-.089-.262-.063-.926-.218-2.806.32-1.972 1.269-.309 1.408z" class="G"/><path d="M42.1 120.587l1.136.871.823-.031a1 1 0 0 1-.524-.47c-.734-2.037 2.908-2.908 2.908-2.908l1.697-.073.33-.016h.262l-.378-.089-.262-.063-.926-.218-2.806.32-1.972 1.269-.288 1.408z" class="B C"/><path d="M39.86 121.508c.687.635 5.187 0 5.376-.016-.341.039-.687.015-1.02-.071a1.11 1.11 0 0 1-.457-.193c-.136-.097-.249-.224-.33-.37-.734-2.041 2.908-2.909 2.908-2.909l1.697-.073.328-.016 4.125-.178.199-1.135-3.443.293-4.178.307c-4.345.288-5.379 3.108-5.379 3.108s-.527.603.173 1.253z" class="D"/><g class="G"><path d="M90.328 72.286a1.16 1.16 0 0 0 .1.178l1.002 1.469 2.607.262.029-1.033.438-15.546s1.804-10.427-1.605-9.826-1.269 9.826-1.269 9.826l-.661 6.084c-.265 1.358-1.453 6.881-.64 8.586zm-5.851 38.612l.742 1.269 1.66 2.84s3.01 1.104 3.781.262c.422-.459.879-2.061 1.199-3.409l.438-2.011-7.82 1.049z"/></g><g class="C"><path d="M84.477 110.898l.742 1.269a.84.84 0 0 0 .126-.134c.839-1.07 4.534-.228 6.514-.16l.438-2.011-7.82 1.036zM46.72 121.369a7.98 7.98 0 0 1 1.597.089c.566.2 1.573-3.241 1.573-3.241l-1.516-.357 4.125-.178.199-1.135-3.443.293a4.32 4.32 0 0 0-1.146.957l-.063.079c-.878 1.078-1.204 2.468-1.327 3.493zm32.51 45.074l1.156.765c1.726-.312 3.302-.802 3.488-1.573.001-.012.001-.025 0-.037l-.611-.498-4.033 1.343zm-3.42 1.258a40.1 40.1 0 0 0 4.547-.488 22.55 22.55 0 0 0-2.735-.569c-1.12-.12-1.694.834-1.812 1.057z" class="B"/></g><path d="M46.846 122.693c0 .837 2.305 1.372 2.305 1.372l7.02 6.249s4.411 1.972 7.217 4.812 5.282.401 5.282.401c2.974-.734 11.538-11.095 11.538-11.095s.199 11.832.6 12.7-.134 3.241-.367 4.246c-.147.837-.204 1.688-.168 2.538 0 0-3.207 12.265-2.94 13.335s-1.739 6.084-1.739 6.084v4.177s7.854-.301 8.287-2.071-1.969-2.542-1.969-2.542v-.435c1.573-.802 1.87-6.315 1.87-6.315l2.675-7.953c.333-1.136 0-2.843 0-2.843l.233-1.468s.501-1.005.501-1.204c.066-.509.261-.992.569-1.403.367-.435-.401-1.471-.401-1.471l.669-1.739v-1.904l1.573-6.917s1.639-8.056 1.07-10.697.669-3.976.669-3.976c-2.683 1.406-4.036-1.723-4.479-3.068-.113-.346-.168-.577-.168-.577s-3.684-1.358-7.115-1.033a8.16 8.16 0 0 0-2.043.433c-3.81 1.371-4.411 7.051-4.411 7.051l-3.375 5.148c-1.739 4.579-4.345 5.045-4.345 5.045l-6.294-4.311c-.178-.202-2.507-1.203-2.507-1.203a2.65 2.65 0 0 0-1.204-1.102c-.802-.335-.868-1.573-.868-1.573-.1-2.908-1.804-3.147-1.804-3.147-5.916-.493-5.882 5.622-5.882 6.456z" class="D"/><path d="M80.869 106.353h3.608V95.158h-3.608v11.195z" class="H"/><g class="C"><path d="M80.869 106.353h3.608V95.158h-3.608v11.195zm9.456-34.091c-.001.008-.001.016 0 .024a1.15 1.15 0 0 0 .1.178l1.002 1.469 2.607.262.029-1.033c-.813-.063-2.664-.286-3.737-.9z" class="B"/></g><path d="M90.428 72.464s.134 5.879-1.337 6.682-2.043 4.983-2.043 4.983 4.458 2.932 5.452 4.222 3.275 4.364 2.806 5.098 1.138 4.078 1.138 4.078-2.942 6.016-2.274 8.29.734 8.286.734 8.286h1.272l-.401-6.951c0-2.007 1.335-9.158 1.335-9.158s.603-7.017 0-7.217-4.143-3.008-4.411-4.28 1.872-13.112 1.872-13.112-2.74-.118-4.143-.92z" class="H"/><path d="M80.801 94.12a5.72 5.72 0 0 0 .873 2.292l2.47-.42 8.95-1.809a9.56 9.56 0 0 0 2.685-.766c-.588-2.083-1.735-3.965-3.317-5.441l-.941-.873c-1.387-1.288-2.995-2.316-4.746-3.034.11.092 7.893 6.737 6.189 8.04s-6.294-1.87-6.294-1.87l-5.219-4.484-.189-.162-.302.469a4.38 4.38 0 0 1 .448.215 7.68 7.68 0 0 1 3.671 4.563c1.073 3.606-4.28 3.281-4.28 3.281z" class="B C"/><path d="M79.196 110.83s4.946 2.74 6.147 1.203c.262-.338.816-.485 1.505-.524l-.168-.577s-3.684-1.359-7.114-1.033l-.37.931z" fill="#444053"/><path d="M81.472 85.597l5.407 4.652s4.571 3.183 6.294 1.87-6.192-8.043-6.192-8.043c1.748.721 3.354 1.745 4.744 3.026l.942.873c2.475 2.295 3.034 2.295 3.118 5.667.021.831-.262 2.025-.48 2.239-.802.787-1.364 6.501-1.24 7.17s-1.495 6.44-.97 8.045-6.556-.802-7.754.737-6.144-1.204-6.144-1.204 2.74-7.02 3.409-7.487 1.471-4.077 0-5.748-1.602-3.275-1.602-3.275 5.35.33 4.277-3.275c-.302-1.045-.825-2.013-1.535-2.837s-1.589-1.486-2.577-1.94l.304-.469z" fill="#e8e8f0"/><path d="M88.689 97.429s-2.074 3.91-4.757 4.925l-.262.087c-2.801.852 5.229-3.8 5.019-5.012z" class="B C"/><path d="M59.68 62.838s1.002 2.541 1.804 3.409 6.75 9.559 6.75 9.559l.503 1.049.433.894 3.81-.401.262-1.537-.147-.178c-.383-.459-1.427-1.691-2.127-2.229-.868-.666-2.607-2.871-2.607-2.871s-5.413-5.617-5.814-7.154-5.816-10.752-7.017-9.157 4.149 8.617 4.149 8.617z" class="G"/><g class="B C"><path d="M70.736 104.174c-.457-.039-.918.027-1.345.194-.944.459-1.122 1.699-1.647 2.609-.614 1.065-1.783 1.723-2.987 1.967a6.53 6.53 0 0 1-.724.1 8.23 8.23 0 0 0 2.297-.1c1.204-.244 2.373-.902 2.987-1.967.525-.91.703-2.15 1.647-2.609.248-.111.515-.174.787-.183l-1.015-.011zm9.315-20.116c0-2.085 1.356-3.881 2.473-5.641s2.056-3.981 1.172-5.869c-.755-1.613-5.308-3.776-7.935-3.349 2.573.333 5.743 2.027 6.362 3.349.884 1.888-.055 4.109-1.172 5.869s-2.478 3.556-2.473 5.641c0 2.691-.181 4.72-.92 7.319-.212.747 1.836 1.878 1.521 2.586-1.065 2.36-.566 5.082-.737 7.662a3.19 3.19 0 0 1-.359 1.448c-.525.862-1.6 1.085-2.646 1.133h.915c1.222 0 2.672-.095 3.304-1.141a3.19 3.19 0 0 0 .359-1.448c.17-2.58-.328-5.305.737-7.662.32-.708-1.733-1.836-1.521-2.586.739-2.58.926-4.621.92-7.311z" class="B"/></g><g class="C"><path d="M68.738 76.849l.433.894 3.81-.401.262-1.537-.147-.178c-.406.199-3.451 1.665-4.358 1.222z" class="B"/><path d="M82.807 86.9s-.936-1.469-1.471-1.07-.742-1.204-1.049-.936-1.201 1.012-1.573-.029c-.291-.829-3.459-6.071-4.744-8.179l-.537-.881s-3.608 1.804-4.476 1.204v1.269l.734.068 3.934 7.343s1.238 1.969 1.154 2.656 1.587 3.695 1.854 3.894 3.147 3.543 3.147 3.543 1.471 7.22.199 9.226-3.475 3.475-3.475 3.475-.663 1.938-.567 2.139-.771 1.07-.37 1.338.936 2.137.936 2.137 1.872-3.008 2.885-3.475 2.308-6.618 2.308-6.618l.399-5.964c.029-2.339-.089-11.14.713-11.14z" class="B"/></g><path d="M82.605 86.901s-.933-1.469-1.469-1.07-.745-1.204-1.049-.936-1.199 1.012-1.574-.029c-.294-.829-3.462-6.071-4.744-8.179l-.537-.881s-3.608 1.804-4.479 1.204v1.269l.737.068 3.934 7.343s1.24 1.969 1.154 2.656 1.574 3.695 1.854 3.894 3.147 3.543 3.147 3.543 1.471 7.22.202 9.226a12.28 12.28 0 0 1-2.42 2.68c-.785.647-1.337 1.533-1.573 2.523-.046.135-.062.278-.047.419.097.2-.771 1.07-.37 1.338s.941 2.145.941 2.145 1.872-3.008 2.885-3.475 2.31-6.619 2.31-6.619l.399-5.963c.031-2.339-.087-11.156.7-11.156z" class="H"/><g class="C"><path d="M73.448 117.315s2.809.524 3.934 1.335-4.277-1.27-4.277-1.27l.344-.065zm6.752 7.117s2.929 2.441 2.405 4.647l-1.878 7.754-.527-12.401zm-25.618-4.694s-4.128.451-3.86.986 3.86-.493 3.86-.493v-.493zm31.694 20.302s.262.333-1.269 0-.401-1.361-.401-1.361l1.671 1.361zm-.524 4.613s-2.098.333-3.223 0 3.223 0 3.223 0zM81.435 162.7s-.367-.401-2.205.333-2.573.769-3.108.525 5.313-.858 5.313-.858zm2.041-43.531l-2.607 3.627s1.403-3.176 2.607-3.627zM78.409 85.83s-.113 1.204-1.794 1.673-2.001.85-2.001.85m-.574-11.247s-2.219 1.573-4.534 1.24l4.534-1.24zm1.689 33.69s.648.406 2.203-1.372l-2.203 1.372zM91.88 91.943c.063-.325-.163-.627-.375-.881l-.435-.524a2.01 2.01 0 0 0-.286-.294c-.262-.202-.598-.262-.871-.443" class="B"/></g><g class="E"><path d="M232.681.525s-22.078-1.332-19.482 14.14c0 0-.524 2.735 1.962 3.976 0 0 .039-1.146 2.266-.755a10.36 10.36 0 0 0 2.399.115 5 5 0 0 0 2.932-1.212s6.207-2.565 8.62-12.708c0 0 1.786-2.213 1.715-2.782l-3.727 1.592s1.275 2.688.263 4.922c0 0-.121-4.825-.837-4.72-.144.024-1.935.931-1.935.931s2.189 4.681.537 8.085c0 0 .627-5.769-1.222-7.746l-2.622 1.531s2.559 4.836.823 8.782c0 0 .446-6.052-1.376-8.41l-2.376 1.854s2.404 4.767.938 8.04c0 0-.191-7.046-1.452-7.579 0 0-2.08 1.836-2.397 2.586 0 0 1.647 3.462.624 5.287 0 0-.627-4.694-1.141-4.72 0 0-2.071 3.11-2.287 5.245 0 0 .09-3.17 1.786-5.538 0 0-2.003.344-3.173 1.642 0 0 .323-2.198 3.685-2.389 0 0 1.712-2.36 2.168-2.504 0 0-3.341-.278-5.368.619 0 0 1.784-2.074 5.982-1.13l2.347-1.917s-4.4-.601-6.267.063c0 0 2.147-1.836 6.899-.498l2.554-1.526s-3.752-.808-5.987-.524c0 0 2.361-1.272 6.737.108l1.836-.821s-2.748-.54-3.553-.627-.847-.307-.847-.307a9.53 9.53 0 0 1 5.163.574s3.881-1.432 3.813-1.676zM205.45 4.461s-9.965-.603-8.798 6.388c0 0-.233 1.238.884 1.799 0 0 .018-.524 1.025-.344a4.62 4.62 0 0 0 1.083.053 2.25 2.25 0 0 0 1.325-.548s2.806-1.156 3.896-5.74c0 0 .805-1.002.774-1.259l-1.684.719s.577 1.217.124 2.226c0 0-.055-2.182-.378-2.129-.065 0-.876.42-.876.42s.991 2.116.244 3.656c0 0 .283-2.607-.553-3.501l-1.186.692s1.16 2.184.373 3.968c0 0 .202-2.735-.622-3.8l-1.072.847s1.085 2.156.425 3.632c0 0-.087-3.184-.659-3.422 0 0-.938.829-1.083 1.17 0 0 .745 1.573.284 2.386 0 0-.284-2.122-.525-2.129 0 0-.933 1.406-1.033 2.36a5.12 5.12 0 0 1 .808-2.504 2.82 2.82 0 0 0-1.435.742s.147-.991 1.665-1.08c0 0 .787-1.065.981-1.13 0 0-1.51-.126-2.426.281 0 0 .805-.939 2.704-.524l1.049-.865s-1.988-.262-2.832.029c0 0 .97-.829 3.118-.226l1.154-.69s-1.694-.367-2.707-.233c0 0 1.068-.577 3.045.047l.826-.37s-1.243-.247-1.607-.283-.383-.139-.383-.139a4.3 4.3 0 0 1 2.334.262s1.77-.648 1.738-.758z" class="B"/><path d="M240.26 171.15c5.823 0 10.544-.799 10.544-1.784s-4.721-1.783-10.544-1.783-10.545.799-10.545 1.783 4.721 1.784 10.545 1.784z"/><path d="M244.621 166.45a3.06 3.06 0 0 0 1.004-1.518c.131-.601-.126-1.311-.703-1.545-.645-.246-1.335.202-1.856.653s-1.123.968-1.805.871a2.74 2.74 0 0 0 .763-1.175c.149-.45.179-.932.087-1.398a1.08 1.08 0 0 0-.236-.524c-.359-.383-1.007-.22-1.437.081-1.364.96-1.744 2.814-1.752 4.479-.136-.6-.021-1.227-.023-1.835s-.173-1.312-.695-1.634c-.322-.173-.684-.258-1.049-.247-.611-.023-1.296.04-1.713.488-.524.556-.385 1.49.066 2.098s1.141.999 1.775 1.421c.508.303.941.716 1.267 1.209a1.08 1.08 0 0 1 .094.218h3.845a10.71 10.71 0 0 0 2.368-1.642z"/></g></g><defs><linearGradient id="A" x1="212.022" y1="132.908" x2="212.022" y2="27.409" gradientUnits="userSpaceOnUse"><stop stop-color="gray" stop-opacity=".25"/><stop offset=".54" stop-color="gray" stop-opacity=".12"/><stop offset="1" stop-color="gray" stop-opacity=".1"/></linearGradient><linearGradient id="B" x1="10450.5" y1="65713.3" x2="23402.9" y2="65713.3" gradientUnits="userSpaceOnUse"><stop stop-color="gray" stop-opacity=".25"/><stop offset=".54" stop-color="gray" stop-opacity=".12"/><stop offset="1" stop-color="gray" stop-opacity=".1"/></linearGradient><clipPath id="C"><path transform="translate(0 .496)" d="M0 0h300v171.115H0z" class="F"/></clipPath><path id="D" d="M185.628 44.958a8.42 8.42 0 0 0-.2 1.573c-.786.16-1.605-.102-2.36-.364l-2.169-.739c-.131-.084-.291-.115-.444-.087s-.292.115-.384.241c-.349.362-.829 1.049-1.311 1.455a1.07 1.07 0 0 1-.229-.05c-.364-.152-.309-.716-.047-1.012s.651-.462.889-.787a4.75 4.75 0 0 1 .373-.553 1.41 1.41 0 0 1 .611-.307 9.45 9.45 0 0 1 4.654-.176c.263.058.562.163.64.417.026.129.018.263-.023.388z"/></defs></svg>