<svg xmlns="http://www.w3.org/2000/svg" xmlns:xlink="http://www.w3.org/1999/xlink" width="204" height="130" fill="none" xmlns:v="https://vecta.io/nano"><style><![CDATA[.B{opacity:.1}.C{fill:#000}.D{fill:#fdb797}.E{fill:#00bafc}.F{opacity:.6}.G{opacity:.05}.H{fill:#72351c}.I{stroke-miterlimit:10}.J{fill:#f9ce43}.K{fill:#f55f44}]]></style><g clip-path="url(#E)"><path opacity=".5" d="M191.138 111.268c-.366-1.513-1.57-2.652-2.456-3.933-1.066-1.578-1.688-3.414-1.803-5.315a10.65 10.65 0 0 1 1.148-5.493c.853-1.621 2.189-3.298 1.705-5.069-.324-1.191-1.4-2.007-2.457-2.646a24.04 24.04 0 0 0-13.331-3.428c-5.739.234-11.46 2.527-17.089 1.391-5.482-1.11-10.126-3.858-15.862-4.184-4.284-.243-8.522.03-12.815-.439a190 190 0 0 0-31.943-.763 190 190 0 0 0-31.941.763c-4.282.469-8.522.196-12.815.439-5.752.324-10.386 3.076-15.87 4.184-5.631 1.138-11.349-1.157-17.089-1.391a24.04 24.04 0 0 0-13.331 3.428c-1.065.639-2.131 1.455-2.457 2.646-.482 1.768.852 3.445 1.704 5.069.868 1.695 1.265 3.592 1.151 5.493a10.65 10.65 0 0 1-1.801 5.315c-.886 1.279-2.09 2.42-2.457 3.933-.737 3.043 2.22 5.723 5.113 6.931 7.894 3.3 17.494 1.704 24.714 6.3 3.236 2.062 6.068 5.373 9.903 5.497 2.593.083 4.951-1.357 7.216-2.625a69.24 69.24 0 0 1 10.591-4.809c3.196-1.137 6.581-2.049 9.954-1.672 5.15.569 27.41 11.324 37.444 4.968 6.873-4.357 12.234-4.393 17.396-4.97 3.373-.377 6.756.534 9.954 1.672 3.659 1.303 7.202 2.911 10.591 4.809 2.263 1.267 4.624 2.708 7.216 2.625 3.835-.124 6.667-3.435 9.903-5.497 7.216-4.598 16.815-3 24.715-6.3 2.878-1.213 5.837-3.884 5.098-6.929z" fill="url(#A)"/><g class="E"><path d="M190.094 111.206c-.362-1.491-1.553-2.624-2.429-3.89-1.051-1.562-1.665-3.378-1.777-5.257s.28-3.756 1.138-5.432c.852-1.604 2.165-3.262 1.688-5.011-.322-1.178-1.385-1.986-2.429-2.616-3.97-2.392-8.553-3.57-13.184-3.392-5.676.23-11.333 2.499-16.902 1.374-5.424-1.095-10.013-3.818-15.696-4.14-4.237-.239-8.437.03-12.672-.426a187.91 187.91 0 0 0-31.592-.754 187.91 187.91 0 0 0-31.592.754c-4.235.465-8.435.194-12.672.426-5.68.32-10.271 3.042-15.696 4.14-5.567 1.125-11.226-1.144-16.902-1.374-4.631-.179-9.214 1-13.184 3.392-1.044.639-2.107 1.438-2.429 2.616-.477 1.749.852 3.409 1.687 5.011.858 1.676 1.251 3.552 1.138 5.432s-.726 3.695-1.777 5.257c-.878 1.266-2.067 2.393-2.429 3.89-.748 3.009 2.177 5.659 5.035 6.844 7.809 3.262 17.302 1.683 24.438 6.229 3.196 2.039 6.002 5.316 9.801 5.438 2.557.083 4.9-1.343 7.137-2.598 3.352-1.877 6.857-3.468 10.476-4.757 3.164-1.127 6.509-2.028 9.845-1.655 5.113.57 27.122 11.2 37.037 4.915 6.799-4.308 12.1-4.345 17.205-4.915 3.336-.373 6.683.528 9.845 1.655a68.45 68.45 0 0 1 10.476 4.757c2.239 1.253 4.572 2.679 7.137 2.598 3.793-.122 6.594-3.396 9.801-5.438 7.137-4.546 16.631-2.967 24.437-6.229 2.847-1.185 5.772-3.835 5.041-6.844z"/><path d="M8.047 46.706c.609-.213 1.257-.416 1.894-.305 1.065.185 1.813 1.195 2.131 2.233s.307 2.131.509 3.196.686 2.167 1.64 2.676 2.082.309 3.14.185c1.389-.16 2.791-.173 4.182-.038 1.168.113 2.54.507 2.883 1.63.281.916-.277 1.852-.639 2.736-.695 1.653-.75 3.607.045 5.213s2.405 2.804 3.079 4.5c.195.424.252.899.162 1.357-.1.321-.263.618-.482.873l-1.64 1.994c-1.004 1.491-1.278 3.345-1.393 5.137a37.45 37.45 0 0 0 .03 5.29c-1.308-.426-2.753-.047-4.101-.326-2.87-.592-4.662-3.988-7.585-4.195-1.383-.098-2.87.554-4.103-.079a3.1 3.1 0 0 1-1.312-1.491 5.29 5.29 0 0 1-.337-3.558c.213-.822.639-1.628.556-2.474-.07-.724-.505-1.364-1.003-1.894-1.421-1.509-3.483-2.431-4.504-4.236-.464-.857-.658-1.835-.556-2.804s.496-1.885 1.129-2.627c.364-.355.709-.73 1.033-1.123.49-.69.639-1.562.705-2.407.141-2.026-.213-4.172.45-6.14.594-1.781 2.41-2.727 4.089-3.324z" class="F"/></g><g stroke="#535461" class="I"><path d="M8.077 46.766S13.895 79.08 21.45 82.934" class="F"/><path d="M24.265 55.71s-6.232.852-12.457 7.255m1.094 3.753S8.107 62.031.613 62.826m26.396 5.931s-8.752.744-11.993 4.103m1.31 3.13s-4.9-.852-9.423 2.035" class="F"/></g><path d="M188.183 21.323c-.978-.347-2.015-.665-3.036-.488-1.704.298-2.906 1.917-3.409 3.577s-.492 3.43-.816 5.135-1.099 3.471-2.629 4.289-3.336.494-5.034.298c-2.225-.259-4.47-.283-6.699-.07-1.873.181-4.069.814-4.619 2.612-.449 1.47.443 2.966 1.04 4.382 1.114 2.648 1.204 5.782-.073 8.358-1.297 2.621-3.856 4.495-4.934 7.212-.273.69-.445 1.455-.26 2.173.16.515.423.992.773 1.402l2.63 3.196c1.608 2.386 2.045 5.361 2.232 8.233.184 2.823.169 5.656-.047 8.477 2.097-.69 4.415-.075 6.575-.52 4.6-.948 7.472-6.392 12.157-6.724 2.216-.156 4.6.886 6.577-.128.963-.494 1.647-1.417 2.105-2.399a8.49 8.49 0 0 0 .51-5.689c-.348-1.319-1.023-2.608-.891-3.965.113-1.161.807-2.186 1.609-3.034 2.277-2.418 5.584-3.897 7.22-6.788 1.534-2.71 1.146-6.377-.918-8.705-.541-.611-1.185-1.136-1.658-1.8-.786-1.106-1.037-2.503-1.131-3.858-.224-3.249.328-6.686-.722-9.841-.959-2.872-3.867-4.391-6.552-5.335z" class="E F"/><g stroke="#535461" class="I"><path d="M188.128 21.408s-9.326 51.796-21.438 57.972" class="F"/><path d="M162.18 35.744s9.988 1.372 19.967 11.631m-1.755 6.015s7.689-7.519 19.697-6.24m-42.296 9.508s14.027 1.191 19.222 6.579m-2.11 5.015s7.86-1.376 15.106 3.26" class="F"/></g><path d="M16.563 0v5.324 100.181h154.876V5.324 0H16.563z" fill="url(#B)"/><path d="M169.798 4.787H18.859v98.809h150.939V4.787z" fill="#fff"/><path d="M169.798.087H18.859v7.269h150.939V.087z" fill="#eee"/><use xlink:href="#F" fill="#ff5252"/><path d="M29.45 5.373a1.76 1.76 0 1 0 0-3.524 1.76 1.76 0 1 0 0 3.524z" fill="#ff0"/><path d="M34.297 5.373a1.76 1.76 0 1 0 0-3.524 1.76 1.76 0 1 0 0 3.524z" fill="#69f0ae"/><g class="E"><path opacity=".5" d="M80.891 19H24.644v2.344h56.247V19zm0 4.688H24.644v2.344h56.247v-2.344zm0 4.687H24.644v2.344h56.247v-2.344zm0 4.687H44.032v2.344h36.859v-2.344zm-26.632 4.687H24.644v2.344h29.615v-2.344zm9.161 4.687H40.623v2.344H63.42v-2.344zm91.188-7.03H88.347v38.137h66.261V35.406z"/></g><path d="M162.491 39.028H96.231v38.137h66.261V39.028z" fill="#eee"/><path opacity=".5" d="M202.328 74.211a1.01 1.01 0 0 0 .213-.616c0-.021.013-.062.019-.083v-.028-.062-.026a.49.49 0 0 0 0-.077c-.126-.852-5.19-6.404-6.456-13.177a12 12 0 0 0-.624-2.158 2.98 2.98 0 0 0-.068-1.044c-.213-.867-.639-1.747-.426-2.612a2.14 2.14 0 0 1 .117-.33 12.79 12.79 0 0 0 .731-1.212 2.94 2.94 0 0 0 .213-.426c.778-2.05-1.63-4.165-1.187-6.304.192-.927.91-1.736.891-2.68-.024-1.08-1.017-1.918-2.048-2.318s-2.166-.516-3.178-.963c-2.218-.982-3.433-3.354-5.457-4.672-2.571-1.672-5.927-1.374-9.01-.942-.101.015-.198.055-.28.116a.62.62 0 0 0-.193.234h-.03a2.14 2.14 0 0 1-.081.2c-.426.727-1.144 1.278-1.853 1.788-.865.609-1.792 1.21-2.32 2.114-.079.134-.145.262-.203.386-1.15 2.052.232 2.938 1.918 3.43a5.19 5.19 0 0 0-.077.889c0 2.983 2.495 5.418 5.569 5.418.243 0 .486-.016.727-.047l.179.117h.04c.571.411 1.065.927 1.278 1.54l-1.785 1.364a19.22 19.22 0 0 0 .179.486l-7.018 3.234c-2.659.123-6.963-8.252-6.963-8.252s-.639-4.802-2.912-5.665c-.686-.26-.959.283-1.006 1.17-1.016 1.065.691 7.048.691 7.048l5.443 9.607c.507.984.639 1.6 3.038 1.971 1.975.303 8.128-1.883 10.27-2.676l.1.852c-.249.65-.359 1.344-.324 2.039 0 1.57.701 3.854 4.122 5.674 0 0 3.533 4.566 3.141 8.876 0 0 .17.179.443.413-.038 1.214-.213 2.712-.824 3.296-.041.038-.071.086-.088.139s-.019.109-.008.164c-.013.064-.006.13.021.189s.071.109.128.141l-4.459 7.808-.508.639a22.77 22.77 0 0 1-2.746 2.93c-.743.663-1.517 1.387-1.67 1.658-.237.426-.831 1.8-.58 2.936.326 1.377.459 2.792.397 4.205l-.578 10.101a26.14 26.14 0 0 1-.799 3.335h-.087s-2.152 2.586-5.569 3.195-3.292 2.344-2.28 2.587 13.292-.247 13.292-.247.465-.906.337-1.732l9.351-1.017s.744-1.787-.336-2.567a2.52 2.52 0 0 1-.866-1.229l-.202-.91c-.017-.16-.017-.258-.017-.258h-.036c-.19-.952-.341-1.973-.254-2.507.318-1.417 1.14-9.607-.886-11.946-.92-1.065-.795-2.275-.386-3.285 2.431-1.592 5.832-5.015 7.798-7.086a5.72 5.72 0 0 1 .309.275l.064.062s6.692-3.313 6.72-9.161c.01-1.501-.355-2.981-1.061-4.306zm-21.436 41.256c-.012-.213-.004-.427.024-.639l-.213-.023c.123-.929.426-1.969 1.103-2.687 1.164-2.107 1.986-4.385 2.438-6.749l1.229 4.651a23.87 23.87 0 0 0 .158 1.981h-.022s-1.715 2.448-4.717 3.466z" fill="url(#C)"/><use xlink:href="#G" class="D"/><g class="G C"><use xlink:href="#G" class="G"/></g><use xlink:href="#H" class="J"/><g class="G C"><use xlink:href="#H" class="G"/></g><g class="D"><path d="M177.368 48.698s5.352 1.745 2.887 4.811l7.698-3.728s-3.247.241-5.292-4.687l-5.293 3.605zm10.103 31.396l-6.615 11.908 4.453 17.312s.481 3.85-.241 4.21h5.052s-.974-3.408-.723-4.57c.301-1.382 1.083-9.374-.852-11.666s.963-5.292.963-5.292l5.774-9.142-7.811-2.759z"/></g><g class="G C"><path d="M187.471 80.094l-6.615 11.908 4.453 17.312s.481 3.85-.241 4.21h5.052s-.902-3.428-.723-4.57 1.083-9.374-.852-11.666.963-5.292.963-5.292l5.774-9.142-7.811-2.759z" class="G"/></g><path d="M185.437 111.258s-1.833 2.699-5.028 3.555-2.936 2.527-1.958 2.689 12.57-1.242 12.57-1.242.705-1.745-.32-2.508-1.031-2.343-1.031-2.343l-4.233-.151z" fill="#0d134d"/><g class="B C"><use xlink:href="#I" class="B"/></g><path d="M187.834 75.162s.285 3.912-.757 4.939a.32.32 0 0 0-.081.123c-.017.047-.023.097-.016.147s.024.097.052.138.065.075.109.099l3.098 1.651 2.77-5.292-5.175-1.805z" fill="#e23553"/><g class="B C"><path d="M187.834 75.375s.285 3.912-.757 4.939a.32.32 0 0 0-.081.123c-.017.047-.023.097-.016.147s.024.097.052.138a.31.31 0 0 0 .109.099l3.098 1.651 2.77-5.292-5.175-1.805z" class="B"/></g><path d="M187.953 82.859s-1.788 1.193-5.54 6.104c-.784 1.028-1.657 1.986-2.609 2.861-.706.639-1.441 1.355-1.588 1.619-.226.407-.79 1.76-.549 2.868.309 1.346.436 2.728.377 4.107l-.548 9.867s-.722 4.451-1.683 4.932l4.932.852s-.36-3.127 1.083-4.687c0 0 3.368-5.774 2.526-12.27 0 0-.36-2.887 2.887-4.451s9.865-9.142 9.865-9.142l-9.153-2.661z" class="D"/><path d="M176.646 113.533s-2.045 2.527-5.292 3.128-3.128 2.286-2.165 2.526 12.63-.24 12.63-.24.852-1.683-.119-2.527-.722-2.406-.722-2.406l-4.332-.481z" fill="#0d134d"/><g class="B C"><path d="M190.961 76.485s-1.468 4.93-3.328 6.366c-.034.026-.061.06-.077.1s-.022.083-.016.126.024.083.052.116.063.059.103.073c1.538.56 6.481 2.448 8.199 4.165l.059.06s10.284-5.233 4.751-14.134l-9.743 3.128z" class="B"/></g><path d="M190.961 76.365s-1.468 4.93-3.328 6.366c-.034.026-.061.061-.077.1s-.022.083-.016.126.024.083.052.116a.24.24 0 0 0 .103.073c1.538.56 6.481 2.448 8.199 4.165l.059.06s10.284-5.233 4.751-14.134l-9.743 3.128z" fill="#e23553"/><g class="B C"><path d="M182.516 51.92c-.764.514-1.6.913-2.48 1.185l.826 7.357s-1.932 4.325 3.595 7.346c0 0 3.355 4.459 2.983 8.669 0 0 1.8 1.93 3.004 1.451s.119.241.36.121.72.965 4.45.011 6.392-3.471 6.266-4.314-4.915-6.268-6.102-12.888-8.27-11.328-8.27-11.328-.235.13-.64.302c-1.384.588-2.72 1.286-3.992 2.088z" class="B"/></g><g class="B C"><path d="M187.54 82.896a.23.23 0 0 0 .155.241c1.325.484 5.177 1.952 7.317 3.447-1.852-1.496-5.791-3.049-7.472-3.688zm13.164-9.658l-.213.072c4.728 8.264-4.176 13.256-4.953 13.672a4.02 4.02 0 0 1 .366.33l.06.06s10.273-5.233 4.74-14.134z" class="B"/></g><path d="M195.291 77.808c-3.729.963-4.21-.119-4.451 0s.852-.601-.36-.119-3.006-1.445-3.006-1.445l.025-.618c.013-4.022-3.042-8.043-3.042-8.043-5.54-3.006-3.609-7.338-3.609-7.338l-.226-1.973-.62-5.382c.879-.273 1.713-.673 2.475-1.189a28.16 28.16 0 0 1 3.987-2.096l.639-.305s7.097 4.687 8.309 11.307 6.015 12.029 6.134 12.871-2.527 3.366-6.255 4.329z" class="J"/><g class="B C"><path d="M182.78 45.21l-5.292 3.609c.729.253 1.423.599 2.064 1.029 1.803-.253 2.906-1.545 3.65-3.134-.29-.464-.162-.88-.422-1.504z" class="B"/></g><path d="M178.691 49.783c2.923 0 5.293-2.369 5.293-5.292s-2.37-5.292-5.293-5.292-5.292 2.37-5.292 5.292 2.369 5.292 5.292 5.292z" class="D"/><g class="B C"><path d="M196.132 77.207c-3.728.963-4.21-.119-4.451 0s.853-.601-.36-.119-3.006-1.445-3.006-1.445l.026-.618c.015-4.016-3.034-8.043-3.034-8.043-5.54-3.006-3.609-7.338-3.609-7.338l-.224-1.975-.586-5.094c-.283.128-.576.232-.876.313l.61 5.384.228 1.973s-1.918 4.331 3.609 7.338c0 0 3.049 4.027 3.034 8.043l-.026.618s1.805 1.918 3.006 1.445.12.241.36.119.723.963 4.451 0c1.692-.438 3.277-1.214 4.66-2.282-1.173.76-2.46 1.327-3.812 1.681z" class="B"/></g><path d="M186.148 56.276s-3.006 1.082-4.687 2.887c0 0-8.179 3.247-10.465 2.887s-2.406-.963-2.887-1.917l-5.173-9.374s-2.165-7.819 0-6.978 2.77 5.539 2.77 5.539 4.09 8.179 6.615 8.06l6.852-3.268s1.564-2.286 2.286-2.165 4.689 4.329 4.689 4.329z" class="D"/><g class="B C"><path d="M182.088 51.873s-2.495-.228-3.218 2.9 5.54 5.051 5.54 5.051l3.368-4.687-5.69-3.264z" class="B"/></g><path d="M182.209 51.873s-2.495-.228-3.217 2.9 5.539 5.051 5.539 5.051l3.369-4.687-5.691-3.264z" class="J"/><g class="B C"><path d="M181.19 52.429a6.42 6.42 0 0 1-1.18.456l.021.181c.398-.192.785-.404 1.159-.637zm20.356 21.05c-.119-.852-4.932-6.255-6.134-12.871s-8.309-11.307-8.309-11.307-.235.13-.639.305a28.83 28.83 0 0 0-3.149 1.587 28.57 28.57 0 0 1 2.066-.984c.407-.175.64-.305.64-.305s7.096 4.687 8.309 11.307 6.014 12.029 6.134 12.871c.076.53-.949 1.73-2.651 2.787 2.337-1.161 3.824-2.755 3.733-3.39z" class="B"/></g><path d="M183.639 51.922s3.11 1.54 3.696 4.502" stroke="#000" class="B I"/><g class="B C"><path d="M176.033 44.192c.496.111 1.05.266 1.295.712.177.324.145.731.317 1.065.443.835 1.743.548 2.557 1.038 1.491.899.518 3.703 2.003 4.606.279.17.609.239.897.394 1.255.686 1.078 2.501.852 3.914s.043 3.345 1.459 3.545c.78.109 1.656-.407 2.312.026.343.226.499.639.786.94.198.197.449.332.722.389a1.43 1.43 0 0 0 .816-.071c.482-.2.829-.658 1.33-.805.805-.236 1.704.416 2.48.115s.952-1.421.752-2.267-.609-1.705-.396-2.557c.176-.703.752-1.24 1.003-1.917.737-2.001-1.549-4.067-1.127-6.157.183-.905.865-1.704.852-2.618-.021-1.065-.965-1.873-1.947-2.265s-2.06-.503-3.021-.94c-2.107-.959-3.26-3.277-5.186-4.564a7.27 7.27 0 0 0-2.853-1.095 9.35 9.35 0 0 0-3.94.209c-1.284.349-2.478.968-3.504 1.815l-.579.439c-.823.594-1.705 1.18-2.206 2.062-1.828 3.183 2.372 3.547 4.326 3.988z" class="B"/></g><g class="E"><path d="M176.182 43.892c.496.111 1.05.266 1.295.712.177.324.145.731.317 1.065.444.835 1.743.548 2.557 1.038 1.491.899.518 3.703 2.003 4.606.279.17.609.239.897.394 1.255.686 1.078 2.501.852 3.914s.043 3.345 1.459 3.545c.78.109 1.656-.407 2.312.026.343.226.499.639.786.94a1.44 1.44 0 0 0 .722.389c.273.057.557.032.817-.071.481-.2.828-.658 1.329-.805.805-.236 1.704.416 2.48.115s.952-1.421.752-2.267-.609-1.705-.396-2.557c.177-.703.752-1.24 1.003-1.917.737-2.001-1.549-4.067-1.127-6.157.183-.906.865-1.704.852-2.618-.021-1.065-.965-1.873-1.947-2.265s-2.06-.503-3.021-.94c-2.107-.959-3.26-3.277-5.186-4.564a7.13 7.13 0 0 0-2.578-1.044 9.36 9.36 0 0 0-7.725 1.977l-.573.426c-.823.594-1.705 1.18-2.205 2.062-1.828 3.192 2.373 3.558 4.325 3.997zm-42.88 33.272H96.231v-6.986c9.057-4.233 22.992-6.611 37.071 6.986z"/></g><g class="B C"><path d="M162.065 76.165v.999h-46.233v-.213s22.75-22.151 46.233-.786z" class="B"/></g><g class="E"><path d="M162.491 76.165v.999h-46.233v-.213s22.75-22.151 46.233-.786zM103.9 49.254a3.41 3.41 0 0 0 3.409-3.409 3.41 3.41 0 0 0-3.409-3.409 3.41 3.41 0 0 0-3.408 3.409 3.41 3.41 0 0 0 3.408 3.409z"/></g><g fill="#f4f4f4"><path d="M132.923 43.267l-1.121.023a1.37 1.37 0 0 0-.388.079l-2.004.72 4.968.015 9.306-.072 2.738-.073 1.41-.136c1.762-.158 4.33-.128 6.624-.119s5.065-.051 5.872-.281h-4.926c-.53 0-1.088 0-1.557-.026l-1.364-.134c-.797-.068-1.896-.077-2.919-.081-5.614-.023-11.157.109-16.639.085zm5.514 4.129h-.243c-.029.002-.058.007-.085.017l-.427.156h1.076l2.016-.015.592-.015c.115 0 .2-.021.305-.03.381-.034.937-.028 1.436-.026a7.83 7.83 0 0 0 1.278-.062h-1.065-.337c-.1 0-.191-.019-.296-.03a8.28 8.28 0 0 0-.639-.017l-3.611.021zm-14.275 5.966h-.243c-.029.002-.058.007-.085.017l-.426.155h1.076l2.015-.015.593-.015c.115 0 .2-.021.304-.03.382-.034.938-.028 1.436-.026.427.014.855-.006 1.279-.062h-1.066-.336c-.101 0-.192-.019-.297-.03a8.23 8.23 0 0 0-.639-.017l-3.611.021z"/></g><g class="E"><path d="M116.153 75.275h-1.602s-.501-17.522 1.602-22.929h.401s-1.402 19.825-.401 22.929z"/><path d="M115.052 51.444s-1.302 3.605-.701 5.207c0 0 .901-3.305 1.951-3.805s2.152 3.805 2.152 3.805.601-2.704-.5-4.9c0 0 2.203 1.202 3.304 3.505 0 0 .2-1.491-2.403-4.606 0 0 2.303.601 3.805 2.003 0 0 .501-1.102-2.604-2.904 0 0 .401-1.302 2.804-.701 0 0 0-1.704-3.805-1.402 0 0 0-1.102 2.503-.901 0 0 0-1.402-2.903-.901 0 0 .6-.901 1.001-1.102-.501-.046-1.001.097-1.402.401 0 0 .1-1.803-1.402-2.503l-.2 2.503-1.302-1.602c.1.1.401 1.302.3 1.903 0 0-1.704-1.402-3.805.1 0 0 2.604.2 3.004 1.101 0 0-2.203-.401-2.703-.1 0 0 1.704.601 1.602 1.001 0 0-3.004 0-3.409 1.102 0 0 3.104.401 3.304.701 0 0-3.604 2.603-3.805 3.304 0 0 3.705-2.203 4.306-2.203s-2.704 3.196-2.503 4.005c.008-.006 2.72-3.211 3.411-3.01zm20.862 23.174h1.223s.384-13.386-1.223-17.517h-.307s1.074 15.142.307 17.517z"/><path d="M136.756 56.413s.995 2.755.534 3.978c0 0-.688-2.525-1.491-2.906s-1.645 2.906-1.645 2.906-.458-2.065.384-3.748a6.65 6.65 0 0 0-2.525 2.678s-.153-1.148 1.837-3.52c0 0-1.76.458-2.906 1.53 0 0-.384-.842 1.99-2.218 0 0-.307-.995-2.142-.535 0 0 0-1.3 2.906-1.065 0 0 0-.842-1.917-.688 0 0 0-1.065 2.218-.688 0 0-.458-.688-.765-.842.381-.034.761.076 1.065.307 0 0-.077-1.376 1.065-1.917l.154 1.917.995-1.223c-.183.461-.262.958-.23 1.453 0 0 1.299-1.065 2.906.077 0 0-1.99.153-2.295.842 0 0 1.683-.307 2.065-.077 0 0-1.3.458-1.223.765 0 0 2.294 0 2.601.842 0 0-2.371.307-2.525.535 0 0 2.755 1.99 2.907 2.525 0 0-2.83-1.683-3.29-1.683s2.064 2.448 1.917 3.06c.011-.008-2.053-2.452-2.59-2.303zm13.801 15.589h.759s.236-8.29-.759-10.849h-.189s.662 9.385.189 10.849z"/><path d="M151.079 60.727s.616 1.704.333 2.463c0 0-.426-1.564-.925-1.8s-1.018 1.8-1.018 1.8-.284-1.278.236-2.322c-.667.394-1.209.969-1.564 1.658 0 0-.093-.712 1.138-2.18a4.8 4.8 0 0 0-1.8.948s-.237-.522 1.231-1.374c0 0-.189-.616-1.327-.332 0 0 0-.805 1.8-.663 0 0 0-.522-1.184-.426 0 0 0-.663 1.374-.426a2.09 2.09 0 0 0-.473-.522c.237-.022.473.046.663.19 0 0-.047-.852.662-1.185l.094 1.185.616-.758a2.06 2.06 0 0 0-.143.899c.263-.192.582-.291.908-.283s.639.124.892.33c0 0-1.231.094-1.421.522 0 0 1.042-.19 1.278-.047 0 0-.805.283-.758.473 0 0 1.421 0 1.611.522 0 0-1.468.19-1.564.332 0 0 1.704 1.231 1.8 1.564 0 0-1.753-1.042-2.037-1.042s1.279 1.517 1.185 1.894c.004.002-1.276-1.515-1.607-1.419z"/></g><path d="M122.86 62.628l-.16-.852c0-.063-.013-.125-.038-.182a.47.47 0 0 0-.106-.152l-.74-.362a.85.85 0 0 1-.132-.213l.013-.019c.041-.051.07-.109.085-.173a.2.2 0 0 0 0-.049h.011c.068.009.137-.008.194-.047s.096-.099.11-.166v-.019c-.013.058-.044.109-.089.148s-.101.061-.16.065a.76.76 0 0 0 .335-.626v-.032c.032-.02.06-.047.082-.078s.037-.067.043-.105v-.019c-.009.036-.025.069-.047.099a.26.26 0 0 1-.083.072.74.74 0 0 0-.046-.213h.019c.073 0 .143-.029.194-.081s.081-.121.081-.194c-.005.05-.036.115-.087.162s-.117.074-.186.074h-.034v-.013a.44.44 0 0 0 .21-.136c.056-.064.093-.144.105-.228a.29.29 0 0 1-.055.128.28.28 0 0 0-.062-.188c-.043-.053-.104-.088-.172-.098s-.137.005-.193.043-.098.096-.114.162l-.049-.028c.015-.055.047-.104.091-.139s.099-.057.156-.061h-.019c-.058 0-.114.017-.161.05s-.083.08-.102.135c-.164-.077-.351-.091-.526-.041s-.325.162-.424.314c-.057.043-.132.104-.13.158-.024.025-.047.052-.066.081a1.05 1.05 0 0 0-.085.569.6.6 0 0 1-.034.285c-.034.091-.09.172-.162.237.032.013.066.02.1.02s.069-.007.1-.02a.76.76 0 0 0 .177-.104.4.4 0 0 0 .126-.122v-.011a.59.59 0 0 0 .113.06c.015.128.019.275-.039.324l.011-.023a.69.69 0 0 1-.479.136.6.6 0 0 0-.291.094c-.087.056-.158.134-.206.225l-.232.969v.017.017c.004.013.011.025.02.034s.022.016.035.019l.073.019c.011.166-.006.332-.049.492-.049.239-.077.481-.083.724.017.121.047.754.062 1.055-.026.103-.047.206-.062.311l-.343 2.058-.243 2.145-.045.288s-.697.874-.492.997.52.177.82-.288a.76.76 0 0 1 .192-.288c.034-.029.061-.067.077-.109s.023-.087.019-.132l-.021-.213.036.013h.021s.343-1.127.305-1.918c0 0 .639-2.263 1.118-2.618v-.015l.045-.021.102 2.192-.104 2.416-.024.145s-.696.874-.492.997.52.177.821-.288c.04-.109.106-.208.191-.288.034-.029.061-.067.078-.109s.023-.087.018-.132l-.032-.32c.12-.407.426-1.579.301-2.258l.213-1.444c.213-.241.185-.852.185-.852.168-.352.213-1.73.213-1.73l.043-.682a.57.57 0 0 1 .096 0h.021.013v-.013c.006-.005.011-.012.015-.019h.012v-.017l-.002-.002zm-.596 1.385l-.064-.141h-.017v-.017-.034c.01-.023.018-.046.025-.07.028-.044.042-.095.041-.147.025.135.03.273.015.409zm-.064-.584l-.043-.456.013-.036.057.58-.027-.087zm-2.02.062c-.015.017-.026.037-.032.058s-.009.044-.006.066c0 .061.006.107.019.151l-.066.285v-.545c.044-.058.082-.119.115-.183.007.058-.004.116-.03.168z" fill="url(#D)"/><path d="M120.61 59.971a1.01 1.01 0 0 0-.083.548c.011.093 0 .187-.033.275a.59.59 0 0 1-.156.228c.03.013.063.019.097.019s.066-.007.097-.019a.74.74 0 0 0 .17-.1c.049-.029.09-.069.121-.117a.45.45 0 0 0 .028-.232c0-.139.013-.278.036-.415.013-.085.094-.317 0-.362s-.236.113-.277.177z" class="H"/><g fill="#333"><path d="M119.202 69.028l-.066.426s-.671.852-.473.961.501.17.79-.277a.73.73 0 0 1 .184-.277.28.28 0 0 0 .074-.105c.016-.04.022-.084.017-.127l-.066-.65-.46.049zm2.02.168l-.066.426s-.671.852-.473.961.5.171.79-.277c.039-.105.102-.2.183-.277a.27.27 0 0 0 .075-.105c.016-.041.022-.084.017-.127l-.066-.65-.46.049z"/></g><path d="M120.176 64.102s-.316.228-.426 1.02l-.331 1.984-.228 2.143.559.192s.33-1.087.294-1.843c0 0 .671-2.391 1.142-2.557l.1 2.111-.107 2.376.478.096s.483-1.513.33-2.314l.249-1.704s.286-.91-.111-1.704l-1.949.2z" fill="#4d8af0"/><g class="B C"><path d="M121.137 65.073v-.036c-.471.168-1.142 2.557-1.142 2.557a6.75 6.75 0 0 1-.288 1.824l.06.021s.33-1.087.294-1.843c-.002.002.611-2.171 1.076-2.523zm1.007-1.161h-.064a2.52 2.52 0 0 1 .107 1.69l-.249 1.704c.147.759-.282 2.154-.326 2.301l.062.013s.483-1.513.33-2.314l.249-1.704s.288-.906-.109-1.69z" class="B"/></g><use xlink:href="#J" class="K"/><use xlink:href="#J" class="B C"/><path d="M122.053 63.035a1.49 1.49 0 0 1 .664-.262c.017 0 .033-.007.044-.018a.06.06 0 0 0 .018-.044s-.558-.219-.726.324z" class="K"/><path d="M122.779 62.709s-.558-.213-.726.324c0 0 .411-.315.696-.264" class="B C"/><path d="M121.405 60.868c.401 0 .727-.325.727-.727s-.326-.727-.727-.727-.726.325-.726.727.325.727.726.727z" class="H"/><path d="M120.904 60.651s.103.426 0 .513-.309.249-.153.375.712.339.897.234.396-.072.345-.285-.456-.168-.462-1.227l-.627.39z" class="D"/><path d="M119.875 62.421a2.62 2.62 0 0 1-.044.69 3.98 3.98 0 0 0-.081.697c.021.153.066 1.167.066 1.167s-.081.888.351.808-.066-1.014-.066-1.014l.021-1.212c.118-.159.191-.347.214-.543.032-.292-.461-.592-.461-.592z" class="B C"/><path d="M119.869 62.421c.015.231 0 .463-.045.69a4.08 4.08 0 0 0-.081.697 33.92 33.92 0 0 1 .066 1.167s-.081.888.352.808-.066-1.014-.066-1.014l.021-1.212a1.13 1.13 0 0 0 .213-.543c.03-.292-.46-.592-.46-.592z" class="D"/><path d="M122.636 62.487l-.059.948s-.036 1.33-.198 1.666c0 0 .044.933-.39.91s.072-1.021.072-1.021.232-1.038.113-1.366l-.113-1.138h.575z" class="B C"/><path d="M122.643 62.487l-.06.948s-.036 1.33-.198 1.666c0 0 .045.933-.39.91s.073-1.021.073-1.021.232-1.038.113-1.366l-.113-1.138h.575z" class="D"/><g class="C"><path d="M121.235 61.569s.351.162.543-.319l.714.349c.044.042.078.092.102.148s.036.116.036.176l.154.822s-.522-.177-.684.309l.044.462c.034.114.026.237-.023.345-.004.01-.007.02-.007.031s.003.021.007.031a.23.23 0 0 1 .008.104.24.24 0 0 1-.04.097c-.021.029-.048.052-.08.068s-.066.025-.101.025c-.192.002-.383.017-.573.045-.154.045-.618-.087-.771 0s-.478-.066-.478-.066l.088-.375s-.06-.183.015-.249.029-.639-.037-.801c0 0-.264-.249-.426-.213l.213-.948c.046-.088.114-.163.198-.218s.18-.086.279-.091a.67.67 0 0 0 .463-.132s-.16.349.356.401z" class="B"/><path d="M121.271 61.552c.096.026.351.053.505-.332l.714.349a.46.46 0 0 1 .102.148c.024.056.036.116.036.176l.153.822s-.522-.177-.683.309l.044.462.03.092c.013.039.016.081.01.121s-.022.079-.046.113c-.01.012-.017.026-.02.041s-.001.031.005.045a.23.23 0 0 1 .008.104.24.24 0 0 1-.04.096c-.021.029-.048.052-.08.068s-.066.025-.101.025c-.192.002-.383.017-.573.045-.154.045-.618-.087-.771 0s-.478-.066-.478-.066l.088-.375s-.06-.183.015-.249.029-.639-.037-.801c0 0-.264-.249-.426-.213l.213-.948c.046-.089.114-.163.198-.218a.58.58 0 0 1 .279-.091.67.67 0 0 0 .463-.132s-.173.315.281.383l.111.026z" class="B"/></g><path d="M121.271 61.567c.096.026.351.053.505-.332l.714.349a.46.46 0 0 1 .102.148c.024.056.036.116.036.176l.153.822s-.522-.177-.684.309l.045.462c.034.114.026.236-.023.345-.004.01-.007.02-.007.031s.003.021.007.031a.23.23 0 0 1 .007.104c-.005.035-.019.068-.04.097s-.047.052-.079.068-.066.025-.101.025c-.192.002-.384.017-.573.045-.154.045-.618-.087-.772 0s-.477-.066-.477-.066l.087-.375s-.059-.183.015-.249.03-.639-.036-.801c0 0-.264-.249-.426-.213l.213-.948c.046-.088.114-.163.198-.217s.18-.086.279-.091a.67.67 0 0 0 .463-.132s-.173.315.281.383l.113.03z" class="K"/><path d="M121.541 60.299l-.624.39c.016.07.028.142.036.213.072.028.147.043.224.043a.64.64 0 0 0 .405-.183c-.028-.152-.042-.307-.041-.462z" class="B C"/><path d="M121.164 60.898c.333 0 .603-.27.603-.603s-.27-.603-.603-.603-.603.27-.603.603.27.603.603.603z" class="D"/><g class="H"><path d="M122.053 59.832c.146 0 .264-.118.264-.264s-.118-.264-.264-.264-.264.118-.264.264.118.264.264.264z"/><path d="M122.104 59.847c-.067 0-.131-.025-.18-.07s-.079-.108-.084-.175c0 .089.028.156.077.206s.117.077.187.077.137-.028.187-.077.077-.117.077-.187c-.005.047-.035.11-.084.155s-.113.071-.18.07z"/><path d="M121.953 60.099c-.066-.013-.124-.049-.164-.103s-.057-.12-.049-.187v.017c-.013.069.002.14.042.198s.101.097.17.11.14-.002.197-.042a.26.26 0 0 0 .11-.17v-.019c-.016.066-.057.123-.114.159s-.126.05-.192.037z"/><path d="M121.748 60.738a.26.26 0 0 1-.213-.29v.017c-.013.069.003.14.042.198s.101.097.17.11.14-.003.198-.042.097-.101.11-.17v-.019a.26.26 0 0 1-.114.159c-.057.036-.126.05-.193.037zm.356-1.031c-.067 0-.132-.025-.181-.071s-.079-.109-.083-.176a.28.28 0 0 0 .077.206c.05.05.117.077.187.077s.137-.028.187-.077.077-.117.077-.187c-.004.048-.034.111-.083.157s-.114.071-.181.071zm-.369-.143c.001-.067.027-.132.073-.18a.27.27 0 0 1 .177-.082h-.02c-.07 0-.137.028-.186.077s-.078.117-.078.187.028.137.078.187a.26.26 0 0 0 .186.077h.02c-.068-.004-.132-.034-.178-.083s-.072-.115-.072-.183z"/></g><g class="C"><path d="M122.002 62.057a.98.98 0 0 1 0 .396s-.037.345.021.405m-1.807-.72c.028.131.028.266 0 .396 0 0-.036.345.022.405m-.037.615c.057.02.12.02.177 0 .07-.021.144-.021.213 0m-.3-.519a1.52 1.52 0 0 0 .609-.096s.75.183.963.051" class="B"/></g><path d="M120.065 66.201h-.177c-.079 0-.143.064-.143.143s.064.143.143.143h.177c.079 0 .143-.064.143-.143s-.064-.143-.143-.143z" class="D"/><g fill="#f0e4e4"><path d="M119.747 66.277l.248-.011.213.034h-.075l-.386-.023z"/><use xlink:href="#K"/><path d="M121.414 65.133h.247l.213.021h-.075l-.385-.021zm0 .053h.247l.213.021h-.075l-.385-.021zm0 .052h.247l.213.021h-.075l-.385-.021zm-1.667 1.237h.248l.213.026h-.075l-.386-.026z"/><path d="M119.747 66.45h.248l.213.026h-.075l-.386-.026z"/><path d="M119.747 66.424h.248l.213.025h-.075l-.386-.025z"/><path d="M119.747 66.399h.248l.213.026h-.075l-.386-.026zm0-.16l.248-.011.213.034h-.075l-.386-.023zm0-.045l.248-.011.213.034h-.075l-.386-.023z"/></g><path d="M121.267 59.909a1.45 1.45 0 0 0 .085.665.79.79 0 0 1-.032.639.21.21 0 0 0 .099-.001c.033-.008.063-.024.088-.046.053-.046.099-.1.137-.16.039-.049.068-.105.083-.166a.66.66 0 0 0-.043-.281 3.63 3.63 0 0 1-.089-.497c-.013-.102 0-.396-.115-.426s-.192.188-.213.273z" class="B C"/><path d="M121.282 59.903a1.45 1.45 0 0 0 .085.665.79.79 0 0 1-.032.639c.033.008.067.007.099-.001s.063-.024.088-.046c.053-.046.099-.1.137-.16.039-.049.068-.105.083-.166a.66.66 0 0 0-.043-.281 3.63 3.63 0 0 1-.089-.497c-.013-.102 0-.396-.115-.426s-.192.185-.213.273z" class="H"/><path d="M121.022 60.06c.051.053.061.132.104.192.038.041.084.072.136.093s.107.03.162.026a.17.17 0 0 1 .088.019c.046.03.049.098.078.145.016.017.036.031.057.04s.045.014.068.014a.17.17 0 0 0 .068-.014c.021-.009.041-.023.057-.04.061-.074.095-.166.096-.262.01-.106.01-.212 0-.318-.003-.121-.051-.236-.135-.324-.07-.052-.15-.087-.236-.102a.7.7 0 0 0-.364-.028.66.66 0 0 0-.167.083l-.213.143c-.079.055-.228.166-.083.226.092.043.207.023.284.106z" class="B C"/><path d="M121.036 60.052c.052.053.062.132.105.192.038.041.084.072.136.093s.107.03.162.026c.03-.002.061.005.088.019.046.03.049.098.078.145.016.017.036.031.057.04a.17.17 0 0 0 .068.014c.023 0 .046-.005.068-.014s.041-.023.057-.04a.41.41 0 0 0 .095-.262 1.53 1.53 0 0 0 0-.317.48.48 0 0 0-.134-.324.57.57 0 0 0-.236-.102c-.117-.041-.243-.051-.365-.028a.65.65 0 0 0-.166.083l-.213.143c-.079.055-.228.166-.083.226.092.043.213.025.283.106z" class="H"/><g fill="#f0e4e4"><use xlink:href="#L"/><path d="M121.428 65.133h.248l.213.021h-.071l-.39-.021zm0 .053h.248l.213.021h-.071l-.39-.021zm0 .052h.248l.213.021h-.071l-.39-.021z"/><use xlink:href="#M"/><path d="M121.322 68.118h.247l.213.021h-.074l-.386-.021zm0 .051h.247l.213.021h-.074l-.386-.021zm0 .051h.247l.213.021h-.074l-.386-.021z"/></g></g><defs><linearGradient id="A" x1="96.23" y1="129.998" x2="96.23" y2="81.051" gradientUnits="userSpaceOnUse"><stop stop-color="gray" stop-opacity=".25"/><stop offset=".54" stop-color="gray" stop-opacity=".12"/><stop offset="1" stop-color="gray" stop-opacity=".1"/></linearGradient><linearGradient id="B" x1="67909.7" y1="52246.1" x2="67909.7" y2="0" gradientUnits="userSpaceOnUse"><stop stop-color="gray" stop-opacity=".25"/><stop offset=".54" stop-color="gray" stop-opacity=".12"/><stop offset="1" stop-color="gray" stop-opacity=".1"/></linearGradient><linearGradient id="C" x1="41634.5" y1="61047.3" x2="41634.5" y2="26293.6" gradientUnits="userSpaceOnUse"><stop stop-color="gray" stop-opacity=".25"/><stop offset=".54" stop-color="gray" stop-opacity=".12"/><stop offset="1" stop-color="gray" stop-opacity=".1"/></linearGradient><linearGradient id="D" x1="3089.72" y1="5676.23" x2="3089.72" y2="5025.35" gradientUnits="userSpaceOnUse"><stop stop-color="gray" stop-opacity=".25"/><stop offset=".54" stop-color="gray" stop-opacity=".12"/><stop offset="1" stop-color="gray" stop-opacity=".1"/></linearGradient><clipPath id="E"><path fill="#fff" transform="translate(.603)" d="M0 0h202.795v130H0z"/></clipPath><path id="F" d="M24.603 5.373a1.76 1.76 0 1 0 0-3.524 1.76 1.76 0 1 0 0 3.524z"/><path id="G" d="M186.449 55.228s-3.006 1.082-4.687 2.887c0 0-8.18 3.247-10.466 2.887s-2.405-.963-2.887-1.918l-5.173-9.374s-2.164-7.819 0-6.978 2.77 5.539 2.77 5.539 4.091 8.179 6.615 8.06l6.85-3.264s1.564-2.286 2.286-2.165 4.692 4.325 4.692 4.325z"/><path id="H" d="M181.51 50.795l-2.399 1.883s1.2 3.138.899 4.238 4.798-1.726 4.798-1.726l-2.098-4.709-1.2.313z"/><path id="I" d="M187.834 75.281s.285 3.912-.757 4.939a.32.32 0 0 0-.081.123c-.017.047-.023.097-.016.147s.024.097.052.138.065.075.109.099l3.098 1.651 2.77-5.292-5.175-1.805z"/><path id="J" d="M119.748 62.549c-.001.016.004.032.015.045s.024.022.04.025c.156.039.301.112.426.213.234.183-.249-.367-.249-.367l-.162.036-.066.06-.004-.013z"/><path id="K" d="M121.414 65.082h.247l.213.021h-.075l-.385-.021z"/><path id="L" d="M121.428 65.082h.248l.213.021h-.071l-.39-.021z"/><path id="M" d="M121.322 68.065h.247l.213.021h-.074l-.386-.021z"/></defs></svg>